<?xml version="1.0" encoding="UTF-8"?>
<svg id="Layer_1" data-name="Layer 1" xmlns="http://www.w3.org/2000/svg" viewBox="0 0 2000 2000">
  <defs>
    <style>
      .cls-1 {
        fill: #386641;
      }
    </style>
  </defs>
  <path class="cls-1" d="M1399.241,397.22c63.358-11.198,122.002-35.447,169.854-75.091,24.043-19.919,20.092-54.477-1.18-72.398-23.599-19.881-55.22-16.888-78.845,3.088-25.557,21.607-56.84,33.967-89.636,41.926-99.688,24.193-214.234,3.025-290.721-63.168-32.549-28.17-57.389-63.408-66.491-104.242-4.817-21.609-16.46-38.614-37.899-45.036-20.878-6.254-43.663-2.285-58.861,13.481-13.78,14.294-16.134,32.789-11.282,51.453,48.772,187.61,268.378,284.748,465.06,249.988Z"/>
  <path class="cls-1" d="M1407.853,175.918c21.891-18.469,25.308-47.38,10.063-70.705-39.391-60.272-177.643-89.374-245.166-46.734-24.481,15.46-33.871,43.814-21.5,69.055,34.915,71.238,194.179,101.049,256.602,48.384Z"/>
  <path class="cls-1" d="M1918.845,661.17c-4.355-22.468-11.852-43.176-24.177-62.107-14.185-21.788-39.932-41.857-66.339-42.22-.137,0-.272-.012-.409-.01-.177.002-.355.004-.532.008-2.634.011-5.271.15-7.906.576-1.007.163-1.991.386-2.958.649-13.433,2.63-25.296,9.547-35.37,19.925-44.234,45.567-97.299,79.772-157.649,104.433-160.765,65.691-361.425,70.309-531.09,35.075-19.224-3.992-37.001-2.857-52.822,7.657-16.15,10.733-24.37,30.403-16.884,47.979,6.791,15.941,21.25,26.037,39.528,30.522,160.073,39.273,328.395,41.051,489.206,3.142,97.827-23.061,194.16-65.397,269.78-129.462.067-.057.184-.176.264-.25,11.381,52.918,10.172,110.257-2.172,160.601-3.535,8.385-9.019,11.486-18.46,10.327l-51.744-6.353c-41.865-3.253-81.208,13.07-108.39,44.385l-25.95,29.894c-5.709,6.577-13.159,9.714-22.151,8.167l-43.007-7.398c-34.31-5.902-67.426,3.379-94.338,24.931l-24.686,19.77c-3.135,2.512-12.096-.293-15.227-1.921l-36.532-18.988c-27.407-14.245-57.886-15.878-87.187-6.017l-47.978,22.11-35.9-23.148c-18.757-12.094-38.612-20.692-60.757-23.947-47.635-7.003-91.442,16.968-110.69,61.122-17.379,39.87-22.508,82.506-18.853,126.434,3.387,40.711,9.391,79.391,19.139,119.033l30.862,125.493c16.617,67.569,30.401,133.621,42.367,202.272,10.059,57.714,17.27,114.275,16.08,172.651-.6,29.412-5.613,56.964-19.486,82.646-16.877,31.241-45.56,55.525-80.813,62.39-51.053,9.941-121.112-25.992-163.274-57.652-35.98-27.018-60.354-63.215-73.389-106.536-15.855-52.695-21.645-106.166-20.662-161.993,1.805-102.547,11.327-203.734,30.931-304.503,15.66-80.492,36.243-158.201,57.027-237.326,3.778-28.169,4.72-55.122,5.38-83.601-3.94-30.501-32.453-52.643-62.527-57.001-17.86-2.589-35.237.658-53.308,2.793l-30.035,3.549-19.839-25.234c-35.663-45.36-102.088-52.67-146.781-20.121l-37.484,27.299c-6.674,4.86-15.92,7.375-24.486,5.81l-25.015-43.427c-15.92-27.638-41.607-45.667-73.6-48.924-14.965-1.524-30.1-2.412-45.437-1.067l-93.52,8.2c-13.382,1.174-29.515,2.136-41.56-4.526-26.251-14.519-39.415-44.234-37.235-73.846,2.211-30.022,9.246-58.071,23.184-84.933,58.413-112.575,145.085-193.822,249.493-264.154,55.388-37.311,112.64-68.04,174.22-93.547,22.895-9.483,44.828-18.451,67.591-26.526,6.429,15.226,16.762,37.02,18.084,39.994,33.434,75.198,83.825,140.714,147.636,195.758,127.826,110.263,296.196,169.911,470.38,166.543,99.212-1.918,195.508-23.975,282.516-68.249,35.883-18.259,68.34-38.659,97.32-65.007,20.266-18.427,20.191-47.733,2.164-66.629-15.282-16.019-47.768-25.547-69.283-8.73-51.736,40.441-108.661,71.985-175.264,89.543-251.616,66.33-528.923-38.761-646.915-257.897-16.009-29.732-28.075-57.997-41.287-89.169-.274-.647-.588-1.276-.899-1.906-2.833-6.877-6.006-13.451-10.494-17.723-29.46-28.044-52.451-28.351-90.331-15.085-61.143,21.413-120.106,45.606-177.719,75.754-95.518,49.983-196.502,122.163-270.232,200.853-45.569,48.634-84.247,102.452-114.734,161.69-21.401,41.585-32.718,86.501-33.987,132.768-1.075,39.177,10.035,74.519,32.326,105.846,37.74,53.043,86.884,73.425,152.271,67.435l86.377-7.913,33.727.312c10.412,19.759,20.184,37.68,33.159,55.296,35.163,47.746,109.175,49.409,158.329,13.645l36.453-26.523c5.957-4.334,12.372-2.344,16.428,2.967l17.925,23.474c33.477,40.343,76.611,40.698,126.38,30.667-23.098,85.798-45.781,171.732-62.984,259.866-21.459,109.94-31.806,220.606-32.773,332.497-.528,61.144,6.826,120.09,23.786,177.94,18.642,63.589,54.33,117.761,106.65,158.039,34.718,26.727,72.227,47.393,113.247,62.919,69.794,26.416,139.204,26.932,202.497-14.048,70.537-45.67,105.969-121.485,108.083-204.955,1.26-49.756-.444-98.101-9.331-147.23l-28.618-158.199-47.821-199.773c-10.571-44.161-19.278-86.913-22.784-131.757-2.172-27.787.63-54.19,12.08-79.957,9.741-.709,18.238,3.574,26.532,8.606l52.489,31.846c23.526,11.345,49.596,11.801,72.941.462l38.709-18.801c7.981-3.877,15.783-2.177,23.246,2.119,17.554,10.105,34.74,19.397,54.164,25.088,34.102,9.992,69.423,3.889,96.741-18.506l22.816-18.704c5.939-4.868,13.698-6.558,21.631-5.172l39.747,6.945c38.972,6.809,77.113-5.051,105.066-33.017l30.92-35.341c8.871-10.139,19.41-14.531,33.071-12.873l51.697,6.274c59.85,7.264,109.395-38.76,121.034-98.96,12.201-63.108,12.655-122.86.391-186.128Z"/>
</svg>