<?xml version="1.0" encoding="UTF-8"?>
<svg id="Layer_1" data-name="Layer 1" xmlns="http://www.w3.org/2000/svg" viewBox="0 0 2000 689.537">
  <g>
    <g>
      <path d="M843.843,146.165c0,3.897-.52,7.275-2.079,11.433-3.118,8.575-5.456,12.991-9.613,21.047-2.599,4.936-4.678,8.315-7.275,12.212-2.339,3.378-3.898,6.756-5.457,10.393-4.417,11.172-9.614,22.345-15.07,33.258-2.338,4.677-4.157,9.354-7.275,13.251-4.157,8.055-8.055,14.291-13.771,23.125-1.299,2.079-1.819,4.157-4.157,5.197-1.039.52-2.079.779-3.118.779s-2.339-.259-3.638-.259h-2.079c-1.818-1.039-2.598-2.338-4.417-3.118-3.118-1.299-5.456-1.039-8.574-2.598-.78-.52-1.819-1.559-2.858-2.339-3.377-1.818-6.756-2.079-9.874-4.936-2.598-2.598-3.378-4.677-4.157-8.315-.26-1.299-.52-2.598-.52-3.638,0-2.338.52-4.157.52-7.016,0-4.157,0-6.495.26-10.653.259-2.858.519-4.157.779-7.016v-.519c0-1.039-.26-1.819-.26-3.118v-22.865c0-1.299.26-1.819.26-3.118v-.26c-.26-2.858-.779-4.417-.779-7.275v-18.448c.259-7.535.519-11.953.779-19.488.26-3.118.26-4.937.52-8.055.52-4.936.78-7.535,1.299-12.472.26-1.299.52-2.079.52-3.637v-8.055c.519-4.157,1.299-7.535,2.079-10.653,2.858-2.079,5.197-2.858,8.054-3.118,2.339,0,4.677,0,7.015-1.039,1.039-.52,2.339-.26,3.378-.52,4.417-.259,8.315-1.299,13.511-1.299h1.039c4.157,0,6.756.52,11.172.78.78,0,1.039.259,1.819.259,2.338.259,3.898.259,6.236.78,3.377.779,4.937,2.079,8.315,2.598,1.039.26,1.819.26,2.598.26h2.598c1.039,0,2.079,0,3.118.26,6.236,1.558,10.913,2.598,15.59,5.716,3.638,2.339,6.495,5.457,8.315,9.354,1.039,2.858,2.338,5.976,3.377,9.094.78,2.079,1.299,3.898,1.819,5.976v8.054ZM816.561,133.954c0-.26,0-.52-.26-.78-.52-1.039-1.299-2.079-2.598-2.079-3.118,0-5.976-.78-8.574-2.079-3.378-1.299-7.275-1.299-10.393-2.598-1.039-.52-2.339-.52-3.638-.52-2.598-.259-5.456-.259-8.054-.259-4.417,0-8.834.259-12.732.519-1.818.78-2.598,1.56-2.858,2.858-.26.78-.26,1.559-.26,2.598-.259,13.511-.259,24.683-.519,40.273,0,3.118-.26,4.937-.52,8.055v2.598c.26,2.079.52,3.118.78,5.197v3.638c.259,3.118.259,6.236.259,9.094,0,5.456,0,10.393,1.299,15.849.26,1.559.26,3.118.26,4.677v6.236c0,.779.519,1.559.779,2.339.779,0,1.299,0,1.818.259,1.56-1.039,2.339-2.858,3.118-4.417,5.717-11.173,11.433-22.346,17.149-33.518,3.118-6.756,6.755-13.251,10.393-19.747,1.558-2.858,3.377-5.716,4.417-8.834.78-2.598,1.819-4.937,3.118-7.275,2.338-3.898,4.157-8.055,4.677-12.472,0-.78.26-1.299.52-1.819,1.299-2.079.78-4.676,1.559-6.755.26-.52.26-.78.26-1.039Z"/>
      <path d="M903.079,172.409c.779,1.818,1.299,3.897,1.299,5.976s-.52,4.157-1.039,6.236c-1.039,3.118-.78,5.976-1.299,9.614-.26,2.338-.26,3.897-.779,6.236-.26,2.079-.52,3.118-.78,5.197-.259,2.858-.52,4.157-1.039,7.015,0,.52-.259.52-.259,1.039-.26,4.157-.52,6.496-1.039,10.653-.26,4.157-1.039,6.495-1.299,10.653v39.235c0,1.039.26,1.818.26,2.858,0,.26,0,.779-.26,1.299-.779,2.858-1.039,5.197-3.638,6.755-1.039.78-2.338,1.039-3.377,1.039-1.56,0-2.858-.519-4.678-1.039-2.079-.779-2.079-2.858-4.157-4.157-.519-.259-.779-.259-1.299-.259h-1.039c-.52,0-.78,0-1.299-.259-1.819-.78-3.118-1.039-4.678-2.339-1.039-1.039-1.558-2.079-1.818-3.638-.779-3.898-.52-6.236-.779-10.134v-10.133c0-5.716,0-10.653.259-17.668.259-3.897.78-5.976,1.039-9.614.259-1.818.52-2.598.52-4.417.779-5.456,1.039-8.834,1.559-14.291.259-1.818.259-2.598.259-4.417.52-2.858.78-4.157,1.039-7.016.26-1.299.26-2.079.52-3.377.519-2.858.519-4.937,1.299-7.016.52-.779.52-1.818.52-2.858,1.039-8.315,2.858-16.629,5.197-25.204,1.299-4.417,3.378-7.015,5.716-11.433.259-.519.52-.779,1.039-.779h.78c1.558,0,3.118-.26,4.676-.26,1.819,0,3.378.26,5.197,1.299,2.339,1.039,2.079,3.378,2.599,5.716.259,1.039.519,2.079.519,2.858,0,1.039-.259,2.079-.259,3.118,0,2.858-.259,5.456-.259,8.054,0,1.818,0,3.638.779,5.457ZM913.992,113.947c0,.52,0,1.299-.259,1.818-1.56,3.898-5.717,4.157-10.134,5.197-.78,0-1.299.26-2.079.26-1.819,0-3.377-.52-5.197-1.559-3.118-1.039-5.197-2.079-7.275-4.677-.52-.779-.52-1.559-.52-2.079,0-1.039.26-2.079,1.039-2.858,2.598-3.638,5.197-5.976,8.575-7.535.779-.779,2.079-1.039,3.118-1.039.519,0,1.299,0,1.558.26,2.858,1.558,4.937,1.818,7.275,4.676,1.56,2.079,3.898,4.937,3.898,7.535Z"/>
      <path d="M1023.377,180.983v.52c0,1.818-.779,2.858-1.039,4.677v1.039c-1.039,4.677-1.558,8.055-2.858,11.952-1.299,3.897-2.598,7.795-3.638,11.952-1.039,3.898-2.598,7.016-4.157,11.433-.78,2.598-1.559,3.898-2.079,6.495-1.559,5.197-2.079,8.055-3.377,13.511-1.039,4.417-1.56,6.756-2.599,11.173,0,.78-.259,1.039-.519,1.819-2.858,6.236-3.638,11.172-7.275,16.109-.52.78-.78,1.56-1.56,2.339,0,.26-.259.26-.779.26h-.26c-3.637-.52-7.015-1.56-9.613-1.56-2.079,0-3.638-.779-5.197-1.299-2.598-1.039-5.197-2.338-6.236-5.456-.259-1.299-.52-2.339-.52-3.118,0-2.599,1.039-4.678,1.299-7.796.779-4.157,1.818-6.495,2.858-10.912.26-1.039.26-1.819.52-2.858,3.118-9.354,4.937-14.55,8.315-23.904,1.299-3.898,2.598-6.756,3.638-9.874,1.039-3.378.779-3.118,1.818-6.236.26-.779.52-1.299.52-1.818,0-.78-.26-1.56-.26-2.079-.26-.78-.779-1.819-1.299-2.599-3.637-.519-6.755-.259-10.393-.519h-2.858c-2.079,0-3.897,0-5.716-.78-.52-.259-1.039-.52-1.819-.52-2.079-.26-4.157-.26-6.495-.52-.78,0-1.299-.52-1.819-.52-4.936-1.818-9.873-5.457-14.29-8.054-3.118-1.56-4.417-3.378-6.236-6.236-1.559-2.599-2.079-4.417-2.339-7.275v-.52c0-2.338,1.039-4.157,1.039-6.236.26-2.338.26-4.417,1.039-6.755.52-3.118,1.299-6.496,2.339-9.874,1.559-4.676,3.638-9.354,5.457-14.29.519-1.299,1.299-2.858,2.079-4.157,2.079-3.118,4.417-6.236,6.495-9.354,4.157-6.496,12.731-8.834,19.747-13.511.78-.52,1.819-.779,2.598-.779s1.299.259,2.079.259c1.818.52,2.858,1.559,4.157,2.858.779.779,1.039,1.299,1.039,2.598v1.039c0,1.56-.26,2.599-.52,4.417-.52,2.339-.78,3.638-1.819,5.716-2.338,3.898-4.417,5.716-6.495,9.094-1.819,3.637-4.157,7.015-4.937,10.912-.779,3.378-2.079,6.236-3.118,9.094-.779,2.598-1.558,4.937-2.079,7.275-.519,1.819-1.558,3.377-1.558,5.197,0,.52,0,1.039.259,1.559.52,1.818,2.598,2.079,4.417,2.858.78.26,1.819.26,2.858.26,4.157,0,7.275-1.299,11.952-2.339,4.157-1.299,8.575-1.818,12.732-1.818,4.676,0,9.613.779,14.55,2.858,3.897,1.56,7.535,3.898,9.613,7.535,1.559,2.339,2.079,3.897,2.338,6.756Z"/>
      <path d="M1133.023,262.309c0,1.56-.78,2.339-2.339,4.678-.779,1.299-4.936,2.858-6.496,2.858-7.015.52-11.951,1.039-17.668,1.039-3.118,0-6.495-.26-10.653-.779-6.236-.78-9.613-2.858-15.07-6.236-2.598-1.56-3.118-3.638-4.936-5.976-3.378-4.417-5.976-7.535-8.315-11.692-2.079-3.898-4.157-7.796-5.976-11.953-2.079-3.897-3.638-8.315-4.417-12.472-.52-2.338-1.299-4.676-1.56-7.015-.259-2.339-.519-4.677-1.558-7.015-.26-.52,0-1.299-.26-1.819,0-3.638-.26-6.756-.26-10.393v-2.858c.26-3.897.78-5.976,1.299-9.873.26-2.339.779-3.898.779-6.236.78-14.032,7.275-26.503,18.968-38.455,6.756-7.016,8.834-9.354,15.85-13.771,7.275-4.936,14.55-6.236,20.266-9.354.52-.52.78-.52,1.56-.52.519,0,.779,0,1.299.52,3.118,2.079,5.456,2.598,7.795,5.716,1.299,1.299.52,2.858,1.039,4.937.26,1.299.779,1.818,1.299,3.377,0,.259.259.52.259.78v.259c-.259.52-.259.78-.52,1.559-.779,1.559-.779,2.598-2.079,4.157-10.913,11.952-22.605,8.834-30.4,24.683-3.897,7.016-7.275,21.047-8.315,32.479v3.118c0,3.378.52,6.236.78,10.393.259,1.299.259,2.079.52,3.378,1.039,4.676,1.039,7.535,2.339,12.212,1.299,4.417,2.858,6.496,4.417,10.653.52,1.039.52,1.818,1.039,2.598,2.598,3.898,3.898,6.496,7.275,9.614,1.559,1.299,2.858,1.559,4.937,1.818,4.676.52,6.236,1.299,10.653,2.339,4.157,1.039,7.016.52,10.913,2.598,3.118,1.559,4.157,3.898,6.236,5.976.779,2.079,1.299,3.637,1.299,4.676Z"/>
      <path d="M1240.851,173.967v1.56c0,1.299,0,2.598-.259,4.157,0,.519-.26,1.039-.26,1.558,0,1.039.26,2.079.26,3.118v.52c-.26,4.936-.26,7.794-.52,12.731-.519,8.315-1.039,12.991-1.558,21.306,0,1.039-.26,1.559-.26,2.598-.779,4.157-1.039,6.495-1.818,10.653-1.039,5.717-1.299,9.354-3.118,14.811-1.56,4.157-2.599,7.275-5.457,10.133-1.559,1.299-2.858,2.858-3.897,4.678-.52.779-1.039,1.558-1.819,2.079-1.819,1.039-3.118,2.598-4.417,4.417-1.299,1.819-3.118,2.858-5.457,4.417-4.157,2.858-4.417,3.638-9.094,5.457-1.039.52-3.378.779-5.976.779h-2.079c-3.638-.259-5.716-.259-9.354-1.558-5.197-1.819-9.874-2.079-12.991-6.236-.52-.52-3.897-3.378-3.897-3.898-.52-3.377-1.56-5.976-2.339-9.613-.779-3.378-1.039-5.197-1.818-8.575-.78-3.378-.78-5.457-1.56-8.834-.519-2.858-1.039-4.157-1.558-7.016-.52-2.858-.26-4.417-.52-7.275-.519-9.873-1.039-15.849-1.039-25.203v-2.338c0-8.835.78-13.771,1.56-22.346.259-1.818.519-2.598.779-4.417.26-1.299.26-2.079.52-3.377,1.299-6.236,2.079-9.614,3.377-15.85.78-3.118,1.299-4.677,2.079-7.795.78-2.598,1.039-4.417,1.819-6.756,3.377-10.393,8.574-18.708,13.252-25.204.779-.779,1.558-1.818,2.338-2.598.78-1.039,1.299-2.079,2.079-2.858,8.315-6.236,6.756-6.756,12.212-7.275h.779c4.417,0,13.251,2.858,15.59,5.456,1.299,1.56,2.598,3.378,4.417,4.417,1.558.779,3.377,1.039,4.936,1.818,1.559,1.039,3.118,2.079,3.638,3.898.78,3.898,2.858,7.275,4.417,10.653,1.299,2.858,2.599,5.457,3.638,8.315.519,1.819,1.039,3.378,1.039,5.197.519,4.678,1.558,8.575,2.079,14.291v13.252c.259,2.858.259,3.897.259,6.755ZM1209.152,133.174c-1.818-2.858-3.378-3.898-6.496-3.898h-.259c-1.039,0-4.157,3.118-4.417,4.157-1.56,5.197-3.638,10.653-4.157,13.252-1.819,7.016-2.599,11.173-4.157,18.188-1.039,4.157-.26,8.054-1.039,11.952-.52,4.677-.26,5.716-.52,10.134v6.236c-.259,3.118-1.039,4.936-1.039,8.054v3.638c0,5.456.26,9.613.52,15.849,0,1.56.259,2.339.519,3.638.78,6.236.78,10.133,2.079,17.668.26,1.818.78,6.755,6.496,6.755h.52c2.079,0,6.495-3.118,7.275-5.456,1.039-3.638,2.079-7.275,2.598-9.613.52-3.378,1.039-5.976,1.818-9.614,1.039-5.976,1.299-9.094,2.339-15.07,0-.78,0-1.039.26-1.819.519-3.637,1.039-5.716,1.299-9.613.259-4.937.259-7.535.52-12.472,0-1.299,0-2.338.26-3.638.259-3.378.519-5.457.779-8.834.26-5.716.779-10.393.779-15.59,0-2.079,0-4.417-.259-6.756-.52-4.157-2.079-11.433-5.716-17.149Z"/>
      <path d="M1411.553,107.45c0,.78,0,1.819-.259,2.599-2.339,3.637-1.819,7.535-2.858,12.212-.259,2.079-.259,3.118-.52,5.197-.26,2.339,0,3.897-.52,6.236-.52,4.157-1.039,6.236-2.079,10.393-.259,1.559-.78,2.079-1.039,3.638-.52,3.377-.78,5.197-1.299,8.574-.26,2.339-.26,3.898-.52,6.236-.519,4.678-.779,7.016-1.299,11.693-.259,2.339-.259,3.897-.52,6.236-.26,1.818-.52,2.598-.779,4.417-.52,3.377-.78,5.197-1.299,8.574-.52,3.898-.52,5.976-1.039,9.874-.26,2.079-.26,3.118-.52,5.197-.52,3.378-.78,5.457-1.299,8.834-.26,1.819-.26,2.598-.26,4.417,0,3.638,0,5.457-.26,9.094,0,2.079-.259,3.118-.779,5.197-1.559,6.495-2.858,10.913-4.157,16.37,0,4.417-2.339,8.315-2.339,12.472v.779c-.779,2.858-1.558,5.716-2.338,8.575-.52,2.079-.78,4.157-1.299,5.976-.26,2.598-2.079,3.897-4.417,3.897h-.779c-.78-.259-1.56-.519-2.599-1.039-1.039.26-1.818,1.299-2.598,2.079-.52.78-1.299,1.299-1.819,1.819-.78.52-1.559.78-2.598.78h-.779c-2.339-.78-4.678-1.56-7.275-2.599-1.819-1.558-4.157-3.637-5.717-5.456-3.897-6.236-5.976-12.731-8.574-19.227-2.598-5.976-4.937-12.212-7.016-18.448-2.079-5.717-4.417-11.433-6.755-17.409-2.858-8.055-5.717-16.109-8.055-24.424-1.819-7.275-4.157-14.29-5.456-21.566-1.56-3.378-1.819-7.016-4.157-10.134-1.299,0-2.079.78-2.339,1.819s-.52,1.818-.52,2.858c-.52,3.378-1.039,6.236-1.559,10.393-.26,1.299,0,2.339-.26,3.638-.519,4.157-.779,6.495-1.299,10.653,0,1.299-.259,2.339-.259,3.638,0,3.377,0,5.456-.26,8.834-.26,4.417-1.039,7.016-1.559,11.433-.259,4.417-.259,7.016-.52,11.693,0,.779-.26,1.039-.52,1.818-.52,3.118-.52,4.678-1.039,7.796-.259,2.079-.52,3.377-1.039,5.456,0,.52-.52,1.039-.52,1.559-.779,7.535-1.039,11.952-2.079,19.487-.52,4.417-.26,7.275-2.339,10.914-.779.779-1.818,1.558-3.118,2.598-.779,1.56-1.558,3.118-2.338,4.417-2.079,1.818-4.157,3.118-6.495,3.378-2.339-.26-4.417-1.299-6.236-3.118-2.339-3.378-2.599-7.275-3.898-10.914-.52-1.299-.52-2.598-.52-4.157v-7.275c0-2.858,0-4.936.26-8.315.259-2.338.779-3.637,1.039-5.976.259-2.339.259-3.897.519-6.236.52-4.157.78-6.496,1.299-10.653.26-1.818.52-2.598.52-4.417.259-1.819.259-2.598.259-4.417.52-4.937.78-7.535,1.299-12.472,1.039-7.535,1.559-11.953,2.598-19.488.52-2.858.78-4.157,1.039-7.016.259-3.637.259-5.456.52-9.094.26-3.118.779-4.677,1.299-7.795.519-2.858,1.039-4.157,1.299-7.016.259-2.079.259-3.118.52-5.197.52-4.157.779-6.495,1.299-10.653.259-1.299.259-2.338.259-3.638.259-9.354.259-14.811.259-24.165,0-1.818-.519-3.377-.519-4.936,0-.779.259-1.559.519-2.339,1.56-3.377,4.417-5.197,6.756-6.495,1.039-.52,2.079-.52,3.377-.52,1.559,0,3.377.26,4.937.52,2.338.259,4.676,1.299,7.015,1.819.779,1.299,1.818,2.338,2.598,3.637.78,1.299,1.559,2.599,2.338,3.638.52.779,1.039,1.558,1.56,2.338,6.755,8.834,11.692,18.708,16.629,28.581,1.299,2.858,2.598,5.976,3.637,9.094,3.378,8.575,6.496,17.149,9.614,25.983,2.079,6.756,3.638,13.771,5.976,20.527.52,2.079,1.039,4.157,1.819,5.976.78,2.079,1.559,4.417,2.079,6.755.78,3.378,2.338,6.756,4.417,9.614,1.039,0,2.079-.26,2.339-1.299.26-1.558.26-2.858.52-4.417,0-1.819,0-3.638.78-5.456.259-1.299.519-2.599.519-4.157.26-2.599.26-3.898.26-6.496.26-4.417.26-7.015.779-11.433.52-4.157,1.56-6.496,2.079-10.653.52-2.338.52-3.637.52-5.976.259-3.638.259-5.457.519-9.094.52-4.678,1.039-7.535,1.56-12.212.259-2.079.519-3.377.779-5.456.26-2.339.52-3.638.779-5.976.52-3.118,1.039-4.937,1.56-8.055.259-1.039.259-1.558.259-2.598.78-5.457,1.559-9.354,1.819-14.291.259-2.338,1.818-4.417,1.818-6.756,0-2.079.26-4.157.26-6.236,1.299-2.339,2.079-4.417,3.377-6.496,2.858-4.936,7.535-7.275,13.252-7.535,2.338,0,4.676.52,6.755.52,3.898,2.079,5.457,5.197,7.016,8.834v9.613Z"/>
      <path d="M1576.021,107.45c0,.78,0,1.819-.259,2.599-2.339,3.637-1.819,7.535-2.858,12.212-.259,2.079-.259,3.118-.52,5.197-.26,2.339,0,3.897-.52,6.236-.52,4.157-1.039,6.236-2.079,10.393-.259,1.559-.78,2.079-1.039,3.638-.52,3.377-.78,5.197-1.299,8.574-.26,2.339-.26,3.898-.52,6.236-.519,4.678-.779,7.016-1.299,11.693-.259,2.339-.259,3.897-.52,6.236-.26,1.818-.52,2.598-.779,4.417-.52,3.377-.78,5.197-1.299,8.574-.52,3.898-.52,5.976-1.039,9.874-.26,2.079-.26,3.118-.52,5.197-.52,3.378-.78,5.457-1.299,8.834-.26,1.819-.26,2.598-.26,4.417,0,3.638,0,5.457-.26,9.094,0,2.079-.259,3.118-.779,5.197-1.559,6.495-2.858,10.913-4.157,16.37,0,4.417-2.339,8.315-2.339,12.472v.779c-.779,2.858-1.558,5.716-2.338,8.575-.52,2.079-.78,4.157-1.299,5.976-.26,2.598-2.079,3.897-4.417,3.897h-.779c-.78-.259-1.56-.519-2.599-1.039-1.039.26-1.818,1.299-2.598,2.079-.52.78-1.299,1.299-1.819,1.819-.78.52-1.559.78-2.598.78h-.779c-2.339-.78-4.678-1.56-7.275-2.599-1.819-1.558-4.157-3.637-5.717-5.456-3.897-6.236-5.976-12.731-8.574-19.227-2.598-5.976-4.937-12.212-7.016-18.448-2.079-5.717-4.417-11.433-6.755-17.409-2.858-8.055-5.717-16.109-8.055-24.424-1.819-7.275-4.157-14.29-5.456-21.566-1.56-3.378-1.819-7.016-4.157-10.134-1.299,0-2.079.78-2.339,1.819-.26,1.039-.52,1.818-.52,2.858-.52,3.378-1.039,6.236-1.559,10.393-.26,1.299,0,2.339-.26,3.638-.519,4.157-.779,6.495-1.299,10.653,0,1.299-.259,2.339-.259,3.638,0,3.377,0,5.456-.26,8.834-.26,4.417-1.039,7.016-1.559,11.433-.259,4.417-.259,7.016-.52,11.693,0,.779-.26,1.039-.52,1.818-.52,3.118-.52,4.678-1.039,7.796-.259,2.079-.52,3.377-1.039,5.456,0,.52-.52,1.039-.52,1.559-.779,7.535-1.039,11.952-2.079,19.487-.52,4.417-.26,7.275-2.339,10.914-.779.779-1.818,1.558-3.118,2.598-.779,1.56-1.558,3.118-2.338,4.417-2.079,1.818-4.157,3.118-6.495,3.378-2.339-.26-4.417-1.299-6.236-3.118-2.339-3.378-2.599-7.275-3.898-10.914-.52-1.299-.52-2.598-.52-4.157v-7.275c0-2.858,0-4.936.26-8.315.259-2.338.779-3.637,1.039-5.976.259-2.339.259-3.897.519-6.236.52-4.157.78-6.496,1.299-10.653.26-1.818.52-2.598.52-4.417.259-1.819.259-2.598.259-4.417.52-4.937.78-7.535,1.299-12.472,1.039-7.535,1.559-11.953,2.598-19.488.52-2.858.78-4.157,1.039-7.016.259-3.637.259-5.456.52-9.094.26-3.118.779-4.677,1.299-7.795.519-2.858,1.039-4.157,1.299-7.016.259-2.079.259-3.118.52-5.197.52-4.157.779-6.495,1.299-10.653.259-1.299.259-2.338.259-3.638.259-9.354.259-14.811.259-24.165,0-1.818-.519-3.377-.519-4.936,0-.779.259-1.559.519-2.339,1.56-3.377,4.417-5.197,6.756-6.495,1.039-.52,2.079-.52,3.377-.52,1.559,0,3.377.26,4.937.52,2.338.259,4.676,1.299,7.015,1.819.779,1.299,1.818,2.338,2.598,3.637.78,1.299,1.559,2.599,2.338,3.638.52.779,1.039,1.558,1.56,2.338,6.755,8.834,11.692,18.708,16.629,28.581,1.299,2.858,2.598,5.976,3.637,9.094,3.378,8.575,6.496,17.149,9.614,25.983,2.079,6.756,3.638,13.771,5.976,20.527.52,2.079,1.039,4.157,1.819,5.976.78,2.079,1.559,4.417,2.079,6.755.78,3.378,2.338,6.756,4.417,9.614,1.039,0,2.079-.26,2.339-1.299.26-1.558.26-2.858.52-4.417,0-1.819,0-3.638.78-5.456.259-1.299.519-2.599.519-4.157.26-2.599.26-3.898.26-6.496.26-4.417.26-7.015.779-11.433.52-4.157,1.56-6.496,2.079-10.653.52-2.338.52-3.637.52-5.976.259-3.638.259-5.457.519-9.094.52-4.678,1.039-7.535,1.56-12.212.259-2.079.519-3.377.779-5.456.26-2.339.52-3.638.779-5.976.52-3.118,1.039-4.937,1.56-8.055.259-1.039.259-1.558.259-2.598.78-5.457,1.559-9.354,1.819-14.291.259-2.338,1.818-4.417,1.818-6.756,0-2.079.26-4.157.26-6.236,1.299-2.339,2.079-4.417,3.377-6.496,2.858-4.936,7.535-7.275,13.252-7.535,2.338,0,4.676.52,6.755.52,3.898,2.079,5.457,5.197,7.016,8.834v9.613Z"/>
      <path d="M1700.738,124.859c0,1.819-1.559,3.118-2.858,4.677-2.338,2.598-3.637,4.157-7.015,4.936-1.039.26-1.818.26-2.598.26-2.858,0-5.197-1.039-8.574-1.299-1.299,0-2.079-.259-3.378-.259-3.897-.259-5.976,0-9.874-.259-2.079-.26-3.638-.26-5.456-.78-1.819-.52-3.898-.78-5.717-.78-1.558,0-3.377.26-4.936.26-1.039,0-2.079.779-2.858,1.818-1.56,2.599-2.339,5.457-2.599,8.575,0,3.118-1.299,6.236-1.299,9.614v2.858c0,3.118-.259,5.976-.259,8.834,0,6.236-.26,12.472-.26,18.708,0,1.819.26,3.638.26,5.456,1.039.52,1.818,1.039,2.598,1.039,1.299,0,2.339.26,3.638.26,2.338,0,4.676-.26,7.015-1.039,1.299-.52,2.858-.52,4.417-.779,1.039,0,2.338,0,3.377-.26,3.118-1.039,5.976-1.299,9.094-1.299h3.897c1.559,0,2.339.78,3.638,1.56,1.559.779,2.858.779,4.157,2.079,2.079,2.079,4.157,3.377,4.417,6.236v.779c0,2.598-1.299,4.417-3.377,6.236-3.118,2.858-6.495,3.118-9.613,4.677-.78.52-1.819,1.039-2.599,1.039-4.417,0-8.574,2.338-13.251,2.338h-.779c-2.599.52-5.197,1.039-7.796,1.299-2.598.52-4.936.52-6.755.52-1.56.78-2.079,2.079-2.079,3.118v8.055c0,2.858,1.558,5.197,1.558,8.054.26,4.157,2.079,7.275,3.898,11.693.52,1.039,1.039,1.818,2.079,2.338,2.858,1.299,4.417,2.338,7.535,2.598,1.039.26,2.079.26,3.118.26,2.858,0,5.197-.52,8.315-.52h.78c3.377,0,4.937.26,8.315.52,2.598.519,3.638.259,5.976,1.299,1.818,1.039,3.118,1.039,4.936,2.079,2.339,1.559,4.157,2.338,5.197,4.677.26.52.26.779.26,1.039,0,1.299-.78,2.339-1.039,3.638-.26,1.559.259,2.858-1.039,3.898-2.079,1.818-4.157,1.818-6.756,2.858-2.338,1.039-3.637,2.598-6.236,2.858-5.197.52-9.354.78-13.771.78-2.858,0-5.716,0-8.834-.259-3.897-.26-7.015-.78-11.433-2.079-3.638-1.039-6.236-2.079-9.094-3.638-4.417-2.338-8.055-5.197-10.393-9.613-.52-1.039-1.56-1.819-2.079-2.858-.78-1.818-1.56-3.897-2.079-5.716-1.039-3.638-2.079-6.236-2.858-10.393-.78-3.638-1.039-5.976-1.559-9.614v-1.818c-.52-6.236-1.039-9.874-1.299-16.11-.259-4.676-.259-8.315-.259-12.212v-2.079c0-3.378,0-6.496,1.299-9.614.52-1.299.26-3.118.52-4.417,0-3.377,0-6.756.259-9.874v-3.638c1.819-5.716,1.299-11.433,1.559-16.889v-4.417c.26-1.559.52-3.118.779-4.417.52-1.299.52-2.338.78-3.637v-4.157c-2.858-1.039-4.417-1.56-7.275-2.599-2.858-1.039-4.677-.779-7.016-2.598-2.598-2.079-4.676-3.638-4.676-6.756v-.259c0-2.598,2.858-3.118,4.936-4.937,2.079-1.818,2.858-3.377,5.457-4.417,2.338-1.039,4.417-1.039,6.495-1.039h1.559c2.858,0,4.936-1.039,8.054-1.559,3.118-.52,4.678-1.559,7.796-1.559h.259c2.079,0,3.377,1.039,5.716,1.299,2.079.26,3.378.26,5.457.26h10.653c1.299,0,2.338,0,3.638.26,3.118.519,4.936,1.039,8.054,1.299,3.118.259,4.937,0,8.055.52,2.338.26,3.638,1.039,5.976,1.299h2.858c.779,0,1.559.259,2.339.519,2.598,1.039,3.637,2.599,5.716,4.417,2.079,1.818,3.118,3.638,4.678,5.457.259.519.259.779.259,1.299Z"/>
      <path d="M1810.122,262.309c0,1.56-.78,2.339-2.339,4.678-.779,1.299-4.936,2.858-6.496,2.858-7.015.52-11.951,1.039-17.668,1.039-3.118,0-6.495-.26-10.653-.779-6.236-.78-9.613-2.858-15.07-6.236-2.598-1.56-3.118-3.638-4.936-5.976-3.378-4.417-5.976-7.535-8.315-11.692-2.079-3.898-4.157-7.796-5.976-11.953-2.079-3.897-3.638-8.315-4.417-12.472-.52-2.338-1.299-4.676-1.56-7.015-.259-2.339-.519-4.677-1.558-7.015-.26-.52,0-1.299-.26-1.819,0-3.638-.26-6.756-.26-10.393v-2.858c.26-3.897.78-5.976,1.299-9.873.26-2.339.779-3.898.779-6.236.78-14.032,7.275-26.503,18.968-38.455,6.756-7.016,8.834-9.354,15.85-13.771,7.275-4.936,14.55-6.236,20.266-9.354.52-.52.78-.52,1.56-.52.519,0,.779,0,1.299.52,3.118,2.079,5.456,2.598,7.795,5.716,1.299,1.299.52,2.858,1.039,4.937.26,1.299.779,1.818,1.299,3.377,0,.259.259.52.259.78v.259c-.259.52-.259.78-.52,1.559-.779,1.559-.779,2.598-2.079,4.157-10.913,11.952-22.605,8.834-30.4,24.683-3.897,7.016-7.275,21.047-8.315,32.479v3.118c0,3.378.52,6.236.78,10.393.259,1.299.259,2.079.52,3.378,1.039,4.676,1.039,7.535,2.339,12.212,1.299,4.417,2.858,6.496,4.417,10.653.52,1.039.52,1.818,1.039,2.598,2.598,3.898,3.898,6.496,7.275,9.614,1.559,1.299,2.858,1.559,4.937,1.818,4.676.52,6.236,1.299,10.653,2.339,4.157,1.039,7.016.52,10.913,2.598,3.118,1.559,4.157,3.898,6.236,5.976.779,2.079,1.299,3.637,1.299,4.676Z"/>
      <path d="M1951.726,102.254c0,1.299,0,3.378-.259,6.756-1.039,1.039-2.339,2.338-3.378,3.377-.779.52-1.299.78-1.818.78-2.339.519-4.678,0-7.016,1.039-2.079,1.039-4.677,1.299-7.016,1.818-1.299.52-2.858.779-4.157.779-3.377.52-5.976,1.039-9.873,1.56-3.898.519-6.496.519-9.874.779-.779.52-1.818,1.299-2.598,1.818-.52,1.299-.78,2.858-.78,4.157,0,1.56.259,2.858.259,4.157-.259,3.638,0,7.275-1.299,10.653-.259.779-.52,1.559-.52,2.339s.26,1.558.26,2.598v.52c-.26,9.613-.26,15.33-.52,24.944-.259,4.157-.519,6.495-.779,10.653-.26,1.819-.52,2.858-.52,4.677-.52,10.133-.259,15.85-.52,25.983-.26,5.197-.779,8.054-1.039,13.251-.26,2.339-.26,3.898-.26,6.236-.259,12.212-.259,19.228-.519,31.44-.26,2.339-.52,3.897-.78,6.236-.259,2.339-.52,3.897-.52,6.236,0,.26-.26.779-.26,1.039,0,1.818.26,3.118.26,4.677,0,1.039,0,2.338-.52,3.638-1.299,2.858-5.976,4.157-10.653,4.157-5.197,0-10.393-1.299-12.212-2.858-1.299-1.039-2.338-1.039-3.118-2.079-2.598-3.378-3.898-5.197-4.937-9.354-.259-.26-.259-.52-.259-.78,0-1.819.52-2.858.78-4.677,1.299-15.33,2.338-29.88,2.338-43.912,0-5.976.52-14.29.52-20.526,0-15.33,1.299-24.424,1.559-40.794,0-1.818.259-2.598.259-4.417.52-4.157.52-9.354.78-13.511v-19.747c-.259-.52-.52-1.039-1.039-1.559-.78-.779-1.559-1.559-2.338-1.559-.26,0-.52.259-.78.259-1.819.78-3.898,1.039-5.976,1.039-3.637.26-7.275.26-10.653,1.299-1.819.52-3.638.779-5.456.779-1.56,0-3.118-.259-4.417-.259-.52-.259-1.039-.52-1.559-1.039-1.559-2.079-3.118-4.157-5.456-5.716-1.039-.52-1.819-1.559-2.599-2.339-.519-.779-.779-1.558-1.039-2.598,0-.26-.259-.52-.259-.78,0-3.118,1.559-5.976,4.157-7.795,1.559-1.299,3.118-1.818,5.456-2.598,4.157-1.299,6.756-1.559,11.433-2.338,5.457-.78,8.575-1.039,14.032-1.56,1.039,0,1.558,0,2.858-.259,4.677-.52,7.275-1.039,12.212-1.559.52,0,1.039-.26,1.819-.26,4.937-.519,8.055-.779,13.252-1.558,3.377-.52,5.197-1.039,8.834-1.56,3.378-.519,5.457,0,9.094-.519,3.638-.52,5.716-1.039,9.613-1.56.52,0,1.039-.259,1.819-.259,4.417-.52,8.055-1.299,11.692-1.299h2.339c2.598,1.299,3.897,3.637,5.716,6.236,1.819,1.039,3.638,2.079,5.716,3.118.26.779.52,1.299.52,2.598Z"/>
    </g>
    <g>
      <path d="M923.081,386.542c0,1.465,0,2.931-.366,4.763,0,4.396-.733,6.96-1.1,11.356-.732,27.11,0,42.495-1.099,69.605,0,4.762-1.465,7.327-1.832,12.089v.733c0,4.396,1.1,6.96,1.1,11.723,0,3.298-.733,5.495-1.1,8.792v11.356c0,2.199,0,4.763-.366,7.694,0,4.396-.733,6.594-1.465,10.99,0,1.831-.366,3.297-.733,5.129-.733,7.694-1.099,12.09-2.564,19.782-.734,5.861-.734,9.525-3.298,15.019-.733,2.199-2.564,2.565-5.129,2.931-1.831,0-2.565-1.465-4.03-1.465h-.732c-2.565.734-2.931,2.931-5.861,2.931h-.367c-3.663,0-4.396-1.465-8.059-2.564-1.1-.367-2.198-.367-3.297-.367h-2.565c-1.1,0-1.831,0-3.297-.366-1.1-.366-1.465-1.1-2.199-1.831-2.564-3.664-5.128-5.496-6.227-9.892v-3.297c0-3.664,1.1-6.595,1.465-10.991.366-2.564.733-3.662.733-6.227.367-1.831.367-3.297.367-5.129,1.099-7.694,1.465-12.09,2.197-19.782.734-4.762,1.465-7.693,1.832-12.456.367-2.564.367-4.029.367-6.594.366-8.426,0-12.822.366-21.248.366-4.763,1.1-7.694,1.465-12.456.366-1.465.366-2.198.366-3.663.734-20.882.734-35.535,1.1-53.12,0-1.831-.366-3.297-1.831-4.762-.734.366-1.465.366-2.565.733-5.861,11.356-14.288,21.614-20.881,32.971-5.13,8.059-9.892,14.288-15.753,24.178-1.465,2.931-1.1,5.495-3.297,8.425-1.465,2.199-2.931,3.298-5.496,4.396-4.396,1.832-7.327,1.832-12.089,2.565-.367,0-1.1.366-1.832.366-.367,0-.733,0-1.099-.366-2.565-1.465-3.298-3.297-5.861-4.762-2.199-1.465-4.396-.734-6.228-2.931-4.763-6.228-6.228-10.991-10.257-17.951-1.099-2.564-1.465-4.029-3.298-6.594-.732-1.1-.732-2.931-2.197-2.931h-.367c-1.832.366-2.564,2.198-2.931,4.03-.367,2.197-.367,4.029-.367,6.227,0,9.525-.366,17.95-.366,27.842v12.822c.366,4.396,1.1,6.593,1.465,10.989.366,1.1.366,1.465.366,2.565.367,7.693,1.465,13.188,1.465,19.05,0,2.931-.366,6.227-1.099,9.525-.733,4.029-3.663,6.228-8.059,7.327-1.831.733-4.03.733-5.496.733-6.227,0-10.623-3.297-19.781-5.861-1.1-.366-1.832-.733-2.931-1.831-2.199-2.199-4.396-3.664-5.861-6.595-.367-1.099-.367-1.831-.367-2.564v-4.029c-.367-9.159,0-14.654-.733-23.813,0-4.029-.733-5.861-1.1-9.891v-7.694c.367-3.298,1.1-5.495,1.1-8.792.733-18.683.366-29.307.733-47.99.367-5.861,1.099-9.159,1.465-15.02.367-4.029.733-5.861.733-9.891.733-10.257.366-16.486.733-26.743.367-5.129.733-8.425,1.099-13.555.367-2.931.734-4.762.734-7.693.366-1.831.366-3.663.366-5.129,0-5.129-.366-9.525-.366-14.287,0-3.298,0-6.961.366-11.357.366-2.565,1.465-4.03,2.931-6.227,2.565-2.931,3.663-4.763,6.961-6.228,1.465-.733,2.564-.733,3.662-.733s2.199,0,3.298.366c4.396.734,7.694.734,10.624,4.03,5.861,6.594,6.227,12.089,10.623,19.782,3.297,5.129,5.861,7.694,8.426,12.821,2.564,4.763,3.662,7.694,5.495,12.457,3.298,7.693,5.129,12.089,7.694,20.148,2.931,8.059,4.029,12.456,6.227,20.515,1.1,2.564,1.465,4.396,2.198,6.96,1.465,3.664,2.198,6.595,3.298,9.526.732.732,2.197,1.465,2.931,1.831,2.197-1.1,3.662-2.565,4.762-4.396,6.961-10.99,14.654-21.614,19.782-33.703,3.663-7.693,7.694-15.019,11.356-22.346,4.396-8.792,9.892-16.853,15.387-24.545,2.564-4.03,5.495-7.693,8.425-11.357,3.663-2.564,7.327-4.396,10.99-4.396,2.565,0,5.129.734,7.693,2.199,2.565,1.465,5.496,1.465,8.426,1.831,2.565,1.831,4.03,4.03,5.129,6.961,3.663,8.425,5.861,13.188,7.694,22.346.732,2.931,1.099,5.861,1.099,8.059,0,2.564-.367,5.129-.367,7.694v3.662c.367,4.763,1.1,7.694,1.1,12.457.366,1.831.366,3.297.366,5.128Z"/>
      <path d="M1108.077,554.692c-.367,4.396-2.199,6.961-6.595,10.257-1.831,1.831-4.029,2.198-6.227,2.198h-1.831c-2.199,0-2.931-.367-4.396-.367-.367,0-2.199.367-2.565,0-1.831-.366-1.465-1.465-3.297-1.831-1.832-.366-2.565-1.831-3.664-3.297-4.029-5.861-5.495-8.06-7.693-14.288-1.831-3.663-1.1-6.594-2.198-10.623-.367-2.931-.733-4.396-1.465-7.327-1.099-5.13-1.832-8.426-2.931-13.555-1.099-6.96-2.564-12.09-3.298-18.317-.366-2.931-1.099-5.861-1.831-8.426-9.892,1.832-39.93,1.832-41.396,7.327-1.1,4.03-1.465,8.06-2.199,13.188-.366,3.298,0,5.496-.366,8.792-.366,6.228-1.1,9.892-2.198,16.119,0,1.1-.367,1.465-.367,2.565v5.496c0,2.197.367,3.662,0,5.861,0,3.297,0,5.128-.732,8.058-2.199,10.624-8.06,16.486-15.02,16.486-1.099,0-2.198,0-3.298-.367-6.227-1.465-9.891-1.831-15.385-6.96-2.565-2.198-3.664-6.96-4.396-10.257v-2.564c.366-2.565.732-3.664.732-6.228,1.1-6.228,1.465-9.891,2.199-16.119.732-4.029.732-5.861,1.099-9.891.733-5.861,1.099-9.159,1.465-15.02.733-7.327,0-11.723.733-19.05.733-5.495,1.831-8.425,2.565-13.921.366-2.565.366-3.663.366-6.227v-5.861c.366-2.565.366-3.664.366-6.228.734-6.228,1.465-9.891,1.832-16.119.367-1.465.367-2.564.367-4.029,1.099-6.228,1.465-9.892,2.197-16.119.367-1.465.367-2.199.367-3.664.733-9.158.733-14.287,1.832-23.079,1.831-10.99,4.762-26.376,5.861-39.198.366-1.832.366-2.931.366-4.763.733-5.129-.366-8.425,2.198-12.821,4.396-6.595,7.327-11.357,14.654-13.922,5.129-1.831,6.96-2.931,9.159-2.931,1.831,0,4.029,1.1,8.058,2.565,9.526,3.663,12.457,9.892,19.05,17.584,2.199,2.198,1.832,5.129,2.931,7.327,6.595,12.822,9.892,24.178,15.387,39.93,2.931,7.327,4.396,11.357,6.227,19.05,2.198,6.961,2.931,11.357,4.396,18.318,1.465,4.762,2.198,7.327,3.297,12.089,2.931,10.257,4.763,17.95,6.961,26.742,2.565,9.159,4.396,17.951,6.961,27.11,1.099,4.762,1.831,8.792,2.931,14.654,1.831,7.693,2.931,11.723,4.396,19.415.732,1.831.366,3.297.732,5.129,1.1,4.396,2.199,6.594,2.565,10.99.366,2.198.366,4.03.733,5.496v5.861c.367,1.831.367,3.662.367,4.762ZM1046.898,440.394c-2.198-6.227-4.762-20.149-7.693-30.04-3.298-10.257-5.496-21.614-8.06-21.614-1.465,0-2.197,5.861-2.564,7.327-1.099,10.257-5.495,43.227-5.495,53.851,0,1.832.366,3.298.366,4.763.733.732,1.465,1.831,2.198,1.831,3.663.733,18.683,1.465,27.109,2.931-1.831-6.594-3.663-12.822-5.861-19.05Z"/>
      <path d="M1299.3,383.978c0,5.495-.733,10.257-2.931,16.119-4.396,12.09-7.694,18.317-13.555,29.674-3.662,6.96-6.593,11.723-10.257,17.217-3.297,4.763-5.495,9.525-7.693,14.654-6.227,15.752-13.554,31.505-21.248,46.891-3.298,6.594-5.861,13.188-10.257,18.683-5.861,11.357-11.356,20.149-19.416,32.605-1.831,2.931-2.564,5.861-5.861,7.327-1.465.733-2.931,1.099-4.396,1.099s-3.297-.366-5.128-.366h-2.931c-2.565-1.465-3.664-3.297-6.228-4.396-4.396-1.831-7.694-1.465-12.09-3.663-1.099-.733-2.564-2.198-4.029-3.298-4.763-2.564-9.525-2.931-13.921-6.96-3.663-3.663-4.762-6.594-5.861-11.723-.366-1.832-.733-3.663-.733-5.129,0-3.297.733-5.861.733-9.892,0-5.861,0-9.158.366-15.019.367-4.03.734-5.861,1.1-9.892v-.732c0-1.465-.366-2.565-.366-4.396v-32.238c0-1.832.366-2.565.366-4.396v-.367c-.366-4.029-1.1-6.228-1.1-10.257v-26.01c.367-10.624.734-16.853,1.1-27.476.366-4.396.366-6.961.733-11.357.733-6.96,1.099-10.623,1.832-17.584.366-1.831.732-2.931.732-5.128v-11.357c.734-5.861,1.832-10.623,2.931-15.019,4.03-2.931,7.327-4.03,11.357-4.396,3.297,0,6.594,0,9.892-1.465,1.465-.734,3.297-.367,4.762-.734,6.227-.366,11.723-1.831,19.05-1.831h1.465c5.861,0,9.525.733,15.753,1.1,1.099,0,1.465.366,2.564.366,3.298.366,5.495.366,8.792,1.1,4.763,1.099,6.96,2.931,11.723,3.662,1.465.367,2.564.367,3.663.367h3.663c1.465,0,2.931,0,4.396.367,8.792,2.197,15.386,3.662,21.98,8.058,5.129,3.298,9.159,7.694,11.723,13.188,1.465,4.03,3.298,8.426,4.763,12.822,1.099,2.931,1.831,5.496,2.564,8.426v11.356ZM1260.834,366.76c0-.367,0-.734-.366-1.1-.733-1.465-1.831-2.931-3.663-2.931-4.396,0-8.425-1.1-12.09-2.931-4.762-1.831-10.257-1.831-14.654-3.663-1.465-.733-3.297-.733-5.128-.733-3.664-.366-7.694-.366-11.357-.366-6.227,0-12.456.366-17.95.732-2.565,1.1-3.664,2.199-4.03,4.03-.366,1.1-.366,2.198-.366,3.663-.367,19.05-.367,34.802-.734,56.782,0,4.396-.366,6.961-.732,11.357v3.663c.366,2.931.732,4.396,1.099,7.327v5.129c.367,4.396.367,8.792.367,12.822,0,7.693,0,14.654,1.831,22.346.366,2.198.366,4.396.366,6.594v8.792c0,1.099.734,2.198,1.1,3.298,1.1,0,1.831,0,2.565.366,2.197-1.465,3.297-4.03,4.396-6.227,8.058-15.753,16.119-31.506,24.177-47.258,4.396-9.525,9.526-18.683,14.654-27.842,2.199-4.029,4.763-8.059,6.228-12.456,1.099-3.663,2.564-6.961,4.396-10.257,3.298-5.496,5.861-11.357,6.594-17.584,0-1.1.366-1.831.733-2.565,1.832-2.931,1.099-6.593,2.198-9.524.366-.734.366-1.1.366-1.465Z"/>
      <path d="M1382.819,420.979c1.1,2.564,1.831,5.495,1.831,8.425s-.732,5.861-1.465,8.792c-1.465,4.396-1.099,8.425-1.831,13.555-.366,3.297-.366,5.495-1.1,8.792-.366,2.931-.732,4.396-1.099,7.327-.367,4.029-.733,5.861-1.465,9.891,0,.733-.367.733-.367,1.465-.366,5.861-.732,9.159-1.465,15.02-.366,5.861-1.465,9.158-1.831,15.019v55.318c0,1.465.366,2.564.366,4.029,0,.367,0,1.099-.366,1.832-1.1,4.029-1.465,7.327-5.129,9.524-1.465,1.1-3.298,1.465-4.763,1.465-2.197,0-4.029-.732-6.593-1.465-2.931-1.099-2.931-4.029-5.861-5.861-.734-.366-1.1-.366-1.832-.366h-1.465c-.733,0-1.099,0-1.832-.366-2.564-1.1-4.396-1.465-6.593-3.298-1.465-1.465-2.199-2.931-2.565-5.129-1.1-5.496-.733-8.792-1.1-14.288v-14.287c0-8.059,0-15.02.367-24.911.367-5.495,1.099-8.425,1.465-13.555.367-2.564.733-3.662.733-6.227,1.1-7.693,1.465-12.456,2.198-20.149.367-2.564.367-3.662.367-6.227.732-4.03,1.099-5.861,1.465-9.892.366-1.831.366-2.931.732-4.762.734-4.03.734-6.961,1.832-9.892.733-1.099.733-2.564.733-4.029,1.465-11.723,4.03-23.446,7.327-35.535,1.831-6.227,4.762-9.891,8.059-16.119.367-.732.733-1.099,1.465-1.099h1.099c2.199,0,4.396-.367,6.595-.367,2.564,0,4.762.367,7.327,1.832,3.297,1.465,2.931,4.763,3.662,8.059.367,1.465.734,2.931.734,4.03,0,1.465-.367,2.931-.367,4.396,0,4.029-.367,7.693-.367,11.356,0,2.564,0,5.129,1.1,7.694ZM1398.205,338.552c0,.733,0,1.832-.367,2.564-2.197,5.496-8.058,5.861-14.287,7.327-1.099,0-1.832.367-2.931.367-2.564,0-4.763-.733-7.327-2.198-4.396-1.465-7.327-2.931-10.257-6.594-.733-1.099-.733-2.198-.733-2.931,0-1.465.366-2.931,1.465-4.029,3.663-5.13,7.327-8.426,12.089-10.624,1.1-1.099,2.931-1.465,4.396-1.465.734,0,1.832,0,2.199.367,4.029,2.197,6.96,2.564,10.257,6.593,2.197,2.931,5.495,6.961,5.495,10.624Z"/>
      <path d="M1552.43,433.067v.733c0,2.564-1.1,4.029-1.465,6.594v1.465c-1.465,6.594-2.199,11.357-4.03,16.852-1.831,5.495-3.663,10.99-5.129,16.852-1.465,5.496-3.663,9.892-5.861,16.119-1.099,3.663-2.198,5.496-2.931,9.158-2.198,7.327-2.931,11.357-4.763,19.05-1.465,6.228-2.197,9.526-3.662,15.753,0,1.1-.367,1.465-.734,2.565-4.029,8.792-5.128,15.752-10.257,22.712-.732,1.1-1.099,2.199-2.197,3.298,0,.367-.367.367-1.1.367h-.366c-5.13-.734-9.892-2.199-13.555-2.199-2.931,0-5.129-1.099-7.327-1.831-3.663-1.465-7.327-3.297-8.792-7.693-.367-1.832-.733-3.298-.733-4.396,0-3.664,1.465-6.595,1.831-10.991,1.1-5.861,2.565-9.158,4.03-15.385.366-1.465.366-2.565.733-4.03,4.396-13.188,6.96-20.515,11.723-33.703,1.832-5.496,3.663-9.525,5.129-13.921,1.465-4.763,1.1-4.396,2.565-8.792.366-1.099.732-1.832.732-2.564,0-1.1-.366-2.199-.366-2.931-.366-1.1-1.1-2.565-1.831-3.664-5.13-.732-9.526-.366-14.654-.732h-4.03c-2.931,0-5.496,0-8.059-1.1-.733-.366-1.465-.733-2.564-.733-2.931-.367-5.861-.367-9.159-.733-1.099,0-1.832-.733-2.564-.733-6.961-2.564-13.922-7.694-20.149-11.356-4.396-2.199-6.227-4.763-8.792-8.792-2.198-3.664-2.931-6.228-3.297-10.257v-.734c0-3.297,1.465-5.861,1.465-8.792.366-3.297.366-6.227,1.465-9.524.732-4.396,1.831-9.159,3.297-13.922,2.198-6.593,5.129-13.188,7.693-20.148.734-1.832,1.832-4.029,2.931-5.861,2.931-4.396,6.228-8.792,9.159-13.188,5.861-9.159,17.951-12.456,27.842-19.05,1.099-.733,2.564-1.099,3.663-1.099s1.831.366,2.931.366c2.565.733,4.03,2.198,5.861,4.03,1.1,1.099,1.465,1.831,1.465,3.662v1.465c0,2.199-.366,3.664-.733,6.228-.733,3.298-1.099,5.129-2.564,8.059-3.298,5.496-6.228,8.059-9.159,12.822-2.564,5.128-5.861,9.891-6.96,15.385-1.1,4.763-2.931,8.792-4.396,12.822-1.1,3.663-2.199,6.961-2.931,10.257-.734,2.565-2.199,4.762-2.199,7.327,0,.733,0,1.465.367,2.198.733,2.564,3.663,2.931,6.228,4.029,1.099.367,2.564.367,4.029.367,5.861,0,10.257-1.832,16.852-3.298,5.861-1.831,12.089-2.564,17.95-2.564,6.595,0,13.555,1.099,20.515,4.029,5.496,2.199,10.624,5.496,13.555,10.624,2.198,3.298,2.931,5.495,3.298,9.525Z"/>
      <path d="M1711.049,423.176v2.199c0,1.831,0,3.662-.367,5.861,0,.732-.366,1.465-.366,2.197,0,1.465.366,2.931.366,4.396v.734c-.366,6.96-.366,10.989-.732,17.95-.734,11.723-1.465,18.317-2.199,30.04,0,1.465-.366,2.198-.366,3.663-1.1,5.861-1.465,9.158-2.565,15.019-1.465,8.06-1.831,13.188-4.396,20.882-2.197,5.861-3.662,10.257-7.693,14.287-2.198,1.832-4.03,4.03-5.496,6.595-.732,1.099-1.465,2.197-2.564,2.931-2.564,1.465-4.396,3.662-6.228,6.227-1.831,2.565-4.396,4.03-7.693,6.227-5.861,4.03-6.227,5.13-12.822,7.694-1.465.733-4.762,1.099-8.425,1.099h-2.931c-5.129-.366-8.059-.366-13.188-2.197-7.327-2.565-13.921-2.931-18.317-8.792-.733-.734-5.496-4.763-5.496-5.496-.732-4.762-2.197-8.426-3.297-13.554-1.1-4.763-1.465-7.327-2.565-12.09-1.099-4.763-1.099-7.694-2.197-12.456-.734-4.03-1.465-5.861-2.199-9.892-.732-4.029-.366-6.227-.732-10.257-.734-13.92-1.465-22.346-1.465-35.534v-3.297c0-12.457,1.099-19.416,2.197-31.506.367-2.564.734-3.662,1.1-6.227.366-1.831.366-2.931.733-4.762,1.832-8.792,2.931-13.555,4.763-22.347,1.099-4.396,1.831-6.594,2.931-10.99,1.099-3.663,1.465-6.227,2.564-9.525,4.763-14.654,12.09-26.376,18.683-35.535,1.1-1.099,2.199-2.564,3.298-3.662,1.099-1.465,1.832-2.931,2.931-4.03,11.723-8.792,9.525-9.525,17.217-10.257h1.1c6.227,0,18.684,4.03,21.98,7.693,1.831,2.199,3.663,4.763,6.227,6.228,2.199,1.099,4.763,1.465,6.961,2.564,2.198,1.465,4.396,2.931,5.129,5.496,1.099,5.496,4.029,10.257,6.228,15.019,1.831,4.03,3.662,7.694,5.128,11.723.734,2.565,1.465,4.763,1.465,7.327.734,6.595,2.199,12.09,2.931,20.149v18.684c.367,4.029.367,5.495.367,9.524ZM1666.356,365.661c-2.565-4.03-4.762-5.496-9.158-5.496h-.367c-1.465,0-5.861,4.396-6.228,5.861-2.197,7.327-5.128,15.02-5.861,18.684-2.564,9.892-3.662,15.753-5.861,25.644-1.465,5.861-.366,11.356-1.465,16.852-.732,6.594-.366,8.059-.732,14.288v8.792c-.367,4.396-1.465,6.96-1.465,11.356v5.129c0,7.693.366,13.554.732,22.346,0,2.199.367,3.298.734,5.13,1.099,8.792,1.099,14.287,2.931,24.911.366,2.564,1.099,9.524,9.158,9.524h.733c2.931,0,9.159-4.396,10.257-7.693,1.465-5.129,2.931-10.257,3.663-13.554.733-4.763,1.465-8.426,2.565-13.555,1.465-8.425,1.831-12.821,3.297-21.248,0-1.1,0-1.465.366-2.565.734-5.128,1.465-8.058,1.832-13.554.367-6.961.367-10.623.733-17.584,0-1.831,0-3.297.366-5.129.367-4.763.734-7.694,1.1-12.456.366-8.059,1.1-14.654,1.1-21.98,0-2.931,0-6.227-.367-9.525-.733-5.861-2.931-16.119-8.059-24.178Z"/>
      <path d="M1951.726,329.393c0,1.1,0,2.565-.367,3.664-3.297,5.128-2.564,10.623-4.029,17.217-.367,2.931-.367,4.396-.733,7.327-.366,3.298,0,5.495-.733,8.792-.733,5.861-1.465,8.792-2.931,14.654-.367,2.198-1.099,2.931-1.465,5.129-.733,4.762-1.099,7.327-1.832,12.089-.366,3.298-.366,5.496-.732,8.792-.734,6.595-1.1,9.892-1.832,16.486-.367,3.298-.367,5.495-.733,8.792-.366,2.564-.733,3.663-1.1,6.228-.732,4.762-1.099,7.327-1.831,12.089-.733,5.496-.733,8.426-1.465,13.921-.366,2.931-.366,4.396-.733,7.327-.733,4.763-1.099,7.694-1.832,12.456-.366,2.565-.366,3.663-.366,6.227,0,5.13,0,7.694-.366,12.822,0,2.931-.367,4.396-1.1,7.327-2.198,9.158-4.03,15.386-5.861,23.08,0,6.227-3.297,11.723-3.297,17.584v1.099c-1.1,4.029-2.199,8.059-3.298,12.09-.733,2.931-1.099,5.861-1.832,8.425-.366,3.663-2.931,5.495-6.227,5.495h-1.1c-1.099-.366-2.197-.732-3.662-1.465-1.465.367-2.565,1.832-3.664,2.931-.732,1.1-1.831,1.832-2.564,2.565-1.099.733-2.198,1.1-3.663,1.1h-1.1c-3.297-1.1-6.593-2.199-10.257-3.664-2.564-2.197-5.861-5.128-8.058-7.693-5.496-8.792-8.426-17.95-12.09-27.109-3.663-8.425-6.96-17.217-9.891-26.01-2.931-8.06-6.228-16.119-9.526-24.545-4.029-11.357-8.058-22.713-11.356-34.436-2.564-10.257-5.861-20.148-7.694-30.406-2.197-4.763-2.564-9.892-5.861-14.288-1.831,0-2.931,1.1-3.297,2.565-.366,1.465-.733,2.564-.733,4.029-.733,4.763-1.465,8.792-2.198,14.654-.366,1.832,0,3.298-.366,5.129-.734,5.861-1.1,9.158-1.832,15.019,0,1.832-.367,3.298-.367,5.13,0,4.762,0,7.693-.366,12.455-.366,6.228-1.465,9.892-2.198,16.119-.367,6.228-.367,9.892-.733,16.486,0,1.099-.366,1.465-.733,2.564-.733,4.396-.733,6.595-1.465,10.991-.367,2.931-.733,4.762-1.465,7.693,0,.733-.733,1.465-.733,2.198-1.1,10.624-1.465,16.852-2.931,27.475-.733,6.228-.366,10.257-3.297,15.387-1.1,1.099-2.565,2.197-4.396,3.662-1.1,2.199-2.199,4.396-3.298,6.228-2.931,2.564-5.861,4.396-9.159,4.763-3.297-.367-6.227-1.832-8.792-4.396-3.297-4.763-3.662-10.257-5.495-15.387-.733-1.831-.733-3.662-.733-5.861v-10.257c0-4.029,0-6.96.366-11.723.367-3.297,1.1-5.128,1.465-8.425.367-3.298.367-5.495.734-8.792.732-5.861,1.099-9.159,1.831-15.02.366-2.564.733-3.662.733-6.227.367-2.565.367-3.663.367-6.227.732-6.961,1.099-10.624,1.831-17.584,1.465-10.624,2.198-16.853,3.663-27.476.733-4.03,1.099-5.861,1.465-9.892.367-5.128.367-7.693.733-12.821.366-4.396,1.1-6.594,1.831-10.99.734-4.03,1.465-5.861,1.832-9.892.367-2.931.367-4.396.733-7.327.733-5.861,1.1-9.158,1.831-15.019.367-1.831.367-3.297.367-5.129.367-13.188.367-20.882.367-34.07,0-2.564-.734-4.762-.734-6.96,0-1.099.367-2.198.734-3.298,2.197-4.762,6.227-7.327,9.524-9.158,1.465-.733,2.931-.733,4.763-.733,2.198,0,4.763.367,6.96.733,3.298.366,6.595,1.831,9.892,2.565,1.1,1.831,2.565,3.297,3.663,5.128,1.099,1.832,2.198,3.664,3.298,5.13.732,1.099,1.465,2.197,2.197,3.297,9.526,12.456,16.486,26.376,23.446,40.297,1.832,4.029,3.664,8.425,5.13,12.821,4.762,12.09,9.158,24.179,13.554,36.634,2.931,9.526,5.129,19.416,8.426,28.941.732,2.931,1.465,5.861,2.564,8.426,1.099,2.931,2.198,6.227,2.931,9.524,1.099,4.763,3.298,9.526,6.228,13.555,1.465,0,2.931-.367,3.297-1.832.366-2.197.366-4.029.733-6.227,0-2.565,0-5.129,1.099-7.693.367-1.832.734-3.664.734-5.861.366-3.664.366-5.496.366-9.159.366-6.228.366-9.891,1.1-16.119.732-5.861,2.197-9.159,2.931-15.02.732-3.297.732-5.128.732-8.425.367-5.129.367-7.694.734-12.821.732-6.595,1.465-10.624,2.197-17.218.367-2.931.734-4.762,1.1-7.693.366-3.298.733-5.13,1.1-8.426.732-4.396,1.465-6.961,2.197-11.357.367-1.465.367-2.197.367-3.662,1.099-7.694,2.198-13.188,2.564-20.149.367-3.297,2.565-6.227,2.565-9.525,0-2.931.366-5.861.366-8.792,1.832-3.298,2.931-6.228,4.763-9.159,4.029-6.96,10.624-10.257,18.683-10.623,3.298,0,6.595.733,9.526.733,5.495,2.931,7.693,7.327,9.891,12.456v13.554Z"/>
    </g>
  </g>
  <g>
    <path d="M463.687,156.08c19.833-3.505,38.19-11.096,53.169-23.506,7.526-6.235,6.289-17.053-.369-22.663-7.387-6.223-17.285-5.286-24.681.966-8,6.764-17.793,10.633-28.059,13.124-31.205,7.573-67.062.947-91.004-19.774-10.189-8.818-17.964-19.849-20.814-32.631-1.508-6.764-5.153-12.087-11.864-14.098-6.535-1.958-13.668-.715-18.425,4.22-4.313,4.475-5.05,10.264-3.532,16.106,15.267,58.728,84.011,89.135,145.578,78.254Z"/>
    <path d="M466.383,86.806c6.853-5.781,7.922-14.831,3.15-22.133-12.331-18.867-55.608-27.977-76.744-14.629-7.663,4.839-10.603,13.715-6.73,21.616,10.929,22.3,60.784,31.631,80.324,15.146Z"/>
    <path d="M626.339,238.704c-1.363-7.033-3.71-13.515-7.568-19.441-4.44-6.82-12.5-13.103-20.766-13.216-.043,0-.085-.004-.128-.003-.056,0-.111.001-.167.003-.825.003-1.65.047-2.475.18-.315.051-.623.121-.926.203-4.205.823-7.918,2.989-11.072,6.237-13.846,14.264-30.458,24.971-49.349,32.691-50.324,20.563-113.137,22.009-166.247,10.98-6.018-1.25-11.582-.894-16.535,2.397-5.055,3.36-7.629,9.517-5.285,15.019,2.126,4.99,6.652,8.15,12.374,9.554,50.108,12.294,102.798,12.85,153.137.984,30.623-7.219,60.778-20.471,84.449-40.526.021-.018.058-.055.083-.078,3.563,16.565,3.184,34.514-.68,50.273-1.106,2.625-2.823,3.595-5.778,3.233l-16.197-1.989c-13.105-1.018-25.42,4.091-33.929,13.894l-8.123,9.358c-1.787,2.059-4.119,3.041-6.934,2.557l-13.463-2.316c-10.74-1.848-21.106,1.058-29.531,7.804l-7.728,6.189c-.981.786-3.786-.092-4.767-.601l-11.436-5.944c-8.579-4.459-18.12-4.97-27.292-1.883l-15.019,6.921-11.238-7.246c-5.872-3.786-12.087-6.477-19.019-7.496-14.911-2.192-28.624,5.312-34.649,19.133-5.44,12.481-7.046,25.827-5.902,39.578,1.06,12.744,2.94,24.852,5.991,37.261l9.661,39.283c5.201,21.151,9.516,41.828,13.262,63.317,3.149,18.066,5.406,35.772,5.034,54.045-.188,9.207-1.757,17.831-6.1,25.871-5.283,9.779-14.262,17.381-25.297,19.53-15.981,3.112-37.912-8.136-51.11-18.047-11.263-8.458-18.893-19.788-22.973-33.349-4.963-16.495-6.776-33.233-6.468-50.709.565-32.1,3.546-63.775,9.682-95.319,4.902-25.196,11.345-49.522,17.851-74.29,1.183-8.818,1.478-17.255,1.684-26.17-1.233-9.548-10.159-16.479-19.573-17.843-5.591-.81-11.03.206-16.687.874l-9.402,1.111-6.21-7.899c-11.164-14.199-31.957-16.487-45.947-6.299l-11.733,8.545c-2.089,1.521-4.984,2.309-7.665,1.819l-7.831-13.594c-4.984-8.652-13.024-14.295-23.039-15.315-4.685-.477-9.422-.755-14.223-.334l-29.275,2.567c-4.189.367-9.239.669-13.01-1.417-8.218-4.545-12.338-13.846-11.656-23.116.692-9.398,2.894-18.178,7.257-26.587,18.285-35.239,45.416-60.672,78.099-82.688,17.338-11.679,35.26-21.299,54.536-29.283,7.167-2.969,14.033-5.776,21.158-8.304,2.012,4.766,5.247,11.588,5.661,12.519,10.466,23.539,26.24,44.048,46.214,61.278,40.013,34.516,92.718,53.187,147.243,52.133,31.057-.601,61.2-7.505,88.436-21.364,11.232-5.716,21.393-12.101,30.464-20.349,6.344-5.768,6.32-14.942.677-20.857-4.784-5.014-14.953-7.997-21.688-2.733-16.195,12.659-34.014,22.534-54.863,28.03-78.763,20.763-165.569-12.133-202.504-80.73-5.011-9.307-8.788-18.155-12.924-27.913-.086-.203-.184-.399-.281-.597-.887-2.153-1.88-4.211-3.285-5.548-9.222-8.779-16.419-8.875-28.276-4.722-19.14,6.703-37.597,14.276-55.632,23.713-29.9,15.646-61.511,38.241-84.591,62.873-14.264,15.224-26.372,32.07-35.915,50.614-6.699,13.017-10.242,27.077-10.639,41.56-.336,12.264,3.141,23.327,10.119,33.133,11.814,16.604,27.197,22.984,47.666,21.109l27.038-2.477,10.557.098c3.259,6.185,6.318,11.795,10.38,17.309,11.007,14.946,34.175,15.466,49.562,4.271l11.411-8.303c1.865-1.357,3.873-.734,5.142.929l5.611,7.348c10.479,12.629,23.981,12.74,39.561,9.6-7.23,26.857-14.331,53.757-19.716,81.346-6.717,34.415-9.956,69.057-10.259,104.082-.165,19.14,2.137,37.592,7.446,55.701,5.836,19.905,17.007,36.863,33.385,49.471,10.868,8.366,22.609,14.836,35.45,19.696,21.848,8.269,43.575,8.43,63.388-4.398,22.08-14.296,33.172-38.029,33.833-64.157.394-15.575-.139-30.709-2.921-46.088l-8.958-49.521-14.969-62.535c-3.309-13.824-6.034-27.206-7.132-41.244-.68-8.698.197-16.963,3.781-25.029,3.049-.222,5.709,1.119,8.305,2.694l16.431,9.969c7.364,3.551,15.525,3.694,22.833.145l12.117-5.885c2.498-1.214,4.941-.681,7.277.663,5.495,3.163,10.875,6.072,16.955,7.853,10.675,3.128,21.731,1.217,30.283-5.793l7.142-5.855c1.859-1.524,4.288-2.053,6.771-1.619l12.442,2.174c12.199,2.131,24.139-1.581,32.889-10.335l9.679-11.063c2.777-3.174,6.076-4.549,10.352-4.03l16.183,1.964c18.735,2.274,34.244-12.133,37.887-30.977,3.819-19.755,3.961-38.459.122-58.264Z"/>
  </g>
</svg>