<?xml version="1.0" encoding="UTF-8"?>
<svg id="Layer_1" data-name="Layer 1" xmlns="http://www.w3.org/2000/svg" viewBox="0 0 2000 1657.438">
  <defs>
    <style>
      .cls-1 {
        fill: #386641;
      }
    </style>
  </defs>
  <g>
    <g>
      <path class="cls-1" d="M249.532,926.373c0,5.826-.777,10.877-3.108,17.092-4.661,12.819-8.157,19.423-14.372,31.465-3.886,7.38-6.993,12.43-10.877,18.257-3.497,5.05-5.827,10.1-8.158,15.538-6.604,16.703-14.373,33.407-22.53,49.722-3.496,6.992-6.215,13.984-10.877,19.811-6.215,12.043-12.043,21.365-20.587,34.573-1.943,3.108-2.72,6.215-6.215,7.769-1.554.777-3.108,1.165-4.661,1.165s-3.497-.388-5.439-.388h-3.108c-2.719-1.554-3.883-3.496-6.603-4.661-4.661-1.942-8.157-1.554-12.818-3.885-1.166-.777-2.72-2.331-4.274-3.497-5.049-2.719-10.1-3.108-14.761-7.38-3.885-3.885-5.05-6.992-6.215-12.43-.389-1.943-.777-3.885-.777-5.438,0-3.496.777-6.215.777-10.489,0-6.215,0-9.711.389-15.926.388-4.274.776-6.215,1.165-10.489v-.776c0-1.554-.389-2.72-.389-4.661v-34.184c0-1.943.389-2.72.389-4.661v-.389c-.389-4.272-1.165-6.604-1.165-10.877v-27.58c.388-11.266.776-17.87,1.165-29.134.389-4.661.389-7.381.777-12.043.777-7.38,1.166-11.265,1.942-18.646.389-1.942.778-3.108.778-5.437v-12.043c.776-6.215,1.942-11.265,3.108-15.926,4.272-3.108,7.769-4.274,12.042-4.661,3.497,0,6.992,0,10.488-1.554,1.554-.778,3.497-.389,5.05-.778,6.604-.388,12.43-1.942,20.2-1.942h1.554c6.215,0,10.1.777,16.703,1.166,1.166,0,1.554.388,2.72.388,3.496.388,5.827.388,9.323,1.166,5.049,1.165,7.381,3.108,12.43,3.883,1.554.389,2.72.389,3.885.389h3.885c1.554,0,3.108,0,4.661.389,9.323,2.33,16.315,3.883,23.307,8.545,5.438,3.497,9.711,8.158,12.43,13.984,1.554,4.274,3.496,8.935,5.049,13.596,1.166,3.108,1.943,5.827,2.72,8.935v12.042ZM208.745,908.116c0-.389,0-.778-.389-1.166-.777-1.554-1.943-3.108-3.885-3.108-4.661,0-8.935-1.166-12.818-3.108-5.05-1.942-10.877-1.942-15.538-3.885-1.554-.777-3.497-.777-5.439-.777-3.883-.388-8.157-.388-12.042-.388-6.604,0-13.207.388-19.035.776-2.719,1.166-3.883,2.332-4.272,4.274-.389,1.166-.389,2.331-.389,3.885-.388,20.2-.388,36.902-.776,60.21,0,4.661-.389,7.381-.778,12.043v3.885c.389,3.108.778,4.661,1.166,7.769v5.438c.388,4.661.388,9.323.388,13.596,0,8.157,0,15.538,1.943,23.695.389,2.331.389,4.661.389,6.992v9.323c0,1.165.776,2.331,1.165,3.497,1.165,0,1.943,0,2.719.388,2.332-1.554,3.497-4.274,4.661-6.603,8.547-16.704,17.092-33.408,25.639-50.111,4.661-10.1,10.099-19.811,15.538-29.522,2.33-4.272,5.049-8.546,6.603-13.207,1.166-3.885,2.72-7.381,4.661-10.877,3.496-5.827,6.215-12.043,6.992-18.646,0-1.166.389-1.942.777-2.72,1.942-3.108,1.166-6.991,2.331-10.099.389-.778.389-1.166.389-1.554Z"/>
      <path class="cls-1" d="M338.092,965.607c1.165,2.719,1.943,5.826,1.943,8.934s-.778,6.215-1.554,9.323c-1.554,4.661-1.166,8.934-1.943,14.373-.389,3.496-.389,5.826-1.165,9.323-.389,3.108-.778,4.661-1.166,7.769-.388,4.272-.777,6.215-1.554,10.488,0,.777-.388.777-.388,1.554-.389,6.215-.778,9.712-1.554,15.927-.389,6.215-1.554,9.711-1.943,15.926v58.657c0,1.554.389,2.719.389,4.272,0,.389,0,1.165-.389,1.943-1.165,4.272-1.554,7.769-5.438,10.099-1.554,1.166-3.496,1.554-5.049,1.554-2.332,0-4.274-.776-6.993-1.554-3.108-1.165-3.108-4.272-6.215-6.215-.776-.388-1.165-.388-1.942-.388h-1.554c-.777,0-1.166,0-1.942-.388-2.72-1.166-4.661-1.554-6.993-3.497-1.554-1.554-2.33-3.108-2.719-5.438-1.165-5.827-.777-9.323-1.165-15.15v-15.149c0-8.546,0-15.927.388-26.415.388-5.826,1.166-8.934,1.554-14.373.388-2.719.777-3.883.777-6.603,1.165-8.157,1.554-13.207,2.331-21.365.388-2.719.388-3.883.388-6.603.778-4.274,1.166-6.215,1.554-10.489.389-1.942.389-3.108.778-5.049.776-4.274.776-7.381,1.942-10.489.777-1.165.777-2.719.777-4.272,1.554-12.43,4.272-24.861,7.769-37.68,1.943-6.603,5.05-10.488,8.546-17.092.388-.776.777-1.165,1.554-1.165h1.166c2.33,0,4.661-.389,6.991-.389,2.72,0,5.05.389,7.769,1.943,3.497,1.554,3.108,5.05,3.886,8.546.388,1.554.776,3.108.776,4.274,0,1.554-.388,3.108-.388,4.661,0,4.272-.388,8.157-.388,12.042,0,2.719,0,5.438,1.165,8.158ZM354.407,878.205c0,.777,0,1.943-.388,2.719-2.332,5.827-8.547,6.215-15.15,7.769-1.166,0-1.942.389-3.108.389-2.72,0-5.049-.777-7.769-2.331-4.661-1.554-7.769-3.108-10.877-6.992-.777-1.165-.777-2.331-.777-3.108,0-1.554.389-3.108,1.554-4.272,3.885-5.439,7.769-8.935,12.819-11.266,1.165-1.165,3.108-1.554,4.661-1.554.776,0,1.942,0,2.33.389,4.274,2.33,7.381,2.719,10.877,6.991,2.332,3.108,5.827,7.381,5.827,11.266Z"/>
      <path class="cls-1" d="M517.941,978.426v.777c0,2.719-1.165,4.272-1.554,6.992v1.554c-1.554,6.992-2.33,12.043-4.272,17.869-1.943,5.826-3.885,11.654-5.438,17.869-1.554,5.827-3.885,10.489-6.215,17.092-1.166,3.885-2.331,5.827-3.108,9.711-2.331,7.769-3.108,12.043-5.049,20.2-1.554,6.604-2.332,10.101-3.886,16.704,0,1.166-.388,1.554-.776,2.72-4.274,9.323-5.439,16.703-10.877,24.083-.778,1.166-1.166,2.332-2.332,3.497,0,.389-.388.389-1.165.389h-.389c-5.437-.778-10.488-2.332-14.372-2.332-3.108,0-5.438-1.165-7.769-1.942-3.885-1.554-7.769-3.496-9.323-8.157-.388-1.943-.777-3.497-.777-4.661,0-3.886,1.554-6.993,1.943-11.655,1.165-6.215,2.719-9.711,4.272-16.314.389-1.554.389-2.72.777-4.274,4.661-13.984,7.381-21.753,12.43-35.738,1.942-5.827,3.885-10.1,5.438-14.761,1.554-5.05,1.165-4.661,2.719-9.323.389-1.165.778-1.943.778-2.719,0-1.166-.389-2.332-.389-3.108-.389-1.166-1.165-2.72-1.943-3.886-5.437-.776-10.099-.388-15.538-.776h-4.272c-3.108,0-5.826,0-8.546-1.166-.777-.388-1.554-.777-2.72-.777-3.108-.389-6.215-.389-9.711-.777-1.166,0-1.942-.777-2.72-.777-7.38-2.719-14.76-8.158-21.364-12.042-4.661-2.332-6.604-5.05-9.323-9.323-2.331-3.886-3.108-6.604-3.497-10.877v-.778c0-3.496,1.554-6.215,1.554-9.323.389-3.496.389-6.603,1.554-10.099.778-4.661,1.943-9.712,3.497-14.762,2.331-6.991,5.438-13.984,8.158-21.364.776-1.943,1.942-4.272,3.108-6.215,3.108-4.661,6.603-9.323,9.711-13.984,6.215-9.712,19.034-13.207,29.522-20.2,1.166-.777,2.72-1.165,3.885-1.165s1.943.388,3.108.388c2.719.777,4.272,2.331,6.215,4.274,1.165,1.165,1.554,1.942,1.554,3.883v1.554c0,2.332-.389,3.886-.777,6.604-.777,3.497-1.166,5.438-2.72,8.546-3.496,5.827-6.603,8.546-9.711,13.596-2.72,5.437-6.215,10.488-7.381,16.314-1.165,5.05-3.108,9.323-4.661,13.596-1.165,3.885-2.33,7.381-3.108,10.877-.776,2.72-2.33,5.049-2.33,7.769,0,.777,0,1.554.388,2.331.777,2.719,3.885,3.108,6.603,4.272,1.166.389,2.72.389,4.274.389,6.215,0,10.877-1.943,17.869-3.497,6.215-1.942,12.819-2.719,19.035-2.719,6.991,0,14.372,1.165,21.753,4.272,5.826,2.332,11.265,5.827,14.372,11.266,2.331,3.497,3.108,5.826,3.496,10.1Z"/>
      <path class="cls-1" d="M681.865,1100.011c0,2.332-1.166,3.497-3.497,6.993-1.165,1.942-7.38,4.272-9.712,4.272-10.488.777-17.868,1.554-26.415,1.554-4.661,0-9.711-.389-15.926-1.165-9.323-1.166-14.372-4.274-22.53-9.323-3.885-2.332-4.661-5.439-7.38-8.935-5.05-6.603-8.935-11.265-12.43-17.48-3.108-5.827-6.215-11.655-8.935-17.87-3.108-5.826-5.438-12.43-6.603-18.646-.778-3.496-1.943-6.991-2.332-10.488-.388-3.497-.776-6.992-2.33-10.488-.389-.778,0-1.943-.389-2.72,0-5.438-.389-10.1-.389-15.538v-4.274c.389-5.826,1.166-8.934,1.943-14.76.389-3.497,1.165-5.827,1.165-9.323,1.166-20.977,10.877-39.623,28.358-57.491,10.1-10.489,13.207-13.984,23.696-20.589,10.877-7.38,21.753-9.323,30.298-13.984.778-.777,1.166-.777,2.332-.777.776,0,1.165,0,1.942.777,4.661,3.108,8.157,3.885,11.654,8.546,1.943,1.942.777,4.274,1.554,7.381.389,1.942,1.165,2.719,1.943,5.049,0,.388.388.777.388,1.166v.388c-.388.777-.388,1.166-.777,2.331-1.165,2.331-1.165,3.885-3.108,6.215-16.315,17.869-33.795,13.207-45.449,36.902-5.826,10.489-10.877,31.465-12.43,48.557v4.661c0,5.05.778,9.323,1.166,15.538.388,1.943.388,3.108.777,5.05,1.554,6.991,1.554,11.265,3.497,18.257,1.942,6.604,4.272,9.712,6.603,15.927.777,1.554.777,2.719,1.554,3.883,3.885,5.827,5.827,9.712,10.877,14.373,2.331,1.943,4.274,2.331,7.381,2.719,6.991.778,9.323,1.943,15.926,3.497,6.215,1.554,10.489.777,16.315,3.885,4.661,2.331,6.215,5.827,9.323,8.935,1.165,3.108,1.943,5.437,1.943,6.991Z"/>
      <path class="cls-1" d="M843.071,967.937v2.332c0,1.942,0,3.883-.388,6.215,0,.776-.389,1.554-.389,2.33,0,1.554.389,3.108.389,4.661v.778c-.389,7.38-.389,11.653-.778,19.034-.776,12.43-1.554,19.423-2.33,31.853,0,1.554-.389,2.331-.389,3.885-1.165,6.215-1.554,9.711-2.719,15.926-1.554,8.547-1.943,13.984-4.661,22.142-2.332,6.215-3.886,10.877-8.158,15.149-2.331,1.943-4.272,4.274-5.826,6.993-.778,1.165-1.554,2.33-2.72,3.108-2.72,1.554-4.661,3.883-6.603,6.603-1.943,2.72-4.661,4.274-8.158,6.603-6.215,4.274-6.604,5.439-13.595,8.158-1.554.777-5.05,1.165-8.935,1.165h-3.108c-5.438-.388-8.546-.388-13.984-2.33-7.769-2.72-14.761-3.108-19.423-9.323-.777-.778-5.826-5.05-5.826-5.827-.778-5.049-2.332-8.935-3.497-14.372-1.165-5.05-1.554-7.769-2.719-12.819-1.166-5.05-1.166-8.158-2.332-13.207-.776-4.274-1.554-6.215-2.33-10.489-.778-4.272-.389-6.603-.778-10.877-.776-14.76-1.554-23.695-1.554-37.679v-3.496c0-13.208,1.166-20.589,2.332-33.408.388-2.719.776-3.883,1.165-6.603.389-1.942.389-3.108.777-5.049,1.942-9.323,3.108-14.373,5.049-23.696,1.166-4.661,1.943-6.992,3.108-11.654,1.166-3.885,1.554-6.603,2.72-10.1,5.049-15.538,12.818-27.969,19.812-37.68,1.165-1.165,2.33-2.719,3.496-3.883,1.166-1.554,1.942-3.108,3.108-4.274,12.43-9.323,10.1-10.1,18.258-10.877h1.165c6.604,0,19.811,4.274,23.307,8.157,1.943,2.332,3.885,5.05,6.604,6.604,2.33,1.165,5.049,1.554,7.38,2.719,2.331,1.554,4.661,3.108,5.438,5.827,1.166,5.827,4.274,10.877,6.603,15.926,1.943,4.274,3.886,8.158,5.439,12.43.776,2.72,1.554,5.05,1.554,7.769.776,6.993,2.33,12.819,3.108,21.365v19.812c.388,4.272.388,5.826.388,10.099ZM795.68,906.951c-2.719-4.274-5.05-5.827-9.712-5.827h-.388c-1.554,0-6.215,4.661-6.603,6.215-2.332,7.769-5.439,15.927-6.215,19.812-2.72,10.489-3.886,16.704-6.215,27.192-1.554,6.215-.389,12.042-1.554,17.869-.778,6.992-.389,8.546-.778,15.15v9.323c-.388,4.661-1.554,7.38-1.554,12.042v5.438c0,8.157.389,14.372.778,23.695,0,2.332.388,3.497.776,5.439,1.166,9.323,1.166,15.149,3.108,26.415.389,2.719,1.166,10.099,9.712,10.099h.777c3.108,0,9.711-4.661,10.877-8.157,1.554-5.438,3.108-10.877,3.885-14.372.777-5.05,1.554-8.935,2.719-14.373,1.554-8.934,1.943-13.595,3.497-22.53,0-1.166,0-1.554.389-2.72.776-5.437,1.554-8.545,1.942-14.372.388-7.381.388-11.265.777-18.646,0-1.942,0-3.496.389-5.438.388-5.05.776-8.158,1.165-13.207.389-8.546,1.165-15.538,1.165-23.307,0-3.108,0-6.603-.388-10.1-.777-6.215-3.108-17.092-8.546-25.638Z"/>
      <path class="cls-1" d="M1098.276,868.493c0,1.166,0,2.72-.388,3.886-3.497,5.437-2.72,11.265-4.274,18.257-.388,3.108-.388,4.661-.777,7.769-.389,3.497,0,5.826-.777,9.323-.777,6.215-1.554,9.323-3.108,15.538-.388,2.331-1.166,3.108-1.554,5.438-.777,5.049-1.166,7.769-1.942,12.818-.389,3.497-.389,5.827-.778,9.323-.776,6.993-1.165,10.489-1.942,17.481-.388,3.497-.388,5.826-.777,9.323-.389,2.719-.777,3.885-1.165,6.604-.778,5.049-1.166,7.769-1.943,12.818-.777,5.827-.777,8.935-1.554,14.761-.389,3.108-.389,4.661-.777,7.769-.777,5.05-1.166,8.158-1.942,13.207-.389,2.72-.389,3.885-.389,6.603,0,5.439,0,8.158-.389,13.596,0,3.108-.388,4.661-1.165,7.769-2.331,9.711-4.272,16.315-6.215,24.473,0,6.603-3.497,12.43-3.497,18.646v1.165c-1.165,4.272-2.33,8.546-3.496,12.819-.777,3.108-1.166,6.215-1.942,8.934-.389,3.885-3.108,5.826-6.604,5.826h-1.165c-1.166-.388-2.332-.776-3.886-1.554-1.554.389-2.719,1.943-3.883,3.108-.778,1.166-1.943,1.943-2.72,2.72-1.166.777-2.331,1.166-3.885,1.166h-1.165c-3.497-1.166-6.993-2.332-10.877-3.886-2.72-2.33-6.215-5.437-8.547-8.157-5.826-9.323-8.934-19.034-12.818-28.746-3.885-8.934-7.381-18.257-10.489-27.58-3.108-8.547-6.603-17.092-10.099-26.027-4.274-12.043-8.547-24.084-12.043-36.515-2.72-10.877-6.215-21.364-8.157-32.241-2.332-5.05-2.72-10.489-6.215-15.15-1.943,0-3.108,1.166-3.497,2.72s-.777,2.719-.777,4.272c-.777,5.05-1.554,9.323-2.331,15.538-.389,1.943,0,3.497-.389,5.438-.776,6.215-1.165,9.711-1.942,15.926,0,1.943-.388,3.497-.388,5.439,0,5.049,0,8.157-.389,13.206-.389,6.604-1.554,10.489-2.331,17.092-.388,6.604-.388,10.489-.777,17.481,0,1.165-.389,1.554-.777,2.719-.777,4.661-.777,6.993-1.554,11.655-.388,3.108-.777,5.049-1.554,8.157,0,.777-.777,1.554-.777,2.331-1.165,11.266-1.554,17.869-3.108,29.133-.777,6.604-.389,10.877-3.497,16.316-1.165,1.165-2.719,2.33-4.661,3.883-1.165,2.332-2.33,4.661-3.496,6.604-3.108,2.719-6.215,4.661-9.711,5.05-3.497-.389-6.604-1.943-9.323-4.661-3.497-5.05-3.886-10.877-5.827-16.316-.777-1.942-.777-3.883-.777-6.215v-10.877c0-4.272,0-7.38.389-12.43.388-3.496,1.165-5.437,1.554-8.934.388-3.497.388-5.826.776-9.323.778-6.215,1.166-9.712,1.943-15.927.389-2.719.777-3.883.777-6.603.388-2.72.388-3.885.388-6.603.778-7.381,1.166-11.266,1.943-18.646,1.554-11.266,2.331-17.87,3.885-29.134.777-4.274,1.166-6.215,1.554-10.489.388-5.437.388-8.157.777-13.595.389-4.661,1.165-6.992,1.943-11.654.776-4.274,1.554-6.215,1.942-10.489.388-3.108.388-4.661.777-7.769.777-6.215,1.165-9.711,1.943-15.926.388-1.942.388-3.496.388-5.438.388-13.984.388-22.142.388-36.127,0-2.719-.776-5.049-.776-7.38,0-1.165.388-2.331.776-3.497,2.332-5.049,6.604-7.769,10.101-9.711,1.554-.777,3.108-.777,5.049-.777,2.331,0,5.049.389,7.381.777,3.496.388,6.991,1.942,10.488,2.72,1.165,1.942,2.719,3.496,3.885,5.437,1.166,1.943,2.331,3.886,3.496,5.439.778,1.165,1.554,2.33,2.332,3.496,10.099,13.207,17.48,27.969,24.861,42.73,1.942,4.272,3.883,8.934,5.437,13.595,5.05,12.819,9.712,25.639,14.373,38.845,3.108,10.101,5.438,20.589,8.934,30.688.778,3.108,1.554,6.215,2.72,8.935,1.166,3.108,2.331,6.603,3.108,10.099,1.166,5.05,3.496,10.101,6.603,14.373,1.554,0,3.108-.389,3.497-1.943.389-2.33.389-4.272.777-6.603,0-2.72,0-5.438,1.166-8.157.388-1.943.776-3.886.776-6.215.389-3.886.389-5.827.389-9.712.389-6.604.389-10.488,1.165-17.092.778-6.215,2.332-9.712,3.108-15.927.778-3.496.778-5.437.778-8.934.388-5.438.388-8.158.776-13.595.778-6.993,1.554-11.266,2.332-18.258.388-3.108.776-5.049,1.165-8.157.389-3.497.777-5.439,1.165-8.935.778-4.661,1.554-7.381,2.332-12.043.388-1.554.388-2.33.388-3.883,1.166-8.158,2.331-13.984,2.72-21.365.388-3.496,2.719-6.603,2.719-10.1,0-3.108.389-6.215.389-9.323,1.942-3.497,3.108-6.604,5.049-9.712,4.274-7.38,11.265-10.877,19.812-11.265,3.496,0,6.991.777,10.099.777,5.827,3.108,8.158,7.769,10.489,13.207v14.372Z"/>
      <path class="cls-1" d="M1344.16,868.493c0,1.166,0,2.72-.388,3.886-3.497,5.437-2.72,11.265-4.274,18.257-.388,3.108-.388,4.661-.777,7.769-.389,3.497,0,5.826-.777,9.323-.777,6.215-1.554,9.323-3.108,15.538-.388,2.331-1.166,3.108-1.554,5.438-.777,5.049-1.166,7.769-1.942,12.818-.389,3.497-.389,5.827-.778,9.323-.776,6.993-1.165,10.489-1.942,17.481-.388,3.497-.388,5.826-.777,9.323-.389,2.719-.777,3.885-1.165,6.604-.778,5.049-1.166,7.769-1.943,12.818-.777,5.827-.777,8.935-1.554,14.761-.389,3.108-.389,4.661-.777,7.769-.777,5.05-1.166,8.158-1.942,13.207-.389,2.72-.389,3.885-.389,6.603,0,5.439,0,8.158-.389,13.596,0,3.108-.388,4.661-1.165,7.769-2.331,9.711-4.272,16.315-6.215,24.473,0,6.603-3.497,12.43-3.497,18.646v1.165c-1.165,4.272-2.33,8.546-3.496,12.819-.777,3.108-1.166,6.215-1.942,8.934-.389,3.885-3.108,5.826-6.604,5.826h-1.165c-1.166-.388-2.332-.776-3.886-1.554-1.554.389-2.719,1.943-3.883,3.108-.778,1.166-1.943,1.943-2.72,2.72-1.166.777-2.331,1.166-3.885,1.166h-1.165c-3.497-1.166-6.993-2.332-10.877-3.886-2.72-2.33-6.215-5.437-8.547-8.157-5.826-9.323-8.934-19.034-12.818-28.746-3.885-8.934-7.381-18.257-10.489-27.58-3.108-8.547-6.603-17.092-10.099-26.027-4.274-12.043-8.547-24.084-12.043-36.515-2.72-10.877-6.215-21.364-8.157-32.241-2.332-5.05-2.72-10.489-6.215-15.15-1.943,0-3.108,1.166-3.497,2.72-.389,1.554-.777,2.719-.777,4.272-.777,5.05-1.554,9.323-2.331,15.538-.389,1.943,0,3.497-.389,5.438-.776,6.215-1.165,9.711-1.942,15.926,0,1.943-.388,3.497-.388,5.439,0,5.049,0,8.157-.389,13.206-.389,6.604-1.554,10.489-2.331,17.092-.388,6.604-.388,10.489-.777,17.481,0,1.165-.389,1.554-.777,2.719-.777,4.661-.777,6.993-1.554,11.655-.388,3.108-.777,5.049-1.554,8.157,0,.777-.777,1.554-.777,2.331-1.165,11.266-1.554,17.869-3.108,29.133-.777,6.604-.389,10.877-3.497,16.316-1.165,1.165-2.719,2.33-4.661,3.883-1.165,2.332-2.33,4.661-3.496,6.604-3.108,2.719-6.215,4.661-9.711,5.05-3.497-.389-6.604-1.943-9.323-4.661-3.497-5.05-3.886-10.877-5.827-16.316-.777-1.942-.777-3.883-.777-6.215v-10.877c0-4.272,0-7.38.389-12.43.388-3.496,1.165-5.437,1.554-8.934.388-3.497.388-5.826.776-9.323.778-6.215,1.166-9.712,1.943-15.927.389-2.719.777-3.883.777-6.603.388-2.72.388-3.885.388-6.603.778-7.381,1.166-11.266,1.943-18.646,1.554-11.266,2.331-17.87,3.885-29.134.777-4.274,1.166-6.215,1.554-10.489.388-5.437.388-8.157.777-13.595.389-4.661,1.165-6.992,1.943-11.654.776-4.274,1.554-6.215,1.942-10.489.388-3.108.388-4.661.777-7.769.777-6.215,1.165-9.711,1.943-15.926.388-1.942.388-3.496.388-5.438.388-13.984.388-22.142.388-36.127,0-2.719-.776-5.049-.776-7.38,0-1.165.388-2.331.776-3.497,2.332-5.049,6.604-7.769,10.101-9.711,1.554-.777,3.108-.777,5.049-.777,2.331,0,5.049.389,7.381.777,3.496.388,6.991,1.942,10.488,2.72,1.165,1.942,2.719,3.496,3.885,5.437,1.166,1.943,2.331,3.886,3.496,5.439.778,1.165,1.554,2.33,2.332,3.496,10.099,13.207,17.48,27.969,24.861,42.73,1.942,4.272,3.883,8.934,5.437,13.595,5.05,12.819,9.712,25.639,14.373,38.845,3.108,10.101,5.438,20.589,8.934,30.688.778,3.108,1.554,6.215,2.72,8.935,1.166,3.108,2.331,6.603,3.108,10.099,1.166,5.05,3.496,10.101,6.603,14.373,1.554,0,3.108-.389,3.497-1.943.389-2.33.389-4.272.777-6.603,0-2.72,0-5.438,1.166-8.157.388-1.943.776-3.886.776-6.215.389-3.886.389-5.827.389-9.712.389-6.604.389-10.488,1.165-17.092.778-6.215,2.332-9.712,3.108-15.927.778-3.496.778-5.437.778-8.934.388-5.438.388-8.158.776-13.595.778-6.993,1.554-11.266,2.332-18.258.388-3.108.776-5.049,1.165-8.157.389-3.497.777-5.439,1.165-8.935.778-4.661,1.554-7.381,2.332-12.043.388-1.554.388-2.33.388-3.883,1.166-8.158,2.331-13.984,2.72-21.365.388-3.496,2.719-6.603,2.719-10.1,0-3.108.389-6.215.389-9.323,1.942-3.497,3.108-6.604,5.049-9.712,4.274-7.38,11.265-10.877,19.812-11.265,3.496,0,6.991.777,10.099.777,5.827,3.108,8.158,7.769,10.489,13.207v14.372Z"/>
      <path class="cls-1" d="M1530.615,894.52c0,2.72-2.331,4.661-4.274,6.992-3.496,3.885-5.437,6.215-10.488,7.38-1.554.389-2.719.389-3.885.389-4.274,0-7.769-1.554-12.818-1.943-1.943,0-3.108-.388-5.05-.388-5.826-.388-8.934,0-14.761-.388-3.108-.389-5.438-.389-8.157-1.166-2.72-.777-5.827-1.166-8.547-1.166-2.33,0-5.049.389-7.38.389-1.554,0-3.108,1.165-4.272,2.719-2.332,3.886-3.497,8.158-3.886,12.819,0,4.661-1.942,9.323-1.942,14.373v4.272c0,4.661-.388,8.934-.388,13.207,0,9.323-.389,18.646-.389,27.969,0,2.72.389,5.438.389,8.157,1.554.778,2.719,1.554,3.883,1.554,1.943,0,3.497.389,5.439.389,3.496,0,6.991-.389,10.488-1.554,1.943-.777,4.272-.777,6.604-1.165,1.554,0,3.496,0,5.049-.389,4.661-1.554,8.935-1.943,13.596-1.943h5.826c2.331,0,3.497,1.166,5.438,2.332,2.331,1.165,4.274,1.165,6.215,3.108,3.108,3.108,6.215,5.049,6.603,9.323v1.165c0,3.885-1.942,6.604-5.049,9.323-4.661,4.272-9.711,4.661-14.372,6.992-1.166.777-2.72,1.554-3.886,1.554-6.603,0-12.818,3.496-19.811,3.496h-1.165c-3.886.778-7.769,1.554-11.655,1.943-3.883.777-7.38.777-10.099.777-2.332,1.166-3.108,3.108-3.108,4.661v12.043c0,4.272,2.33,7.769,2.33,12.042.389,6.215,3.108,10.877,5.827,17.481.777,1.554,1.554,2.719,3.108,3.496,4.274,1.942,6.603,3.496,11.265,3.885,1.554.389,3.108.389,4.661.389,4.274,0,7.769-.778,12.43-.778h1.166c5.049,0,7.381.389,12.43.778,3.885.776,5.438.388,8.935,1.942,2.719,1.554,4.661,1.554,7.38,3.108,3.497,2.331,6.215,3.496,7.769,6.992.389.777.389,1.165.389,1.554,0,1.943-1.166,3.497-1.554,5.438-.389,2.331.388,4.274-1.554,5.827-3.108,2.719-6.215,2.719-10.101,4.272-3.496,1.554-5.437,3.885-9.323,4.272-7.769.778-13.984,1.166-20.587,1.166-4.274,0-8.546,0-13.207-.388-5.826-.389-10.488-1.166-17.092-3.108-5.438-1.554-9.323-3.108-13.595-5.439-6.604-3.496-12.043-7.769-15.538-14.372-.778-1.554-2.332-2.72-3.108-4.274-1.166-2.719-2.332-5.826-3.108-8.545-1.554-5.439-3.108-9.323-4.274-15.538-1.166-5.439-1.554-8.935-2.331-14.373v-2.719c-.777-9.323-1.554-14.762-1.943-24.085-.388-6.991-.388-12.43-.388-18.257v-3.108c0-5.05,0-9.712,1.942-14.373.778-1.942.389-4.661.778-6.603,0-5.049,0-10.1.388-14.761v-5.438c2.72-8.546,1.942-17.092,2.331-25.249v-6.604c.389-2.331.777-4.661,1.165-6.604.778-1.942.778-3.496,1.166-5.437v-6.215c-4.274-1.554-6.603-2.332-10.877-3.886-4.274-1.554-6.992-1.165-10.489-3.883-3.883-3.108-6.991-5.439-6.991-10.101v-.388c0-3.885,4.272-4.661,7.38-7.381,3.108-2.719,4.272-5.049,8.158-6.603,3.496-1.554,6.603-1.554,9.711-1.554h2.331c4.272,0,7.38-1.554,12.042-2.331,4.661-.777,6.993-2.331,11.655-2.331h.388c3.108,0,5.049,1.554,8.546,1.942,3.108.389,5.05.389,8.158.389h15.926c1.942,0,3.496,0,5.438.389,4.661.776,7.38,1.554,12.042,1.942,4.661.388,7.381,0,12.043.777,3.496.389,5.438,1.554,8.935,1.943h4.272c1.165,0,2.331.388,3.497.776,3.883,1.554,5.437,3.886,8.545,6.604,3.108,2.719,4.661,5.438,6.993,8.158.388.776.388,1.165.388,1.942Z"/>
      <path class="cls-1" d="M1694.147,1100.011c0,2.332-1.166,3.497-3.497,6.993-1.165,1.942-7.38,4.272-9.712,4.272-10.488.777-17.868,1.554-26.415,1.554-4.661,0-9.711-.389-15.926-1.165-9.323-1.166-14.372-4.274-22.53-9.323-3.885-2.332-4.661-5.439-7.38-8.935-5.05-6.603-8.935-11.265-12.43-17.48-3.108-5.827-6.215-11.655-8.935-17.87-3.108-5.826-5.438-12.43-6.603-18.646-.778-3.496-1.943-6.991-2.332-10.488-.388-3.497-.776-6.992-2.33-10.488-.389-.778,0-1.943-.389-2.72,0-5.438-.389-10.1-.389-15.538v-4.274c.389-5.826,1.166-8.934,1.943-14.76.389-3.497,1.165-5.827,1.165-9.323,1.166-20.977,10.877-39.623,28.358-57.491,10.1-10.489,13.207-13.984,23.696-20.589,10.877-7.38,21.753-9.323,30.298-13.984.778-.777,1.166-.777,2.332-.777.776,0,1.165,0,1.942.777,4.661,3.108,8.157,3.885,11.654,8.546,1.943,1.942.777,4.274,1.554,7.381.389,1.942,1.165,2.719,1.943,5.049,0,.388.388.777.388,1.166v.388c-.388.777-.388,1.166-.777,2.331-1.165,2.331-1.165,3.885-3.108,6.215-16.315,17.869-33.795,13.207-45.449,36.902-5.826,10.489-10.877,31.465-12.43,48.557v4.661c0,5.05.778,9.323,1.166,15.538.388,1.943.388,3.108.777,5.05,1.554,6.991,1.554,11.265,3.497,18.257,1.942,6.604,4.272,9.712,6.603,15.927.777,1.554.777,2.719,1.554,3.883,3.885,5.827,5.827,9.712,10.877,14.373,2.331,1.943,4.274,2.331,7.381,2.719,6.991.778,9.323,1.943,15.926,3.497,6.215,1.554,10.489.777,16.315,3.885,4.661,2.331,6.215,5.827,9.323,8.935,1.165,3.108,1.943,5.437,1.943,6.991Z"/>
      <path class="cls-1" d="M1905.849,860.724c0,1.943,0,5.05-.388,10.101-1.554,1.554-3.497,3.496-5.05,5.049-1.165.777-1.943,1.166-2.719,1.166-3.497.776-6.993,0-10.489,1.554-3.108,1.554-6.992,1.942-10.489,2.719-1.942.777-4.272,1.165-6.215,1.165-5.049.778-8.934,1.554-14.76,2.332-5.827.776-9.712.776-14.762,1.165-1.165.777-2.719,1.943-3.883,2.719-.778,1.943-1.166,4.274-1.166,6.215,0,2.332.388,4.274.388,6.215-.388,5.439,0,10.877-1.942,15.927-.388,1.165-.777,2.331-.777,3.497s.389,2.33.389,3.883v.778c-.389,14.372-.389,22.918-.778,37.291-.388,6.215-.776,9.711-1.165,15.926-.389,2.72-.777,4.274-.777,6.992-.777,15.149-.388,23.696-.777,38.845-.389,7.769-1.165,12.042-1.554,19.811-.389,3.497-.389,5.827-.389,9.323-.388,18.258-.388,28.747-.776,47.003-.389,3.497-.778,5.826-1.166,9.323-.388,3.497-.777,5.826-.777,9.323,0,.389-.389,1.165-.389,1.554,0,2.719.389,4.661.389,6.992,0,1.554,0,3.496-.777,5.438-1.942,4.272-8.935,6.215-15.926,6.215-7.769,0-15.538-1.943-18.258-4.272-1.942-1.554-3.496-1.554-4.661-3.108-3.885-5.05-5.827-7.769-7.381-13.984-.388-.389-.388-.778-.388-1.166,0-2.72.777-4.274,1.166-6.992,1.942-22.918,3.496-44.672,3.496-65.649,0-8.934.777-21.364.777-30.687,0-22.918,1.943-36.515,2.331-60.988,0-2.719.388-3.883.388-6.603.778-6.215.778-13.984,1.166-20.2v-29.522c-.388-.777-.777-1.554-1.554-2.331-1.166-1.165-2.331-2.331-3.496-2.331-.389,0-.778.388-1.166.388-2.72,1.166-5.827,1.554-8.935,1.554-5.437.389-10.877.389-15.926,1.943-2.72.777-5.438,1.165-8.157,1.165-2.332,0-4.661-.388-6.604-.388-.777-.388-1.554-.777-2.331-1.554-2.331-3.108-4.661-6.215-8.157-8.546-1.554-.777-2.72-2.331-3.886-3.497-.776-1.165-1.165-2.33-1.554-3.883,0-.389-.388-.778-.388-1.166,0-4.661,2.331-8.935,6.215-11.654,2.331-1.943,4.661-2.719,8.157-3.885,6.215-1.942,10.101-2.331,17.092-3.496,8.158-1.166,12.819-1.554,20.977-2.332,1.554,0,2.33,0,4.272-.388,6.992-.777,10.877-1.554,18.257-2.331.778,0,1.554-.389,2.72-.389,7.381-.776,12.043-1.165,19.812-2.33,5.049-.778,7.769-1.554,13.206-2.332,5.05-.776,8.158,0,13.596-.776,5.438-.778,8.546-1.554,14.372-2.332.778,0,1.554-.388,2.72-.388,6.603-.777,12.043-1.942,17.48-1.942h3.497c3.885,1.942,5.826,5.437,8.546,9.323,2.72,1.554,5.438,3.108,8.546,4.661.389,1.165.777,1.942.777,3.883Z"/>
    </g>
    <g>
      <path class="cls-1" d="M367.995,1285.743c0,2.191,0,4.381-.547,7.121,0,6.572-1.095,10.405-1.644,16.978-1.094,40.53,0,63.532-1.642,104.062,0,7.119-2.191,10.954-2.739,18.073v1.095c0,6.572,1.644,10.405,1.644,17.526,0,4.93-1.095,8.215-1.644,13.144v16.978c0,3.288,0,7.121-.547,11.502,0,6.572-1.095,9.858-2.191,16.431,0,2.738-.547,4.928-1.095,7.668-1.095,11.502-1.642,18.074-3.833,29.575-1.097,8.763-1.097,14.24-4.93,22.454-1.095,3.288-3.833,3.835-7.668,4.381-2.738,0-3.835-2.191-6.025-2.191h-1.094c-3.835,1.097-4.381,4.381-8.763,4.381h-.548c-5.477,0-6.572-2.191-12.049-3.833-1.644-.548-3.286-.548-4.928-.548h-3.835c-1.644,0-2.738,0-4.928-.547-1.644-.547-2.191-1.644-3.288-2.738-3.833-5.478-7.666-8.216-9.31-14.788v-4.928c0-5.478,1.644-9.86,2.191-16.432.547-3.833,1.095-5.475,1.095-9.31.548-2.738.548-4.928.548-7.668,1.642-11.502,2.191-18.074,3.285-29.575,1.097-7.119,2.191-11.501,2.739-18.621.548-3.833.548-6.024.548-9.858.547-12.598,0-19.17.547-31.766.547-7.121,1.644-11.502,2.191-18.621.547-2.191.547-3.286.547-5.477,1.097-31.219,1.097-53.126,1.644-79.415,0-2.738-.547-4.928-2.738-7.119-1.097.547-2.191.547-3.835,1.095-8.763,16.978-21.361,32.313-31.217,49.292-7.669,12.049-14.788,21.361-23.551,36.147-2.191,4.381-1.644,8.215-4.928,12.596-2.191,3.288-4.381,4.93-8.216,6.572-6.572,2.739-10.954,2.739-18.073,3.835-.548,0-1.644.547-2.739.547-.548,0-1.095,0-1.642-.547-3.835-2.191-4.93-4.928-8.763-7.119-3.288-2.191-6.572-1.097-9.311-4.381-7.121-9.311-9.311-16.432-15.335-26.837-1.642-3.833-2.191-6.024-4.93-9.858-1.094-1.644-1.094-4.381-3.285-4.381h-.548c-2.739.547-3.833,3.286-4.381,6.025-.548,3.285-.548,6.024-.548,9.31,0,14.24-.547,26.836-.547,41.624v19.17c.547,6.572,1.644,9.857,2.191,16.429.547,1.644.547,2.191.547,3.835.548,11.501,2.191,19.717,2.191,28.48,0,4.381-.547,9.31-1.642,14.24-1.095,6.024-5.477,9.311-12.049,10.954-2.738,1.095-6.025,1.095-8.216,1.095-9.31,0-15.882-4.928-29.574-8.763-1.644-.547-2.739-1.095-4.381-2.738-3.288-3.288-6.572-5.478-8.763-9.86-.548-1.642-.548-2.738-.548-3.833v-6.024c-.548-13.693,0-21.907-1.095-35.6,0-6.024-1.095-8.763-1.644-14.787v-11.502c.548-4.93,1.644-8.215,1.644-13.144,1.095-27.931.547-43.815,1.095-71.746.548-8.763,1.642-13.693,2.191-22.456.548-6.024,1.095-8.763,1.095-14.787,1.095-15.335.547-24.647,1.095-39.982.548-7.668,1.095-12.596,1.642-20.265.548-4.381,1.097-7.119,1.097-11.501.547-2.738.547-5.477.547-7.668,0-7.668-.547-14.24-.547-21.359,0-4.93,0-10.407.547-16.979.547-3.835,2.191-6.025,4.381-9.31,3.835-4.381,5.477-7.121,10.407-9.311,2.191-1.095,3.833-1.095,5.475-1.095s3.288,0,4.93.547c6.572,1.097,11.502,1.097,15.884,6.025,8.763,9.858,9.31,18.073,15.882,29.575,4.928,7.668,8.763,11.502,12.598,19.168,3.833,7.121,5.475,11.502,8.215,18.623,4.93,11.501,7.668,18.073,11.502,30.122,4.381,12.049,6.024,18.621,9.31,30.67,1.644,3.833,2.191,6.572,3.286,10.405,2.191,5.478,3.286,9.86,4.93,14.241,1.094,1.094,3.285,2.191,4.381,2.738,3.285-1.644,5.475-3.835,7.119-6.572,10.407-16.431,21.907-32.314,29.575-50.387,5.477-11.501,11.502-22.454,16.978-33.408,6.572-13.144,14.788-25.195,23.004-36.696,3.833-6.025,8.215-11.501,12.596-16.979,5.477-3.833,10.954-6.572,16.431-6.572,3.835,0,7.668,1.097,11.501,3.288,3.835,2.191,8.216,2.191,12.598,2.738,3.835,2.738,6.025,6.025,7.668,10.407,5.477,12.596,8.763,19.717,11.502,33.408,1.094,4.381,1.642,8.763,1.642,12.049,0,3.833-.548,7.668-.548,11.502v5.475c.548,7.121,1.644,11.502,1.644,18.623.547,2.738.547,4.928.547,7.666Z"/>
      <path class="cls-1" d="M644.57,1537.132c-.548,6.572-3.288,10.407-9.86,15.335-2.738,2.738-6.024,3.286-9.31,3.286h-2.738c-3.288,0-4.381-.548-6.572-.548-.548,0-3.288.548-3.835,0-2.738-.547-2.191-2.191-4.928-2.738-2.739-.547-3.835-2.738-5.478-4.928-6.024-8.763-8.215-12.051-11.501-21.361-2.738-5.477-1.644-9.858-3.286-15.882-.548-4.381-1.095-6.572-2.191-10.954-1.642-7.669-2.739-12.598-4.381-20.265-1.642-10.405-3.833-18.074-4.93-27.384-.547-4.381-1.642-8.763-2.738-12.598-14.788,2.739-59.697,2.739-61.888,10.954-1.644,6.025-2.191,12.051-3.288,19.717-.547,4.93,0,8.216-.547,13.144-.547,9.311-1.644,14.788-3.286,24.098,0,1.644-.548,2.191-.548,3.835v8.216c0,3.285.548,5.475,0,8.763,0,4.928,0,7.666-1.094,12.048-3.288,15.884-12.051,24.647-22.456,24.647-1.642,0-3.286,0-4.93-.548-9.31-2.191-14.787-2.738-23.001-10.405-3.835-3.286-5.478-10.405-6.572-15.335v-3.833c.547-3.835,1.094-5.478,1.094-9.311,1.644-9.311,2.191-14.787,3.288-24.098,1.094-6.024,1.094-8.763,1.642-14.787,1.095-8.763,1.642-13.693,2.191-22.456,1.095-10.954,0-17.526,1.095-28.48,1.095-8.215,2.738-12.596,3.835-20.812.547-3.835.547-5.477.547-9.31v-8.763c.547-3.835.547-5.478.547-9.311,1.097-9.311,2.191-14.787,2.739-24.098.548-2.191.548-3.833.548-6.024,1.642-9.311,2.191-14.788,3.285-24.098.548-2.191.548-3.288.548-5.478,1.095-13.691,1.095-21.359,2.739-34.504,2.738-16.431,7.119-39.433,8.763-58.602.547-2.739.547-4.381.547-7.121,1.095-7.668-.547-12.596,3.286-19.168,6.572-9.86,10.954-16.979,21.907-20.814,7.668-2.738,10.405-4.381,13.693-4.381,2.738,0,6.024,1.644,12.048,3.835,14.241,5.477,18.623,14.788,28.48,26.289,3.288,3.286,2.739,7.668,4.381,10.954,9.86,19.17,14.788,36.147,23.004,59.697,4.381,10.954,6.572,16.979,9.31,28.48,3.286,10.407,4.381,16.979,6.572,27.386,2.191,7.119,3.286,10.954,4.928,18.073,4.381,15.335,7.121,26.836,10.407,39.98,3.835,13.693,6.572,26.837,10.407,40.53,1.642,7.119,2.738,13.144,4.381,21.907,2.738,11.501,4.381,17.526,6.572,29.027,1.094,2.738.547,4.928,1.094,7.668,1.644,6.572,3.288,9.858,3.835,16.431.547,3.286.547,6.025,1.095,8.216v8.763c.548,2.738.548,5.475.548,7.119ZM553.106,1366.253c-3.286-9.31-7.119-30.124-11.501-44.91-4.93-15.335-8.216-32.313-12.051-32.313-2.191,0-3.285,8.763-3.833,10.954-1.642,15.335-8.215,64.626-8.215,80.509,0,2.739.547,4.93.547,7.121,1.095,1.094,2.191,2.738,3.286,2.738,5.477,1.095,27.931,2.191,40.529,4.381-2.738-9.858-5.477-19.17-8.763-28.48Z"/>
      <path class="cls-1" d="M930.454,1281.909c0,8.215-1.095,15.335-4.381,24.098-6.572,18.074-11.502,27.384-20.265,44.363-5.475,10.405-9.857,17.526-15.335,25.741-4.928,7.121-8.215,14.24-11.501,21.907-9.31,23.55-20.264,47.101-31.766,70.104-4.93,9.858-8.763,19.717-15.335,27.931-8.763,16.979-16.978,30.124-29.028,48.745-2.738,4.381-3.833,8.763-8.763,10.954-2.191,1.095-4.381,1.642-6.572,1.642s-4.928-.547-7.666-.547h-4.381c-3.835-2.191-5.478-4.928-9.311-6.572-6.572-2.738-11.502-2.191-18.074-5.477-1.642-1.095-3.833-3.286-6.024-4.93-7.121-3.833-14.24-4.381-20.812-10.405-5.477-5.477-7.119-9.858-8.763-17.526-.547-2.739-1.095-5.477-1.095-7.668,0-4.928,1.095-8.763,1.095-14.788,0-8.763,0-13.691.547-22.454.548-6.025,1.097-8.763,1.644-14.788v-1.094c0-2.191-.547-3.835-.547-6.572v-48.196c0-2.739.547-3.835.547-6.572v-.548c-.547-6.024-1.644-9.311-1.644-15.335v-38.885c.548-15.884,1.097-25.195,1.644-41.077.547-6.572.547-10.407,1.095-16.979,1.095-10.405,1.642-15.882,2.739-26.289.547-2.738,1.094-4.381,1.094-7.666v-16.979c1.097-8.763,2.739-15.882,4.381-22.454,6.025-4.381,10.954-6.025,16.979-6.572,4.928,0,9.858,0,14.788-2.191,2.191-1.097,4.928-.548,7.119-1.097,9.31-.547,17.526-2.738,28.48-2.738h2.191c8.763,0,14.24,1.095,23.551,1.644,1.642,0,2.191.547,3.833.547,4.93.547,8.215.547,13.144,1.644,7.121,1.642,10.405,4.381,17.526,5.475,2.191.548,3.833.548,5.477.548h5.477c2.191,0,4.381,0,6.572.548,13.144,3.285,23.003,5.475,32.861,12.048,7.668,4.93,13.693,11.502,17.526,19.717,2.191,6.025,4.93,12.598,7.121,19.17,1.642,4.381,2.738,8.216,3.833,12.598v16.978ZM872.946,1256.169c0-.548,0-1.097-.547-1.644-1.095-2.191-2.738-4.381-5.477-4.381-6.572,0-12.596-1.644-18.074-4.381-7.119-2.738-15.335-2.738-21.907-5.477-2.191-1.095-4.928-1.095-7.666-1.095-5.478-.547-11.502-.547-16.979-.547-9.31,0-18.621.547-26.836,1.094-3.835,1.644-5.478,3.288-6.025,6.025-.547,1.644-.547,3.286-.547,5.477-.548,28.48-.548,52.03-1.097,84.891,0,6.572-.547,10.407-1.094,16.979v5.477c.547,4.381,1.094,6.572,1.642,10.954v7.668c.548,6.572.548,13.144.548,19.17,0,11.501,0,21.907,2.738,33.408.547,3.286.547,6.572.547,9.858v13.144c0,1.642,1.097,3.286,1.644,4.93,1.644,0,2.738,0,3.835.547,3.285-2.191,4.928-6.025,6.572-9.31,12.048-23.551,24.098-47.103,36.146-70.652,6.572-14.24,14.241-27.931,21.907-41.624,3.288-6.024,7.121-12.049,9.311-18.621,1.642-5.477,3.833-10.407,6.572-15.335,4.93-8.216,8.763-16.979,9.858-26.289,0-1.644.547-2.738,1.095-3.835,2.739-4.381,1.642-9.857,3.286-14.238.547-1.097.547-1.644.547-2.191Z"/>
      <path class="cls-1" d="M1055.316,1337.227c1.644,3.833,2.738,8.215,2.738,12.596s-1.094,8.763-2.191,13.144c-2.191,6.572-1.642,12.596-2.738,20.265-.547,4.928-.547,8.215-1.644,13.144-.547,4.381-1.094,6.572-1.642,10.954-.548,6.024-1.095,8.763-2.191,14.787,0,1.095-.548,1.095-.548,2.191-.547,8.763-1.094,13.693-2.191,22.456-.547,8.763-2.191,13.691-2.738,22.454v82.702c0,2.191.547,3.833.547,6.024,0,.548,0,1.642-.547,2.739-1.644,6.024-2.191,10.954-7.668,14.238-2.191,1.644-4.93,2.191-7.121,2.191-3.285,0-6.024-1.094-9.857-2.191-4.381-1.642-4.381-6.024-8.763-8.763-1.097-.547-1.644-.547-2.739-.547h-2.191c-1.095,0-1.642,0-2.739-.547-3.833-1.644-6.572-2.191-9.857-4.93-2.191-2.191-3.288-4.381-3.835-7.668-1.644-8.216-1.095-13.144-1.644-21.361v-21.359c0-12.049,0-22.456.548-37.243.548-8.215,1.642-12.596,2.191-20.265.548-3.833,1.095-5.475,1.095-9.31,1.644-11.501,2.191-18.621,3.286-30.124.548-3.833.548-5.475.548-9.31,1.094-6.025,1.642-8.763,2.191-14.788.547-2.738.547-4.381,1.094-7.119,1.097-6.025,1.097-10.407,2.739-14.788,1.095-1.642,1.095-3.833,1.095-6.024,2.191-17.526,6.025-35.052,10.954-53.126,2.738-9.31,7.119-14.787,12.049-24.098.548-1.094,1.095-1.642,2.191-1.642h1.642c3.288,0,6.572-.548,9.86-.548,3.833,0,7.119.548,10.954,2.739,4.928,2.191,4.381,7.121,5.475,12.049.548,2.191,1.097,4.381,1.097,6.025,0,2.191-.548,4.381-.548,6.572,0,6.024-.548,11.501-.548,16.978,0,3.833,0,7.668,1.644,11.502ZM1078.319,1213.996c0,1.095,0,2.739-.548,3.833-3.285,8.216-12.048,8.763-21.359,10.954-1.642,0-2.739.548-4.381.548-3.833,0-7.121-1.095-10.954-3.286-6.572-2.191-10.954-4.381-15.335-9.858-1.095-1.642-1.095-3.286-1.095-4.381,0-2.191.547-4.381,2.191-6.024,5.477-7.669,10.954-12.598,18.073-15.884,1.644-1.642,4.381-2.191,6.572-2.191,1.097,0,2.739,0,3.288.548,6.024,3.285,10.405,3.833,15.335,9.857,3.285,4.381,8.215,10.407,8.215,15.884Z"/>
      <path class="cls-1" d="M1308.89,1355.3v1.095c0,3.833-1.644,6.024-2.191,9.858v2.191c-2.191,9.858-3.288,16.979-6.025,25.194-2.738,8.215-5.477,16.431-7.668,25.194-2.191,8.216-5.477,14.788-8.763,24.098-1.642,5.477-3.286,8.216-4.381,13.691-3.286,10.954-4.381,16.979-7.121,28.48-2.191,9.311-3.285,14.241-5.475,23.551,0,1.644-.548,2.191-1.097,3.835-6.024,13.144-7.666,23.55-15.335,33.955-1.094,1.644-1.642,3.288-3.285,4.93,0,.548-.548.548-1.644.548h-.547c-7.669-1.097-14.788-3.288-20.265-3.288-4.381,0-7.668-1.642-10.954-2.738-5.477-2.191-10.954-4.928-13.144-11.501-.548-2.739-1.095-4.93-1.095-6.572,0-5.478,2.191-9.86,2.738-16.432,1.644-8.763,3.835-13.691,6.025-23.001.547-2.191.547-3.835,1.095-6.025,6.572-19.717,10.405-30.67,17.526-50.387,2.739-8.216,5.477-14.24,7.668-20.812,2.191-7.121,1.644-6.572,3.835-13.144.547-1.642,1.094-2.739,1.094-3.833,0-1.644-.547-3.288-.547-4.381-.547-1.644-1.644-3.835-2.738-5.478-7.669-1.094-14.241-.547-21.907-1.094h-6.025c-4.381,0-8.216,0-12.049-1.644-1.095-.547-2.191-1.095-3.833-1.095-4.381-.548-8.763-.548-13.693-1.095-1.642,0-2.739-1.095-3.833-1.095-10.407-3.833-20.814-11.502-30.124-16.978-6.572-3.288-9.31-7.121-13.144-13.144-3.286-5.478-4.381-9.311-4.928-15.335v-1.097c0-4.928,2.191-8.763,2.191-13.144.547-4.928.547-9.31,2.191-14.238,1.094-6.572,2.738-13.693,4.928-20.814,3.286-9.857,7.668-19.717,11.501-30.122,1.097-2.739,2.739-6.024,4.381-8.763,4.381-6.572,9.311-13.144,13.693-19.717,8.763-13.693,26.837-18.621,41.624-28.48,1.642-1.095,3.833-1.642,5.477-1.642s2.738.547,4.381.547c3.835,1.095,6.025,3.286,8.763,6.025,1.644,1.642,2.191,2.738,2.191,5.475v2.191c0,3.288-.547,5.478-1.095,9.311-1.095,4.93-1.642,7.668-3.833,12.049-4.93,8.216-9.311,12.049-13.693,19.17-3.833,7.666-8.763,14.787-10.405,23.001-1.644,7.121-4.381,13.144-6.572,19.17-1.644,5.477-3.288,10.407-4.381,15.335-1.097,3.835-3.288,7.119-3.288,10.954,0,1.095,0,2.191.548,3.286,1.095,3.833,5.477,4.381,9.311,6.024,1.642.548,3.833.548,6.024.548,8.763,0,15.335-2.739,25.194-4.93,8.763-2.738,18.073-3.833,26.836-3.833,9.86,0,20.265,1.642,30.67,6.024,8.216,3.288,15.884,8.216,20.265,15.884,3.286,4.93,4.381,8.215,4.93,14.24Z"/>
      <path class="cls-1" d="M1546.031,1340.511v3.288c0,2.738,0,5.475-.548,8.763,0,1.094-.547,2.191-.547,3.285,0,2.191.547,4.381.547,6.572v1.097c-.547,10.405-.547,16.429-1.094,26.836-1.097,17.526-2.191,27.384-3.288,44.91,0,2.191-.547,3.286-.547,5.477-1.644,8.763-2.191,13.691-3.835,22.454-2.191,12.051-2.738,19.717-6.572,31.219-3.285,8.763-5.475,15.335-11.501,21.359-3.286,2.739-6.025,6.025-8.216,9.86-1.094,1.642-2.191,3.285-3.833,4.381-3.833,2.191-6.572,5.475-9.311,9.31-2.738,3.835-6.572,6.025-11.501,9.31-8.763,6.025-9.31,7.669-19.17,11.502-2.191,1.095-7.119,1.642-12.596,1.642h-4.381c-7.668-.547-12.049-.547-19.717-3.285-10.954-3.835-20.812-4.381-27.384-13.144-1.095-1.097-8.216-7.121-8.216-8.216-1.094-7.119-3.285-12.598-4.928-20.264-1.644-7.121-2.191-10.954-3.835-18.074-1.642-7.121-1.642-11.502-3.285-18.621-1.097-6.025-2.191-8.763-3.288-14.788-1.094-6.024-.547-9.31-1.094-15.335-1.097-20.811-2.191-33.408-2.191-53.125v-4.928c0-18.623,1.642-29.028,3.285-47.103.548-3.833,1.097-5.475,1.644-9.31.547-2.738.547-4.381,1.095-7.119,2.739-13.144,4.381-20.265,7.121-33.41,1.642-6.572,2.738-9.858,4.381-16.431,1.642-5.477,2.191-9.31,3.833-14.24,7.121-21.907,18.074-39.433,27.931-53.126,1.644-1.642,3.288-3.833,4.93-5.475,1.642-2.191,2.739-4.381,4.381-6.025,17.526-13.144,14.24-14.24,25.741-15.335h1.644c9.31,0,27.933,6.025,32.861,11.501,2.738,3.288,5.477,7.121,9.31,9.311,3.288,1.642,7.121,2.191,10.407,3.833,3.286,2.191,6.572,4.381,7.668,8.216,1.642,8.216,6.024,15.335,9.311,22.454,2.738,6.025,5.475,11.502,7.666,17.526,1.097,3.835,2.191,7.121,2.191,10.954,1.097,9.86,3.288,18.074,4.381,30.124v27.933c.548,6.024.548,8.215.548,14.238ZM1479.213,1254.525c-3.835-6.025-7.119-8.216-13.691-8.216h-.548c-2.191,0-8.763,6.572-9.311,8.763-3.285,10.954-7.666,22.456-8.763,27.933-3.833,14.788-5.475,23.551-8.763,38.338-2.191,8.763-.547,16.978-2.191,25.194-1.094,9.858-.547,12.049-1.094,21.361v13.144c-.548,6.572-2.191,10.405-2.191,16.978v7.668c0,11.501.547,20.264,1.094,33.408,0,3.288.548,4.93,1.097,7.669,1.642,13.144,1.642,21.359,4.381,37.243.547,3.833,1.642,14.238,13.691,14.238h1.095c4.381,0,13.693-6.572,15.335-11.501,2.191-7.668,4.381-15.335,5.477-20.264,1.095-7.121,2.191-12.598,3.835-20.265,2.191-12.596,2.738-19.168,4.928-31.766,0-1.644,0-2.191.547-3.835,1.097-7.666,2.191-12.048,2.739-20.264.548-10.407.548-15.882,1.095-26.289,0-2.738,0-4.928.547-7.668.548-7.121,1.097-11.502,1.644-18.621.547-12.049,1.644-21.907,1.644-32.861,0-4.381,0-9.31-.548-14.24-1.095-8.763-4.381-24.098-12.049-36.147Z"/>
      <path class="cls-1" d="M1905.849,1200.303c0,1.644,0,3.835-.548,5.478-4.928,7.666-3.833,15.882-6.024,25.741-.548,4.381-.548,6.572-1.095,10.954-.547,4.93,0,8.215-1.095,13.144-1.095,8.763-2.191,13.144-4.381,21.907-.548,3.286-1.642,4.381-2.191,7.668-1.095,7.119-1.642,10.954-2.739,18.073-.547,4.93-.547,8.216-1.094,13.144-1.097,9.86-1.644,14.788-2.739,24.647-.548,4.93-.548,8.215-1.095,13.144-.547,3.833-1.095,5.477-1.644,9.311-1.094,7.119-1.642,10.954-2.738,18.073-1.095,8.216-1.095,12.598-2.191,20.812-.547,4.381-.547,6.572-1.095,10.954-1.095,7.121-1.642,11.502-2.739,18.621-.547,3.835-.547,5.477-.547,9.31,0,7.669,0,11.502-.547,19.17,0,4.381-.548,6.572-1.644,10.954-3.286,13.691-6.025,23.003-8.763,34.505,0,9.31-4.928,17.526-4.928,26.289v1.642c-1.644,6.024-3.288,12.049-4.93,18.074-1.095,4.381-1.642,8.763-2.739,12.596-.547,5.477-4.381,8.215-9.31,8.215h-1.644c-1.642-.547-3.285-1.094-5.475-2.191-2.191.548-3.835,2.739-5.478,4.381-1.094,1.644-2.738,2.739-3.833,3.835-1.642,1.095-3.286,1.644-5.477,1.644h-1.644c-4.928-1.644-9.857-3.288-15.335-5.478-3.833-3.285-8.763-7.666-12.048-11.501-8.216-13.144-12.598-26.836-18.074-40.529-5.477-12.596-10.405-25.741-14.787-38.885-4.381-12.051-9.311-24.098-14.241-36.696-6.024-16.979-12.048-33.957-16.978-51.483-3.833-15.335-8.763-30.122-11.502-45.457-3.285-7.121-3.833-14.788-8.763-21.361-2.738,0-4.381,1.644-4.928,3.835-.547,2.191-1.095,3.833-1.095,6.024-1.095,7.121-2.191,13.144-3.286,21.907-.547,2.739,0,4.93-.547,7.668-1.097,8.763-1.644,13.691-2.739,22.454,0,2.739-.548,4.93-.548,7.669,0,7.119,0,11.501-.547,18.62-.547,9.311-2.191,14.788-3.286,24.098-.548,9.311-.548,14.788-1.095,24.647,0,1.642-.547,2.191-1.095,3.833-1.095,6.572-1.095,9.86-2.191,16.432-.548,4.381-1.095,7.119-2.191,11.501,0,1.095-1.095,2.191-1.095,3.286-1.644,15.884-2.191,25.194-4.381,41.076-1.095,9.311-.547,15.335-4.928,23.004-1.644,1.642-3.835,3.285-6.572,5.475-1.644,3.288-3.288,6.572-4.93,9.311-4.381,3.833-8.763,6.572-13.693,7.121-4.928-.548-9.31-2.739-13.144-6.572-4.928-7.121-5.475-15.335-8.215-23.004-1.095-2.738-1.095-5.475-1.095-8.763v-15.335c0-6.024,0-10.405.547-17.526.548-4.928,1.644-7.666,2.191-12.596.548-4.93.548-8.215,1.097-13.144,1.094-8.763,1.642-13.693,2.738-22.456.547-3.833,1.095-5.475,1.095-9.31.548-3.835.548-5.477.548-9.31,1.094-10.407,1.642-15.884,2.738-26.289,2.191-15.884,3.286-25.195,5.477-41.077,1.095-6.025,1.642-8.763,2.191-14.788.548-7.666.548-11.501,1.095-19.168.547-6.572,1.644-9.858,2.738-16.431,1.097-6.025,2.191-8.763,2.739-14.788.548-4.381.548-6.572,1.095-10.954,1.095-8.763,1.644-13.691,2.738-22.454.548-2.738.548-4.928.548-7.668.548-19.717.548-31.219.548-50.936,0-3.833-1.097-7.119-1.097-10.405,0-1.642.548-3.286,1.097-4.93,3.285-7.119,9.31-10.954,14.238-13.691,2.191-1.095,4.381-1.095,7.121-1.095,3.286,0,7.121.548,10.405,1.095,4.93.547,9.86,2.738,14.788,3.835,1.644,2.738,3.835,4.928,5.477,7.666,1.642,2.739,3.286,5.478,4.93,7.669,1.094,1.642,2.191,3.285,3.285,4.928,14.241,18.621,24.647,39.433,35.052,60.246,2.739,6.024,5.478,12.596,7.669,19.168,7.119,18.074,13.691,36.149,20.264,54.769,4.381,14.241,7.668,29.028,12.598,43.268,1.094,4.381,2.191,8.763,3.833,12.598,1.642,4.381,3.286,9.31,4.381,14.238,1.642,7.121,4.93,14.241,9.311,20.265,2.191,0,4.381-.548,4.928-2.739.547-3.285.547-6.024,1.095-9.31,0-3.835,0-7.668,1.642-11.501.548-2.739,1.097-5.478,1.097-8.763.547-5.478.547-8.216.547-13.693.547-9.311.547-14.787,1.644-24.098,1.094-8.763,3.285-13.693,4.381-22.456,1.094-4.928,1.094-7.666,1.094-12.596.548-7.668.548-11.502,1.097-19.168,1.094-9.86,2.191-15.884,3.285-25.742.548-4.381,1.097-7.119,1.644-11.501.547-4.93,1.095-7.669,1.644-12.598,1.094-6.572,2.191-10.407,3.285-16.979.548-2.191.548-3.285.548-5.475,1.642-11.502,3.286-19.717,3.833-30.124.548-4.928,3.835-9.31,3.835-14.24,0-4.381.547-8.763.547-13.144,2.739-4.93,4.381-9.311,7.121-13.693,6.024-10.405,15.884-15.335,27.931-15.882,4.93,0,9.86,1.095,14.241,1.095,8.215,4.381,11.501,10.954,14.787,18.621v20.264Z"/>
    </g>
  </g>
  <g>
    <path class="cls-1" d="M1140.985,197.232c22.374-3.954,43.083-12.518,59.981-26.517,8.491-7.034,7.095-19.238-.417-25.566-8.334-7.021-19.5-5.964-27.843,1.09-9.025,7.63-20.072,11.995-31.653,14.805-35.203,8.543-75.653,1.068-102.663-22.307-11.494-9.948-20.266-22.392-23.48-36.811-1.701-7.631-5.813-13.636-13.383-15.904-7.373-2.208-15.419-.807-20.786,4.761-4.866,5.048-5.697,11.579-3.984,18.17,17.223,66.251,94.773,100.554,164.228,88.279Z"/>
    <path class="cls-1" d="M1144.026,119.083c7.73-6.522,8.937-16.731,3.554-24.968-13.91-21.284-62.732-31.561-86.576-16.503-8.645,5.459-11.961,15.472-7.592,24.386,12.329,25.156,68.571,35.684,90.615,17.086Z"/>
    <path class="cls-1" d="M1324.474,290.441c-1.538-7.934-4.185-15.247-8.538-21.932-5.009-7.694-14.101-14.781-23.426-14.909-.048,0-.096-.004-.144-.004-.063,0-.125.002-.188.003-.93.004-1.861.053-2.792.203-.356.058-.703.136-1.045.229-4.744.929-8.933,3.371-12.49,7.036-15.62,16.091-34.36,28.17-55.671,36.879-56.771,23.198-127.631,24.828-187.545,12.386-6.789-1.41-13.066-1.009-18.653,2.704-5.703,3.79-8.606,10.736-5.962,16.943,2.398,5.629,7.504,9.195,13.959,10.778,56.527,13.869,115.967,14.496,172.755,1.11,34.546-8.144,68.564-23.094,95.268-45.717.024-.02.065-.062.093-.088,4.019,18.687,3.592,38.935-.767,56.713-1.248,2.961-3.185,4.056-6.519,3.647l-18.273-2.243c-14.784-1.149-28.677,4.616-38.276,15.674l-9.164,10.557c-2.016,2.322-4.647,3.43-7.822,2.884l-15.187-2.613c-12.116-2.084-23.81,1.193-33.314,8.804l-8.718,6.981c-1.107.887-4.271-.103-5.377-.678l-12.901-6.705c-9.678-5.03-20.441-5.607-30.789-2.125l-16.943,7.808-12.677-8.174c-6.624-4.271-13.635-7.307-21.455-8.456-16.821-2.473-32.291,5.992-39.088,21.584-6.137,14.079-7.948,29.136-6.658,44.648,1.196,14.376,3.316,28.035,6.759,42.035l10.898,44.316c5.868,23.861,10.735,47.186,14.961,71.429,3.552,20.381,6.099,40.354,5.678,60.969-.212,10.386-1.982,20.116-6.881,29.185-5.96,11.032-16.089,19.608-28.538,22.032-18.028,3.511-42.769-9.179-57.657-20.359-12.706-9.541-21.313-22.323-25.916-37.621-5.599-18.608-7.644-37.491-7.297-57.205.637-36.213,4-71.945,10.923-107.53,5.53-28.424,12.799-55.866,20.138-83.807,1.334-9.947,1.667-19.465,1.9-29.522-1.391-10.771-11.46-18.59-22.08-20.129-6.307-.914-12.443.232-18.825.986l-10.606,1.253-7.006-8.911c-12.594-16.018-36.051-18.6-51.833-7.106l-13.237,9.64c-2.357,1.716-5.622,2.604-8.647,2.052l-8.834-15.335c-5.622-9.76-14.693-16.126-25.99-17.277-5.285-.538-10.629-.852-16.045-.377l-33.025,2.896c-4.726.414-10.423.754-14.676-1.598-9.27-5.127-13.919-15.62-13.149-26.077.781-10.602,3.265-20.507,8.187-29.993,20.628-39.754,51.234-68.445,88.104-93.281,19.559-13.176,39.777-24.027,61.523-33.034,8.085-3.349,15.83-6.516,23.869-9.367,2.27,5.377,5.919,13.073,6.386,14.123,11.807,26.555,29.601,49.691,52.135,69.128,45.139,38.937,104.596,60.001,166.107,58.812,35.035-.677,69.04-8.466,99.766-24.101,12.671-6.448,24.133-13.652,34.367-22.956,7.157-6.507,7.13-16.856.764-23.529-5.397-5.657-16.869-9.022-24.466-3.083-18.27,14.281-38.372,25.42-61.892,31.621-88.854,23.423-186.78-13.688-228.447-91.072-5.653-10.499-9.914-20.481-14.58-31.488-.097-.229-.208-.451-.318-.673-1-2.428-2.121-4.75-3.706-6.259-10.403-9.903-18.522-10.012-31.899-5.327-21.592,7.562-42.413,16.105-62.758,26.751-33.731,17.651-69.391,43.14-95.428,70.928-16.092,17.174-29.75,36.179-40.516,57.098-7.557,14.685-11.554,30.546-12.002,46.885-.38,13.835,3.544,26.315,11.415,37.378,13.327,18.731,30.681,25.929,53.772,23.813l30.502-2.794,11.91.11c3.677,6.977,7.128,13.306,11.709,19.527,12.417,16.861,38.553,17.448,55.911,4.818l12.873-9.366c2.103-1.531,4.369-.828,5.801,1.048l6.33,8.29c11.822,14.246,27.054,14.372,44.629,10.829-8.157,30.298-16.167,60.644-22.242,91.767-7.578,38.824-11.232,77.903-11.573,117.415-.187,21.592,2.411,42.408,8.4,62.836,6.583,22.455,19.186,41.585,37.662,55.809,12.26,9.438,25.506,16.736,39.991,22.219,24.646,9.328,49.157,9.51,71.508-4.961,24.909-16.128,37.421-42.9,38.168-72.376.445-17.57-.157-34.643-3.295-51.992l-10.106-55.865-16.887-70.546c-3.733-15.595-6.808-30.692-8.046-46.528-.767-9.812.223-19.136,4.266-28.235,3.44-.25,6.44,1.262,9.369,3.039l18.535,11.246c8.308,4.006,17.514,4.167,25.758.163l13.669-6.639c2.818-1.369,5.574-.769,8.209.748,6.199,3.569,12.268,6.85,19.127,8.859,12.042,3.528,24.515,1.373,34.162-6.535l8.057-6.605c2.097-1.719,4.837-2.316,7.639-1.826l14.036,2.452c13.762,2.405,27.231-1.784,37.102-11.659l10.919-12.48c3.133-3.58,6.854-5.131,11.678-4.546l18.256,2.216c21.135,2.565,38.631-13.687,42.741-34.946,4.309-22.285,4.469-43.386.138-65.728Z"/>
  </g>
</svg>