<?xml version="1.0" encoding="UTF-8"?>
<svg id="Layer_1" data-name="Layer 1" xmlns="http://www.w3.org/2000/svg" viewBox="0 0 2000 906.048">
  <defs>
    <style>
      .cls-1 {
        fill: #386641;
      }
    </style>
  </defs>
  <g>
    <path class="cls-1" d="M212.328,151.606c0,6.115-.815,11.416-3.262,17.939-4.893,13.455-8.561,20.386-15.085,33.025-4.078,7.746-7.34,13.047-11.416,19.162-3.67,5.301-6.116,10.6-8.562,16.308-6.932,17.531-15.086,35.063-23.647,52.187-3.669,7.339-6.523,14.678-11.416,20.793-6.523,12.64-12.64,22.425-21.608,36.287-2.039,3.262-2.855,6.523-6.523,8.154-1.631.815-3.262,1.223-4.893,1.223s-3.67-.407-5.709-.407h-3.262c-2.853-1.631-4.076-3.669-6.931-4.893-4.893-2.038-8.561-1.631-13.454-4.077-1.224-.815-2.855-2.446-4.485-3.67-5.3-2.853-10.6-3.262-15.493-7.746-4.077-4.077-5.301-7.339-6.523-13.047-.408-2.039-.815-4.077-.815-5.708,0-3.669.815-6.523.815-11.009,0-6.523,0-10.192.408-16.716.407-4.485.814-6.523,1.223-11.009v-.814c0-1.631-.408-2.855-.408-4.893v-35.879c0-2.039.408-2.855.408-4.893v-.408c-.408-4.484-1.223-6.932-1.223-11.416v-28.947c.407-11.824.814-18.756,1.223-30.579.408-4.893.408-7.747.815-12.64.815-7.746,1.224-11.823,2.038-19.57.408-2.038.817-3.262.817-5.707v-12.64c.814-6.523,2.038-11.823,3.262-16.716,4.484-3.262,8.154-4.485,12.638-4.893,3.67,0,7.339,0,11.008-1.631,1.631-.817,3.67-.408,5.301-.817,6.932-.407,13.047-2.038,21.201-2.038h1.631c6.523,0,10.6.815,17.531,1.224,1.224,0,1.631.407,2.855.407,3.669.407,6.116.407,9.785,1.224,5.3,1.223,7.747,3.262,13.047,4.076,1.631.408,2.855.408,4.077.408h4.077c1.631,0,3.262,0,4.893.408,9.785,2.445,17.124,4.076,24.463,8.969,5.708,3.67,10.192,8.562,13.047,14.678,1.631,4.485,3.669,9.378,5.3,14.27,1.224,3.262,2.039,6.116,2.855,9.378v12.638ZM169.519,132.444c0-.408,0-.817-.408-1.224-.815-1.631-2.039-3.262-4.077-3.262-4.893,0-9.378-1.224-13.454-3.262-5.301-2.038-11.416-2.038-16.308-4.077-1.631-.815-3.67-.815-5.709-.815-4.076-.407-8.561-.407-12.638-.407-6.932,0-13.862.407-19.978.814-2.853,1.224-4.076,2.447-4.484,4.485-.408,1.224-.408,2.446-.408,4.077-.407,21.201-.407,38.732-.814,63.195,0,4.893-.408,7.747-.817,12.64v4.077c.408,3.262.817,4.893,1.224,8.154v5.708c.407,4.893.407,9.785.407,14.27,0,8.561,0,16.308,2.039,24.87.408,2.446.408,4.893.408,7.339v9.785c0,1.223.814,2.446,1.223,3.67,1.223,0,2.039,0,2.853.407,2.447-1.631,3.67-4.485,4.893-6.931,8.971-17.532,17.939-35.064,26.91-52.595,4.893-10.6,10.599-20.793,16.308-30.986,2.445-4.484,5.3-8.97,6.931-13.862,1.224-4.077,2.855-7.747,4.893-11.416,3.669-6.116,6.523-12.64,7.339-19.57,0-1.224.408-2.038.815-2.855,2.038-3.262,1.224-7.338,2.446-10.599.408-.817.408-1.224.408-1.631Z"/>
    <path class="cls-1" d="M305.278,192.785c1.223,2.853,2.039,6.115,2.039,9.377s-.817,6.523-1.631,9.785c-1.631,4.893-1.224,9.377-2.039,15.086-.408,3.669-.408,6.115-1.223,9.785-.408,3.262-.817,4.893-1.224,8.154-.407,4.484-.815,6.523-1.631,11.008,0,.815-.407.815-.407,1.631-.408,6.523-.817,10.193-1.631,16.717-.408,6.523-1.631,10.192-2.039,16.716v61.565c0,1.631.408,2.853.408,4.484,0,.408,0,1.223-.408,2.039-1.223,4.484-1.631,8.154-5.708,10.599-1.631,1.224-3.669,1.631-5.3,1.631-2.447,0-4.485-.814-7.34-1.631-3.262-1.223-3.262-4.484-6.523-6.523-.814-.407-1.223-.407-2.038-.407h-1.631c-.815,0-1.224,0-2.038-.407-2.855-1.224-4.893-1.631-7.34-3.67-1.631-1.631-2.445-3.262-2.853-5.708-1.223-6.116-.815-9.785-1.223-15.901v-15.9c0-8.97,0-16.717.407-27.724.407-6.115,1.224-9.377,1.631-15.086.407-2.853.815-4.076.815-6.931,1.223-8.561,1.631-13.862,2.446-22.425.407-2.853.407-4.076.407-6.931.817-4.485,1.224-6.523,1.631-11.009.408-2.038.408-3.262.817-5.3.814-4.485.814-7.747,2.038-11.009.815-1.223.815-2.853.815-4.484,1.631-13.047,4.484-26.093,8.154-39.548,2.039-6.931,5.301-11.008,8.97-17.939.407-.814.815-1.223,1.631-1.223h1.224c2.445,0,4.893-.408,7.338-.408,2.855,0,5.301.408,8.154,2.039,3.67,1.631,3.262,5.301,4.078,8.97.407,1.631.814,3.262.814,4.485,0,1.631-.407,3.262-.407,4.893,0,4.484-.407,8.561-.407,12.638,0,2.853,0,5.708,1.223,8.562ZM322.402,101.049c0,.815,0,2.039-.407,2.853-2.447,6.116-8.971,6.523-15.901,8.154-1.224,0-2.038.408-3.262.408-2.855,0-5.3-.815-8.154-2.446-4.893-1.631-8.154-3.262-11.416-7.339-.815-1.223-.815-2.446-.815-3.262,0-1.631.408-3.262,1.631-4.484,4.077-5.709,8.154-9.378,13.455-11.824,1.223-1.223,3.262-1.631,4.893-1.631.814,0,2.038,0,2.445.408,4.485,2.445,7.747,2.853,11.416,7.338,2.447,3.262,6.116,7.747,6.116,11.824Z"/>
    <path class="cls-1" d="M494.043,206.239v.815c0,2.853-1.223,4.484-1.631,7.339v1.631c-1.631,7.339-2.445,12.64-4.484,18.755-2.039,6.115-4.077,12.231-5.708,18.755-1.631,6.116-4.077,11.009-6.523,17.939-1.224,4.077-2.446,6.116-3.262,10.192-2.446,8.154-3.262,12.64-5.3,21.201-1.631,6.932-2.447,10.602-4.078,17.532,0,1.224-.407,1.631-.814,2.855-4.485,9.785-5.709,17.531-11.416,25.277-.817,1.224-1.224,2.447-2.447,3.67,0,.408-.407.408-1.223.408h-.408c-5.707-.817-11.008-2.447-15.085-2.447-3.262,0-5.708-1.223-8.154-2.038-4.077-1.631-8.154-3.669-9.785-8.561-.407-2.039-.815-3.67-.815-4.893,0-4.078,1.631-7.34,2.039-12.232,1.223-6.523,2.853-10.192,4.484-17.123.408-1.631.408-2.855.815-4.485,4.893-14.678,7.747-22.832,13.047-37.509,2.038-6.116,4.077-10.6,5.708-15.493,1.631-5.301,1.223-4.893,2.853-9.785.408-1.223.817-2.039.817-2.853,0-1.224-.408-2.447-.408-3.262-.408-1.224-1.223-2.855-2.039-4.078-5.707-.814-10.599-.407-16.308-.814h-4.484c-3.262,0-6.115,0-8.97-1.224-.815-.407-1.631-.815-2.855-.815-3.262-.408-6.523-.408-10.192-.815-1.224,0-2.038-.815-2.855-.815-7.746-2.853-15.492-8.562-22.424-12.638-4.893-2.447-6.932-5.301-9.785-9.785-2.446-4.078-3.262-6.932-3.67-11.416v-.817c0-3.669,1.631-6.523,1.631-9.785.408-3.669.408-6.931,1.631-10.599.817-4.893,2.039-10.193,3.67-15.494,2.446-7.338,5.708-14.678,8.562-22.424.814-2.039,2.038-4.484,3.262-6.523,3.262-4.893,6.931-9.785,10.192-14.678,6.523-10.193,19.977-13.862,30.986-21.201,1.224-.815,2.855-1.223,4.077-1.223s2.039.407,3.262.407c2.853.815,4.484,2.446,6.523,4.485,1.223,1.223,1.631,2.038,1.631,4.076v1.631c0,2.447-.408,4.078-.815,6.932-.815,3.67-1.224,5.708-2.855,8.97-3.669,6.116-6.931,8.97-10.192,14.27-2.855,5.707-6.523,11.008-7.747,17.123-1.223,5.301-3.262,9.785-4.893,14.27-1.223,4.077-2.445,7.747-3.262,11.416-.814,2.855-2.445,5.3-2.445,8.154,0,.815,0,1.631.407,2.446.815,2.853,4.077,3.262,6.931,4.484,1.224.408,2.855.408,4.485.408,6.523,0,11.416-2.039,18.755-3.67,6.523-2.038,13.455-2.853,19.978-2.853,7.338,0,15.085,1.223,22.832,4.484,6.115,2.447,11.823,6.116,15.085,11.824,2.446,3.67,3.262,6.115,3.669,10.6Z"/>
    <path class="cls-1" d="M666.093,333.852c0,2.447-1.224,3.67-3.67,7.34-1.223,2.038-7.746,4.484-10.193,4.484-11.008.815-18.754,1.631-27.724,1.631-4.893,0-10.192-.408-16.716-1.223-9.785-1.224-15.085-4.485-23.647-9.785-4.077-2.447-4.893-5.709-7.746-9.378-5.301-6.931-9.378-11.823-13.047-18.346-3.262-6.116-6.523-12.232-9.378-18.756-3.262-6.115-5.708-13.047-6.931-19.57-.817-3.669-2.039-7.338-2.447-11.008-.407-3.67-.814-7.339-2.445-11.008-.408-.817,0-2.039-.408-2.855,0-5.708-.408-10.6-.408-16.308v-4.485c.408-6.115,1.224-9.377,2.039-15.492.408-3.67,1.223-6.116,1.223-9.785,1.224-22.017,11.416-41.588,29.763-60.341,10.6-11.009,13.862-14.678,24.871-21.609,11.416-7.746,22.832-9.785,31.8-14.678.817-.815,1.224-.815,2.447-.815.814,0,1.223,0,2.038.815,4.893,3.262,8.561,4.077,12.231,8.97,2.039,2.038.815,4.485,1.631,7.747.408,2.038,1.223,2.853,2.039,5.3,0,.407.407.815.407,1.224v.407c-.407.815-.407,1.224-.815,2.446-1.223,2.446-1.223,4.077-3.262,6.523-17.124,18.755-35.47,13.862-47.703,38.732-6.115,11.009-11.416,33.025-13.047,50.964v4.893c0,5.301.817,9.785,1.224,16.308.407,2.039.407,3.262.815,5.301,1.631,7.338,1.631,11.823,3.67,19.162,2.038,6.932,4.484,10.193,6.931,16.717.815,1.631.815,2.853,1.631,4.076,4.077,6.116,6.116,10.193,11.416,15.086,2.446,2.039,4.485,2.446,7.747,2.853,7.338.817,9.785,2.039,16.716,3.67,6.523,1.631,11.009.815,17.124,4.077,4.893,2.446,6.523,6.116,9.785,9.378,1.223,3.262,2.039,5.707,2.039,7.338Z"/>
    <path class="cls-1" d="M835.292,195.23v2.447c0,2.038,0,4.076-.407,6.523,0,.814-.408,1.631-.408,2.445,0,1.631.408,3.262.408,4.893v.817c-.408,7.746-.408,12.23-.817,19.977-.814,13.047-1.631,20.386-2.445,33.432,0,1.631-.408,2.446-.408,4.077-1.223,6.523-1.631,10.192-2.853,16.716-1.631,8.971-2.039,14.678-4.893,23.24-2.447,6.523-4.078,11.416-8.562,15.9-2.446,2.039-4.484,4.485-6.115,7.34-.817,1.223-1.631,2.445-2.855,3.262-2.855,1.631-4.893,4.076-6.931,6.931-2.039,2.855-4.893,4.485-8.562,6.931-6.523,4.485-6.932,5.709-14.269,8.562-1.631.815-5.301,1.223-9.378,1.223h-3.262c-5.708-.407-8.97-.407-14.678-2.445-8.154-2.855-15.493-3.262-20.386-9.785-.815-.817-6.115-5.301-6.115-6.116-.817-5.3-2.447-9.378-3.67-15.085-1.223-5.301-1.631-8.154-2.853-13.455-1.224-5.301-1.224-8.562-2.447-13.862-.814-4.485-1.631-6.523-2.445-11.009-.817-4.484-.408-6.931-.817-11.416-.814-15.492-1.631-24.87-1.631-39.547v-3.669c0-13.863,1.224-21.609,2.447-35.064.407-2.853.814-4.076,1.223-6.931.408-2.038.408-3.262.815-5.3,2.038-9.785,3.262-15.086,5.3-24.871,1.224-4.893,2.039-7.339,3.262-12.231,1.224-4.077,1.631-6.931,2.855-10.6,5.3-16.308,13.454-29.355,20.794-39.548,1.223-1.223,2.445-2.853,3.669-4.076,1.224-1.631,2.038-3.262,3.262-4.485,13.047-9.785,10.6-10.6,19.163-11.416h1.223c6.932,0,20.793,4.485,24.463,8.561,2.039,2.447,4.077,5.301,6.932,6.932,2.445,1.223,5.3,1.631,7.746,2.853,2.446,1.631,4.893,3.262,5.708,6.116,1.224,6.116,4.485,11.416,6.931,16.716,2.039,4.485,4.078,8.562,5.709,13.047.814,2.855,1.631,5.301,1.631,8.154.814,7.34,2.445,13.455,3.262,22.425v20.794c.407,4.484.407,6.115.407,10.599ZM785.551,131.22c-2.853-4.485-5.301-6.116-10.193-6.116h-.407c-1.631,0-6.523,4.893-6.931,6.523-2.447,8.154-5.709,16.717-6.523,20.794-2.855,11.009-4.078,17.532-6.523,28.54-1.631,6.523-.408,12.638-1.631,18.755-.817,7.339-.408,8.97-.817,15.901v9.785c-.407,4.893-1.631,7.746-1.631,12.638v5.708c0,8.561.408,15.085.817,24.87,0,2.447.407,3.67.814,5.709,1.224,9.785,1.224,15.9,3.262,27.724.408,2.853,1.224,10.599,10.193,10.599h.815c3.262,0,10.192-4.893,11.416-8.561,1.631-5.708,3.262-11.416,4.077-15.085.815-5.301,1.631-9.378,2.853-15.086,1.631-9.377,2.039-14.269,3.67-23.647,0-1.224,0-1.631.408-2.855.814-5.707,1.631-8.969,2.038-15.085.407-7.747.407-11.823.815-19.57,0-2.038,0-3.669.408-5.708.407-5.301.814-8.562,1.223-13.862.408-8.97,1.223-16.308,1.223-24.463,0-3.262,0-6.931-.407-10.6-.815-6.523-3.262-17.939-8.97-26.909Z"/>
    <path class="cls-1" d="M1103.148,90.856c0,1.224,0,2.855-.407,4.078-3.67,5.707-2.855,11.823-4.485,19.162-.407,3.262-.407,4.893-.815,8.154-.408,3.67,0,6.115-.815,9.785-.815,6.523-1.631,9.785-3.262,16.308-.407,2.446-1.224,3.262-1.631,5.708-.815,5.3-1.224,8.154-2.038,13.454-.408,3.67-.408,6.116-.817,9.785-.814,7.34-1.223,11.009-2.038,18.348-.407,3.67-.407,6.115-.815,9.785-.408,2.853-.815,4.077-1.223,6.932-.817,5.3-1.224,8.154-2.039,13.454-.815,6.116-.815,9.378-1.631,15.493-.408,3.262-.408,4.893-.815,8.154-.815,5.301-1.224,8.562-2.038,13.862-.408,2.855-.408,4.077-.408,6.931,0,5.709,0,8.562-.408,14.27,0,3.262-.407,4.893-1.223,8.154-2.446,10.192-4.484,17.124-6.523,25.686,0,6.931-3.67,13.047-3.67,19.57v1.223c-1.223,4.484-2.445,8.97-3.669,13.455-.815,3.262-1.224,6.523-2.038,9.377-.408,4.077-3.262,6.115-6.932,6.115h-1.223c-1.224-.407-2.447-.814-4.078-1.631-1.631.408-2.853,2.039-4.076,3.262-.817,1.224-2.039,2.039-2.855,2.855-1.224.815-2.446,1.224-4.077,1.224h-1.223c-3.67-1.224-7.34-2.447-11.416-4.078-2.855-2.445-6.523-5.707-8.971-8.561-6.115-9.785-9.377-19.977-13.454-30.171-4.077-9.377-7.747-19.162-11.009-28.947-3.262-8.971-6.931-17.939-10.599-27.317-4.485-12.64-8.971-25.278-12.64-38.325-2.855-11.416-6.523-22.424-8.561-33.839-2.447-5.301-2.855-11.009-6.523-15.901-2.039,0-3.262,1.224-3.67,2.855-.408,1.631-.815,2.853-.815,4.484-.815,5.301-1.631,9.785-2.446,16.308-.408,2.039,0,3.67-.408,5.708-.814,6.523-1.223,10.192-2.038,16.716,0,2.039-.407,3.67-.407,5.709,0,5.3,0,8.561-.408,13.861-.408,6.932-1.631,11.009-2.446,17.939-.407,6.932-.407,11.009-.815,18.348,0,1.223-.408,1.631-.815,2.853-.815,4.893-.815,7.34-1.631,12.232-.407,3.262-.815,5.3-1.631,8.561,0,.815-.815,1.631-.815,2.446-1.223,11.824-1.631,18.755-3.262,30.578-.815,6.932-.408,11.416-3.67,17.125-1.223,1.223-2.853,2.445-4.893,4.076-1.223,2.447-2.445,4.893-3.669,6.932-3.262,2.853-6.523,4.893-10.192,5.301-3.67-.408-6.932-2.039-9.785-4.893-3.67-5.301-4.078-11.416-6.116-17.125-.815-2.038-.815-4.076-.815-6.523v-11.416c0-4.484,0-7.746.408-13.047.407-3.669,1.223-5.707,1.631-9.377.407-3.67.407-6.115.814-9.785.817-6.523,1.224-10.193,2.039-16.717.408-2.853.815-4.076.815-6.931.407-2.855.407-4.077.407-6.931.817-7.747,1.224-11.824,2.039-19.57,1.631-11.824,2.446-18.756,4.077-30.579.815-4.485,1.224-6.523,1.631-11.009.407-5.707.407-8.561.815-14.269.408-4.893,1.223-7.339,2.039-12.231.814-4.485,1.631-6.523,2.038-11.009.407-3.262.407-4.893.815-8.154.815-6.523,1.223-10.192,2.039-16.716.407-2.038.407-3.669.407-5.708.407-14.678.407-23.24.407-37.918,0-2.853-.814-5.3-.814-7.746,0-1.223.407-2.446.814-3.67,2.447-5.3,6.932-8.154,10.602-10.192,1.631-.815,3.262-.815,5.3-.815,2.446,0,5.3.408,7.747.815,3.669.407,7.338,2.038,11.008,2.855,1.223,2.038,2.853,3.669,4.077,5.707,1.224,2.039,2.446,4.078,3.669,5.709.817,1.223,1.631,2.445,2.447,3.669,10.599,13.862,18.346,29.355,26.093,44.848,2.038,4.484,4.076,9.377,5.707,14.269,5.301,13.455,10.193,26.91,15.086,40.771,3.262,10.602,5.708,21.609,9.377,32.21.817,3.262,1.631,6.523,2.855,9.378,1.224,3.262,2.446,6.931,3.262,10.599,1.224,5.301,3.669,10.602,6.931,15.086,1.631,0,3.262-.408,3.67-2.039.408-2.445.408-4.484.815-6.931,0-2.855,0-5.708,1.224-8.561.407-2.039.814-4.078.814-6.523.408-4.078.408-6.116.408-10.193.408-6.932.408-11.008,1.223-17.939.817-6.523,2.447-10.193,3.262-16.717.817-3.669.817-5.707.817-9.377.407-5.708.407-8.562.814-14.269.817-7.34,1.631-11.824,2.447-19.163.407-3.262.814-5.3,1.223-8.561.408-3.67.815-5.709,1.223-9.378.817-4.893,1.631-7.747,2.447-12.64.407-1.631.407-2.445.407-4.076,1.224-8.562,2.446-14.678,2.855-22.425.407-3.669,2.853-6.931,2.853-10.6,0-3.262.408-6.523.408-9.785,2.038-3.67,3.262-6.932,5.3-10.193,4.485-7.746,11.823-11.416,20.794-11.823,3.669,0,7.338.815,10.599.815,6.116,3.262,8.562,8.154,11.009,13.862v15.085Z"/>
    <path class="cls-1" d="M1361.221,90.856c0,1.224,0,2.855-.407,4.078-3.67,5.707-2.855,11.823-4.485,19.162-.407,3.262-.407,4.893-.815,8.154-.408,3.67,0,6.115-.815,9.785-.815,6.523-1.631,9.785-3.262,16.308-.407,2.446-1.224,3.262-1.631,5.708-.815,5.3-1.224,8.154-2.038,13.454-.408,3.67-.408,6.116-.817,9.785-.814,7.34-1.223,11.009-2.038,18.348-.407,3.67-.407,6.115-.815,9.785-.408,2.853-.815,4.077-1.223,6.932-.817,5.3-1.224,8.154-2.039,13.454-.815,6.116-.815,9.378-1.631,15.493-.408,3.262-.408,4.893-.815,8.154-.815,5.301-1.224,8.562-2.038,13.862-.408,2.855-.408,4.077-.408,6.931,0,5.709,0,8.562-.408,14.27,0,3.262-.407,4.893-1.223,8.154-2.446,10.192-4.484,17.124-6.523,25.686,0,6.931-3.67,13.047-3.67,19.57v1.223c-1.223,4.484-2.445,8.97-3.669,13.455-.815,3.262-1.224,6.523-2.038,9.377-.408,4.077-3.262,6.115-6.932,6.115h-1.223c-1.224-.407-2.447-.814-4.078-1.631-1.631.408-2.853,2.039-4.076,3.262-.817,1.224-2.039,2.039-2.855,2.855-1.224.815-2.446,1.224-4.077,1.224h-1.223c-3.67-1.224-7.34-2.447-11.416-4.078-2.855-2.445-6.523-5.707-8.971-8.561-6.115-9.785-9.377-19.977-13.454-30.171-4.077-9.377-7.747-19.162-11.009-28.947-3.262-8.971-6.931-17.939-10.599-27.317-4.485-12.64-8.971-25.278-12.64-38.325-2.855-11.416-6.523-22.424-8.561-33.839-2.447-5.301-2.855-11.009-6.523-15.901-2.039,0-3.262,1.224-3.67,2.855-.408,1.631-.815,2.853-.815,4.484-.815,5.301-1.631,9.785-2.446,16.308-.408,2.039,0,3.67-.408,5.708-.814,6.523-1.223,10.192-2.038,16.716,0,2.039-.407,3.67-.407,5.709,0,5.3,0,8.561-.408,13.861-.408,6.932-1.631,11.009-2.446,17.939-.407,6.932-.407,11.009-.815,18.348,0,1.223-.408,1.631-.815,2.853-.815,4.893-.815,7.34-1.631,12.232-.407,3.262-.815,5.3-1.631,8.561,0,.815-.815,1.631-.815,2.446-1.223,11.824-1.631,18.755-3.262,30.578-.815,6.932-.408,11.416-3.67,17.125-1.223,1.223-2.853,2.445-4.893,4.076-1.223,2.447-2.445,4.893-3.669,6.932-3.262,2.853-6.523,4.893-10.192,5.301-3.67-.408-6.932-2.039-9.785-4.893-3.67-5.301-4.078-11.416-6.116-17.125-.815-2.038-.815-4.076-.815-6.523v-11.416c0-4.484,0-7.746.408-13.047.407-3.669,1.223-5.707,1.631-9.377.407-3.67.407-6.115.814-9.785.817-6.523,1.224-10.193,2.039-16.717.408-2.853.815-4.076.815-6.931.407-2.855.407-4.077.407-6.931.817-7.747,1.224-11.824,2.039-19.57,1.631-11.824,2.446-18.756,4.077-30.579.815-4.485,1.224-6.523,1.631-11.009.407-5.707.407-8.561.815-14.269.408-4.893,1.223-7.339,2.039-12.231.814-4.485,1.631-6.523,2.038-11.009.407-3.262.407-4.893.815-8.154.815-6.523,1.223-10.192,2.039-16.716.407-2.038.407-3.669.407-5.708.407-14.678.407-23.24.407-37.918,0-2.853-.814-5.3-.814-7.746,0-1.223.407-2.446.814-3.67,2.447-5.3,6.932-8.154,10.602-10.192,1.631-.815,3.262-.815,5.3-.815,2.446,0,5.3.408,7.747.815,3.669.407,7.338,2.038,11.008,2.855,1.223,2.038,2.853,3.669,4.077,5.707,1.224,2.039,2.446,4.078,3.669,5.709.817,1.223,1.631,2.445,2.447,3.669,10.599,13.862,18.346,29.355,26.093,44.848,2.038,4.484,4.076,9.377,5.707,14.269,5.301,13.455,10.193,26.91,15.086,40.771,3.262,10.602,5.708,21.609,9.377,32.21.817,3.262,1.631,6.523,2.855,9.378,1.224,3.262,2.446,6.931,3.262,10.599,1.224,5.301,3.669,10.602,6.931,15.086,1.631,0,3.262-.408,3.67-2.039.408-2.445.408-4.484.815-6.931,0-2.855,0-5.708,1.224-8.561.407-2.039.814-4.078.814-6.523.408-4.078.408-6.116.408-10.193.408-6.932.408-11.008,1.223-17.939.817-6.523,2.447-10.193,3.262-16.717.817-3.669.817-5.707.817-9.377.407-5.708.407-8.562.814-14.269.817-7.34,1.631-11.824,2.447-19.163.407-3.262.814-5.3,1.223-8.561.408-3.67.815-5.709,1.223-9.378.817-4.893,1.631-7.747,2.447-12.64.407-1.631.407-2.445.407-4.076,1.224-8.562,2.446-14.678,2.855-22.425.407-3.669,2.853-6.931,2.853-10.6,0-3.262.408-6.523.408-9.785,2.038-3.67,3.262-6.932,5.3-10.193,4.485-7.746,11.823-11.416,20.794-11.823,3.669,0,7.338.815,10.599.815,6.116,3.262,8.562,8.154,11.009,13.862v15.085Z"/>
    <path class="cls-1" d="M1556.92,118.173c0,2.855-2.446,4.893-4.485,7.339-3.669,4.077-5.707,6.523-11.008,7.746-1.631.408-2.853.408-4.077.408-4.485,0-8.154-1.631-13.454-2.039-2.039,0-3.262-.407-5.301-.407-6.115-.407-9.377,0-15.493-.407-3.262-.408-5.708-.408-8.561-1.224-2.855-.815-6.116-1.224-8.971-1.224-2.445,0-5.3.408-7.746.408-1.631,0-3.262,1.223-4.484,2.853-2.447,4.078-3.67,8.562-4.078,13.455,0,4.893-2.038,9.785-2.038,15.086v4.484c0,4.893-.407,9.377-.407,13.862,0,9.785-.408,19.57-.408,29.355,0,2.855.408,5.708.408,8.561,1.631.817,2.853,1.631,4.076,1.631,2.039,0,3.67.408,5.709.408,3.669,0,7.338-.408,11.008-1.631,2.039-.815,4.484-.815,6.932-1.223,1.631,0,3.669,0,5.3-.408,4.893-1.631,9.378-2.039,14.27-2.039h6.115c2.446,0,3.67,1.224,5.708,2.447,2.446,1.223,4.485,1.223,6.523,3.262,3.262,3.262,6.523,5.3,6.931,9.785v1.223c0,4.077-2.038,6.932-5.3,9.785-4.893,4.484-10.192,4.893-15.085,7.339-1.224.815-2.855,1.631-4.078,1.631-6.931,0-13.454,3.669-20.793,3.669h-1.223c-4.078.817-8.154,1.631-12.232,2.039-4.076.815-7.746.815-10.599.815-2.447,1.224-3.262,3.262-3.262,4.893v12.64c0,4.484,2.445,8.154,2.445,12.638.408,6.523,3.262,11.416,6.116,18.348.815,1.631,1.631,2.853,3.262,3.669,4.485,2.038,6.931,3.669,11.823,4.077,1.631.408,3.262.408,4.893.408,4.485,0,8.154-.817,13.047-.817h1.224c5.3,0,7.747.408,13.047.817,4.077.814,5.708.407,9.378,2.038,2.853,1.631,4.893,1.631,7.746,3.262,3.67,2.446,6.523,3.669,8.154,7.339.408.815.408,1.223.408,1.631,0,2.039-1.224,3.67-1.631,5.708-.408,2.446.407,4.485-1.631,6.116-3.262,2.853-6.523,2.853-10.602,4.484-3.669,1.631-5.707,4.077-9.785,4.484-8.154.817-14.678,1.224-21.608,1.224-4.485,0-8.97,0-13.862-.407-6.115-.408-11.008-1.224-17.939-3.262-5.708-1.631-9.785-3.262-14.269-5.709-6.932-3.669-12.64-8.154-16.308-15.085-.817-1.631-2.447-2.855-3.262-4.485-1.224-2.853-2.447-6.115-3.262-8.969-1.631-5.709-3.262-9.785-4.485-16.308-1.224-5.709-1.631-9.378-2.446-15.086v-2.853c-.815-9.785-1.631-15.494-2.039-25.279-.407-7.338-.407-13.047-.407-19.162v-3.262c0-5.301,0-10.193,2.038-15.086.817-2.038.408-4.893.817-6.931,0-5.3,0-10.6.407-15.493v-5.708c2.855-8.97,2.038-17.939,2.446-26.501v-6.932c.408-2.446.815-4.893,1.223-6.932.817-2.038.817-3.669,1.224-5.707v-6.523c-4.485-1.631-6.931-2.447-11.416-4.078-4.485-1.631-7.339-1.223-11.009-4.076-4.076-3.262-7.338-5.709-7.338-10.602v-.407c0-4.077,4.484-4.893,7.746-7.747,3.262-2.853,4.484-5.3,8.562-6.931,3.669-1.631,6.931-1.631,10.192-1.631h2.446c4.484,0,7.746-1.631,12.638-2.446,4.893-.815,7.34-2.446,12.232-2.446h.407c3.262,0,5.3,1.631,8.97,2.038,3.262.408,5.301.408,8.562.408h16.716c2.038,0,3.669,0,5.708.408,4.893.814,7.746,1.631,12.638,2.038,4.893.407,7.747,0,12.64.815,3.669.408,5.708,1.631,9.378,2.039h4.484c1.223,0,2.446.407,3.67.814,4.076,1.631,5.707,4.078,8.969,6.932,3.262,2.853,4.893,5.708,7.34,8.562.407.814.407,1.223.407,2.038Z"/>
    <path class="cls-1" d="M1728.559,333.852c0,2.447-1.224,3.67-3.67,7.34-1.223,2.038-7.746,4.484-10.193,4.484-11.008.815-18.754,1.631-27.724,1.631-4.893,0-10.192-.408-16.716-1.223-9.785-1.224-15.085-4.485-23.647-9.785-4.077-2.447-4.893-5.709-7.746-9.378-5.301-6.931-9.378-11.823-13.047-18.346-3.262-6.116-6.523-12.232-9.378-18.756-3.262-6.115-5.708-13.047-6.931-19.57-.817-3.669-2.039-7.338-2.447-11.008-.407-3.67-.814-7.339-2.445-11.008-.408-.817,0-2.039-.408-2.855,0-5.708-.408-10.6-.408-16.308v-4.485c.408-6.115,1.224-9.377,2.039-15.492.408-3.67,1.223-6.116,1.223-9.785,1.224-22.017,11.416-41.588,29.763-60.341,10.6-11.009,13.862-14.678,24.871-21.609,11.416-7.746,22.832-9.785,31.8-14.678.817-.815,1.224-.815,2.447-.815.814,0,1.223,0,2.038.815,4.893,3.262,8.561,4.077,12.231,8.97,2.039,2.038.815,4.485,1.631,7.747.408,2.038,1.223,2.853,2.039,5.3,0,.407.407.815.407,1.224v.407c-.407.815-.407,1.224-.815,2.446-1.223,2.446-1.223,4.077-3.262,6.523-17.124,18.755-35.47,13.862-47.703,38.732-6.115,11.009-11.416,33.025-13.047,50.964v4.893c0,5.301.817,9.785,1.224,16.308.407,2.039.407,3.262.815,5.301,1.631,7.338,1.631,11.823,3.67,19.162,2.038,6.932,4.484,10.193,6.931,16.717.815,1.631.815,2.853,1.631,4.076,4.077,6.116,6.116,10.193,11.416,15.086,2.446,2.039,4.485,2.446,7.747,2.853,7.338.817,9.785,2.039,16.716,3.67,6.523,1.631,11.009.815,17.124,4.077,4.893,2.446,6.523,6.116,9.785,9.378,1.223,3.262,2.039,5.707,2.039,7.338Z"/>
    <path class="cls-1" d="M1950.756,82.702c0,2.039,0,5.301-.407,10.602-1.631,1.631-3.67,3.669-5.301,5.3-1.223.815-2.039,1.224-2.853,1.224-3.67.814-7.34,0-11.009,1.631-3.262,1.631-7.339,2.038-11.009,2.853-2.038.815-4.484,1.223-6.523,1.223-5.3.817-9.377,1.631-15.492,2.447-6.116.814-10.193.814-15.494,1.223-1.223.815-2.853,2.039-4.076,2.853-.817,2.039-1.224,4.485-1.224,6.523,0,2.447.407,4.485.407,6.523-.407,5.709,0,11.416-2.038,16.717-.407,1.223-.815,2.446-.815,3.67s.408,2.445.408,4.076v.817c-.408,15.085-.408,24.054-.817,39.14-.407,6.523-.814,10.192-1.223,16.716-.408,2.855-.815,4.485-.815,7.339-.815,15.9-.407,24.871-.815,40.771-.408,8.154-1.223,12.638-1.631,20.793-.408,3.67-.408,6.116-.408,9.785-.407,19.163-.407,30.172-.814,49.334-.408,3.67-.817,6.115-1.224,9.785-.407,3.67-.815,6.115-.815,9.785,0,.408-.408,1.223-.408,1.631,0,2.853.408,4.893.408,7.339,0,1.631,0,3.669-.815,5.708-2.038,4.484-9.378,6.523-16.716,6.523-8.154,0-16.308-2.039-19.163-4.484-2.038-1.631-3.669-1.631-4.893-3.262-4.077-5.301-6.116-8.154-7.747-14.678-.407-.408-.407-.817-.407-1.224,0-2.855.815-4.485,1.224-7.339,2.038-24.054,3.669-46.886,3.669-68.904,0-9.377.815-22.424.815-32.209,0-24.054,2.039-38.325,2.446-64.011,0-2.853.407-4.076.407-6.931.817-6.523.817-14.678,1.224-21.201v-30.986c-.407-.815-.815-1.631-1.631-2.446-1.224-1.223-2.446-2.446-3.669-2.446-.408,0-.817.407-1.224.407-2.855,1.224-6.116,1.631-9.378,1.631-5.707.408-11.416.408-16.716,2.039-2.855.815-5.708,1.223-8.561,1.223-2.447,0-4.893-.407-6.932-.407-.815-.407-1.631-.815-2.446-1.631-2.446-3.262-4.893-6.523-8.561-8.97-1.631-.815-2.855-2.446-4.078-3.67-.814-1.223-1.223-2.445-1.631-4.076,0-.408-.407-.817-.407-1.224,0-4.893,2.446-9.378,6.523-12.231,2.446-2.039,4.893-2.853,8.561-4.077,6.523-2.038,10.602-2.446,17.939-3.669,8.562-1.224,13.455-1.631,22.017-2.447,1.631,0,2.445,0,4.484-.407,7.339-.815,11.416-1.631,19.162-2.446.817,0,1.631-.408,2.855-.408,7.747-.814,12.64-1.223,20.794-2.445,5.3-.817,8.154-1.631,13.861-2.447,5.301-.814,8.562,0,14.27-.814,5.708-.817,8.97-1.631,15.085-2.447.817,0,1.631-.407,2.855-.407,6.931-.815,12.64-2.038,18.346-2.038h3.67c4.077,2.038,6.115,5.707,8.97,9.785,2.855,1.631,5.708,3.262,8.97,4.893.408,1.223.815,2.038.815,4.076Z"/>
  </g>
  <g>
    <path class="cls-1" d="M336.663,528.791c0,2.299,0,4.599-.574,7.474,0,6.898-1.15,10.921-1.725,17.819-1.148,42.54,0,66.681-1.724,109.221,0,7.472-2.299,11.497-2.875,18.969v1.15c0,6.898,1.725,10.921,1.725,18.395,0,5.174-1.15,8.622-1.725,13.796v17.819c0,3.451,0,7.474-.574,12.072,0,6.898-1.15,10.347-2.299,17.245,0,2.873-.574,5.173-1.15,8.048-1.15,12.072-1.724,18.97-4.023,31.041-1.151,9.197-1.151,14.946-5.174,23.568-1.15,3.451-4.023,4.025-8.048,4.599-2.873,0-4.025-2.299-6.324-2.299h-1.148c-4.025,1.151-4.599,4.599-9.197,4.599h-.576c-5.748,0-6.898-2.299-12.646-4.023-1.725-.576-3.449-.576-5.173-.576h-4.025c-1.725,0-2.873,0-5.173-.574-1.725-.574-2.299-1.725-3.451-2.873-4.023-5.75-8.046-8.623-9.771-15.521v-5.173c0-5.75,1.725-10.349,2.299-17.247.574-4.023,1.15-5.747,1.15-9.771.576-2.873.576-5.173.576-8.048,1.724-12.072,2.299-18.97,3.447-31.041,1.151-7.472,2.299-12.071,2.875-19.545.576-4.023.576-6.322.576-10.347.574-13.222,0-20.12.574-33.341.574-7.474,1.725-12.072,2.299-19.545.574-2.299.574-3.449.574-5.748,1.151-32.767,1.151-55.76,1.725-83.352,0-2.873-.574-5.173-2.873-7.472-1.151.574-2.299.574-4.025,1.15-9.197,17.819-22.419,33.915-32.765,51.736-8.049,12.646-15.521,22.419-24.719,37.939-2.299,4.599-1.725,8.622-5.173,13.221-2.299,3.451-4.599,5.174-8.623,6.898-6.898,2.875-11.497,2.875-18.969,4.025-.576,0-1.725.574-2.875.574-.576,0-1.15,0-1.724-.574-4.025-2.299-5.174-5.173-9.197-7.472-3.451-2.299-6.898-1.151-9.773-4.599-7.474-9.773-9.773-17.247-16.095-28.168-1.724-4.023-2.299-6.322-5.174-10.347-1.148-1.725-1.148-4.599-3.447-4.599h-.576c-2.875.574-4.023,3.449-4.599,6.324-.576,3.447-.576,6.322-.576,9.771,0,14.946-.574,28.166-.574,43.688v20.12c.574,6.898,1.725,10.346,2.299,17.244.574,1.725.574,2.299.574,4.025.576,12.071,2.299,20.694,2.299,29.892,0,4.599-.574,9.771-1.724,14.946-1.15,6.322-5.748,9.773-12.646,11.497-2.873,1.15-6.324,1.15-8.623,1.15-9.771,0-16.67-5.173-31.04-9.197-1.725-.574-2.875-1.15-4.599-2.873-3.451-3.451-6.898-5.75-9.197-10.349-.576-1.724-.576-2.873-.576-4.023v-6.322c-.576-14.372,0-22.994-1.15-37.365,0-6.322-1.15-9.197-1.725-15.52v-12.072c.576-5.174,1.725-8.622,1.725-13.796,1.15-29.316.574-45.987,1.15-75.303.576-9.197,1.724-14.372,2.299-23.569.576-6.322,1.15-9.197,1.15-15.52,1.15-16.095.574-25.869,1.15-41.964.576-8.048,1.15-13.221,1.724-21.27.576-4.599,1.151-7.472,1.151-12.071.574-2.873.574-5.748.574-8.048,0-8.048-.574-14.946-.574-22.418,0-5.174,0-10.923.574-17.821.574-4.025,2.299-6.324,4.599-9.771,4.025-4.599,5.748-7.474,10.923-9.773,2.299-1.15,4.023-1.15,5.747-1.15s3.451,0,5.174.574c6.898,1.151,12.072,1.151,16.671,6.324,9.197,10.347,9.771,18.969,16.67,31.041,5.173,8.048,9.197,12.072,13.222,20.119,4.023,7.474,5.747,12.072,8.622,19.546,5.174,12.071,8.048,18.969,12.072,31.615,4.599,12.646,6.322,19.545,9.771,32.191,1.725,4.023,2.299,6.898,3.449,10.921,2.299,5.75,3.449,10.349,5.174,14.947,1.148,1.148,3.447,2.299,4.599,2.873,3.447-1.725,5.747-4.025,7.472-6.898,10.923-17.245,22.994-33.916,31.041-52.885,5.748-12.071,12.072-23.568,17.819-35.064,6.898-13.796,15.521-26.444,24.145-38.515,4.023-6.324,8.622-12.071,13.221-17.821,5.748-4.023,11.497-6.898,17.245-6.898,4.025,0,8.048,1.151,12.071,3.451,4.025,2.299,8.623,2.299,13.222,2.873,4.025,2.873,6.324,6.324,8.048,10.923,5.748,13.221,9.197,20.694,12.072,35.064,1.148,4.599,1.724,9.197,1.724,12.646,0,4.023-.576,8.048-.576,12.072v5.747c.576,7.474,1.725,12.072,1.725,19.546.574,2.873.574,5.173.574,8.046Z"/>
    <path class="cls-1" d="M626.95,792.643c-.576,6.898-3.451,10.923-10.349,16.095-2.873,2.873-6.322,3.449-9.771,3.449h-2.873c-3.451,0-4.599-.576-6.898-.576-.576,0-3.451.576-4.025,0-2.873-.574-2.299-2.299-5.173-2.873-2.875-.574-4.025-2.873-5.75-5.173-6.322-9.197-8.622-12.648-12.071-22.419-2.873-5.748-1.725-10.347-3.449-16.67-.576-4.599-1.15-6.898-2.299-11.497-1.724-8.049-2.875-13.222-4.599-21.27-1.724-10.921-4.023-18.97-5.174-28.742-.574-4.599-1.724-9.197-2.873-13.222-15.521,2.875-62.657,2.875-64.956,11.497-1.725,6.324-2.299,12.648-3.451,20.694-.574,5.174,0,8.623-.574,13.796-.574,9.773-1.725,15.521-3.449,25.293,0,1.725-.576,2.299-.576,4.025v8.623c0,3.447.576,5.747,0,9.197,0,5.173,0,8.046-1.148,12.645-3.451,16.671-12.648,25.869-23.569,25.869-1.724,0-3.449,0-5.174-.576-9.771-2.299-15.52-2.873-24.142-10.921-4.025-3.449-5.75-10.921-6.898-16.095v-4.023c.574-4.025,1.148-5.75,1.148-9.773,1.725-9.773,2.299-15.52,3.451-25.293,1.148-6.322,1.148-9.197,1.724-15.52,1.15-9.197,1.724-14.372,2.299-23.569,1.15-11.497,0-18.395,1.15-29.892,1.15-8.622,2.873-13.221,4.025-21.844.574-4.025.574-5.748.574-9.771v-9.197c.574-4.025.574-5.75.574-9.773,1.151-9.773,2.299-15.52,2.875-25.293.576-2.299.576-4.023.576-6.322,1.724-9.773,2.299-15.521,3.447-25.293.576-2.299.576-3.451.576-5.75,1.15-14.37,1.15-22.418,2.875-36.214,2.873-17.245,7.472-41.388,9.197-61.507.574-2.875.574-4.599.574-7.474,1.15-8.048-.574-13.221,3.449-20.119,6.898-10.349,11.497-17.821,22.994-21.845,8.048-2.873,10.921-4.599,14.372-4.599,2.873,0,6.322,1.725,12.645,4.025,14.947,5.748,19.546,15.521,29.892,27.592,3.451,3.449,2.875,8.048,4.599,11.497,10.349,20.12,15.521,37.939,24.145,62.657,4.599,11.497,6.898,17.821,9.771,29.892,3.449,10.923,4.599,17.821,6.898,28.743,2.299,7.472,3.449,11.497,5.173,18.969,4.599,16.095,7.474,28.166,10.923,41.962,4.025,14.372,6.898,28.168,10.923,42.54,1.724,7.472,2.873,13.796,4.599,22.994,2.873,12.071,4.599,18.395,6.898,30.466,1.148,2.873.574,5.173,1.148,8.048,1.725,6.898,3.451,10.347,4.025,17.245.574,3.449.574,6.324,1.15,8.623v9.197c.576,2.873.576,5.747.576,7.472ZM530.951,613.293c-3.449-9.771-7.472-31.617-12.071-47.137-5.174-16.095-8.623-33.915-12.648-33.915-2.299,0-3.447,9.197-4.023,11.497-1.724,16.095-8.622,67.829-8.622,84.501,0,2.875.574,5.174.574,7.474,1.15,1.148,2.299,2.873,3.449,2.873,5.748,1.15,29.316,2.299,42.538,4.599-2.873-10.347-5.748-20.12-9.197-29.892Z"/>
    <path class="cls-1" d="M927.006,524.768c0,8.622-1.15,16.095-4.599,25.293-6.898,18.97-12.072,28.742-21.27,46.563-5.747,10.921-10.346,18.395-16.095,27.017-5.173,7.474-8.622,14.946-12.071,22.994-9.771,24.717-21.268,49.436-33.341,73.579-5.174,10.347-9.197,20.694-16.095,29.316-9.197,17.821-17.819,31.617-30.467,51.161-2.873,4.599-4.023,9.197-9.197,11.497-2.299,1.15-4.599,1.724-6.898,1.724s-5.173-.574-8.046-.574h-4.599c-4.025-2.299-5.75-5.173-9.773-6.898-6.898-2.873-12.072-2.299-18.97-5.748-1.724-1.15-4.023-3.449-6.322-5.174-7.474-4.023-14.946-4.599-21.844-10.921-5.748-5.748-7.472-10.347-9.197-18.395-.574-2.875-1.15-5.748-1.15-8.048,0-5.173,1.15-9.197,1.15-15.521,0-9.197,0-14.37.574-23.568.576-6.324,1.151-9.197,1.725-15.521v-1.148c0-2.299-.574-4.025-.574-6.898v-50.586c0-2.875.574-4.025.574-6.898v-.576c-.574-6.322-1.725-9.773-1.725-16.095v-40.813c.576-16.671,1.151-26.444,1.725-43.114.574-6.898.574-10.923,1.15-17.821,1.15-10.921,1.724-16.67,2.875-27.592.574-2.873,1.148-4.599,1.148-8.046v-17.821c1.151-9.197,2.875-16.67,4.599-23.568,6.324-4.599,11.497-6.324,17.821-6.898,5.173,0,10.347,0,15.521-2.299,2.299-1.151,5.173-.576,7.472-1.151,9.771-.574,18.395-2.873,29.892-2.873h2.299c9.197,0,14.946,1.15,24.719,1.725,1.724,0,2.299.574,4.023.574,5.174.574,8.622.574,13.796,1.725,7.474,1.724,10.921,4.599,18.395,5.747,2.299.576,4.023.576,5.748.576h5.748c2.299,0,4.599,0,6.898.576,13.796,3.447,24.143,5.747,34.49,12.645,8.048,5.174,14.372,12.072,18.395,20.694,2.299,6.324,5.174,13.222,7.474,20.12,1.724,4.599,2.873,8.623,4.023,13.222v17.819ZM866.647,497.751c0-.576,0-1.151-.574-1.725-1.15-2.299-2.873-4.599-5.748-4.599-6.898,0-13.221-1.725-18.97-4.599-7.472-2.873-16.095-2.873-22.994-5.748-2.299-1.15-5.173-1.15-8.046-1.15-5.75-.574-12.072-.574-17.821-.574-9.771,0-19.545.574-28.166,1.148-4.025,1.725-5.75,3.451-6.324,6.324-.574,1.725-.574,3.449-.574,5.748-.576,29.892-.576,54.609-1.151,89.099,0,6.898-.574,10.923-1.148,17.821v5.748c.574,4.599,1.148,6.898,1.724,11.497v8.048c.576,6.898.576,13.796.576,20.12,0,12.071,0,22.994,2.873,35.064.574,3.449.574,6.898.574,10.347v13.796c0,1.724,1.151,3.449,1.725,5.174,1.725,0,2.873,0,4.025.574,3.447-2.299,5.173-6.324,6.898-9.771,12.645-24.719,25.293-49.438,37.938-74.155,6.898-14.946,14.947-29.316,22.994-43.688,3.451-6.322,7.474-12.646,9.773-19.545,1.724-5.748,4.023-10.923,6.898-16.095,5.174-8.623,9.197-17.821,10.347-27.592,0-1.725.574-2.873,1.15-4.025,2.875-4.599,1.724-10.346,3.449-14.944.574-1.151.574-1.725.574-2.299Z"/>
    <path class="cls-1" d="M1058.059,582.827c1.725,4.023,2.873,8.622,2.873,13.221s-1.148,9.197-2.299,13.796c-2.299,6.898-1.724,13.221-2.873,21.27-.574,5.173-.574,8.622-1.725,13.796-.574,4.599-1.148,6.898-1.724,11.497-.576,6.322-1.15,9.197-2.299,15.52,0,1.15-.576,1.15-.576,2.299-.574,9.197-1.148,14.372-2.299,23.569-.574,9.197-2.299,14.37-2.873,23.568v86.801c0,2.299.574,4.023.574,6.322,0,.576,0,1.724-.574,2.875-1.725,6.322-2.299,11.497-8.048,14.944-2.299,1.725-5.174,2.299-7.474,2.299-3.447,0-6.322-1.148-10.346-2.299-4.599-1.724-4.599-6.322-9.197-9.197-1.151-.574-1.725-.574-2.875-.574h-2.299c-1.15,0-1.724,0-2.875-.574-4.023-1.725-6.898-2.299-10.346-5.174-2.299-2.299-3.451-4.599-4.025-8.048-1.725-8.623-1.15-13.796-1.725-22.419v-22.418c0-12.646,0-23.569.576-39.089.576-8.622,1.724-13.221,2.299-21.27.576-4.023,1.15-5.747,1.15-9.771,1.725-12.071,2.299-19.545,3.449-31.617.576-4.023.576-5.747.576-9.771,1.148-6.324,1.724-9.197,2.299-15.521.574-2.873.574-4.599,1.148-7.472,1.151-6.324,1.151-10.923,2.875-15.521,1.15-1.724,1.15-4.023,1.15-6.322,2.299-18.395,6.324-36.79,11.497-55.76,2.873-9.771,7.472-15.52,12.646-25.293.576-1.148,1.15-1.724,2.299-1.724h1.724c3.451,0,6.898-.576,10.349-.576,4.023,0,7.472.576,11.497,2.875,5.173,2.299,4.599,7.474,5.747,12.646.576,2.299,1.151,4.599,1.151,6.324,0,2.299-.576,4.599-.576,6.898,0,6.322-.576,12.071-.576,17.819,0,4.023,0,8.048,1.725,12.072ZM1082.202,453.488c0,1.15,0,2.875-.576,4.023-3.447,8.623-12.645,9.197-22.418,11.497-1.724,0-2.875.576-4.599.576-4.023,0-7.474-1.15-11.497-3.449-6.898-2.299-11.497-4.599-16.095-10.347-1.15-1.724-1.15-3.449-1.15-4.599,0-2.299.574-4.599,2.299-6.322,5.748-8.049,11.497-13.222,18.969-16.671,1.725-1.724,4.599-2.299,6.898-2.299,1.151,0,2.875,0,3.451.576,6.322,3.447,10.921,4.023,16.095,10.346,3.447,4.599,8.622,10.923,8.622,16.671Z"/>
    <path class="cls-1" d="M1324.204,601.796v1.15c0,4.023-1.725,6.322-2.299,10.347v2.299c-2.299,10.347-3.451,17.821-6.324,26.443-2.873,8.622-5.748,17.245-8.048,26.443-2.299,8.623-5.748,15.521-9.197,25.293-1.724,5.748-3.449,8.623-4.599,14.37-3.449,11.497-4.599,17.821-7.474,29.892-2.299,9.773-3.447,14.947-5.747,24.719,0,1.725-.576,2.299-1.151,4.025-6.322,13.796-8.046,24.717-16.095,35.638-1.148,1.725-1.724,3.451-3.447,5.174,0,.576-.576.576-1.725.576h-.574c-8.049-1.151-15.521-3.451-21.27-3.451-4.599,0-8.048-1.724-11.497-2.873-5.748-2.299-11.497-5.173-13.796-12.071-.576-2.875-1.15-5.174-1.15-6.898,0-5.75,2.299-10.349,2.873-17.247,1.725-9.197,4.025-14.37,6.324-24.142.574-2.299.574-4.025,1.15-6.324,6.898-20.694,10.921-32.191,18.395-52.885,2.875-8.623,5.748-14.946,8.048-21.844,2.299-7.474,1.725-6.898,4.025-13.796.574-1.724,1.148-2.875,1.148-4.023,0-1.725-.574-3.451-.574-4.599-.574-1.725-1.725-4.025-2.873-5.75-8.049-1.148-14.947-.574-22.994-1.148h-6.324c-4.599,0-8.623,0-12.646-1.725-1.15-.574-2.299-1.15-4.023-1.15-4.599-.576-9.197-.576-14.372-1.15-1.724,0-2.875-1.15-4.023-1.15-10.923-4.023-21.845-12.072-31.617-17.819-6.898-3.451-9.771-7.474-13.796-13.796-3.449-5.75-4.599-9.773-5.173-16.095v-1.151c0-5.173,2.299-9.197,2.299-13.796.574-5.173.574-9.771,2.299-14.944,1.148-6.898,2.873-14.372,5.173-21.845,3.449-10.346,8.048-20.694,12.071-31.615,1.151-2.875,2.875-6.322,4.599-9.197,4.599-6.898,9.773-13.796,14.372-20.694,9.197-14.372,28.168-19.545,43.688-29.892,1.724-1.15,4.023-1.724,5.748-1.724s2.873.574,4.599.574c4.025,1.15,6.324,3.449,9.197,6.324,1.725,1.724,2.299,2.873,2.299,5.747v2.299c0,3.451-.574,5.75-1.15,9.773-1.15,5.174-1.724,8.048-4.023,12.646-5.174,8.623-9.773,12.646-14.372,20.12-4.023,8.046-9.197,15.52-10.921,24.142-1.725,7.474-4.599,13.796-6.898,20.12-1.725,5.748-3.451,10.923-4.599,16.095-1.151,4.025-3.451,7.472-3.451,11.497,0,1.15,0,2.299.576,3.449,1.15,4.023,5.748,4.599,9.773,6.322,1.724.576,4.023.576,6.322.576,9.197,0,16.095-2.875,26.443-5.174,9.197-2.873,18.969-4.023,28.166-4.023,10.349,0,21.27,1.724,32.191,6.322,8.623,3.451,16.671,8.623,21.27,16.671,3.449,5.174,4.599,8.622,5.174,14.946Z"/>
    <path class="cls-1" d="M1573.1,586.275v3.451c0,2.873,0,5.747-.576,9.197,0,1.148-.574,2.299-.574,3.447,0,2.299.574,4.599.574,6.898v1.151c-.574,10.921-.574,17.244-1.148,28.166-1.151,18.395-2.299,28.742-3.451,47.137,0,2.299-.574,3.449-.574,5.748-1.725,9.197-2.299,14.37-4.025,23.568-2.299,12.648-2.873,20.694-6.898,32.767-3.447,9.197-5.747,16.095-12.071,22.418-3.449,2.875-6.324,6.324-8.623,10.349-1.148,1.724-2.299,3.447-4.023,4.599-4.023,2.299-6.898,5.747-9.773,9.771-2.873,4.025-6.898,6.324-12.071,9.771-9.197,6.324-9.771,8.049-20.12,12.072-2.299,1.15-7.472,1.724-13.221,1.724h-4.599c-8.048-.574-12.646-.574-20.694-3.447-11.497-4.025-21.844-4.599-28.742-13.796-1.15-1.151-8.623-7.474-8.623-8.623-1.148-7.472-3.447-13.222-5.173-21.268-1.725-7.474-2.299-11.497-4.025-18.97-1.724-7.474-1.724-12.072-3.447-19.545-1.151-6.324-2.299-9.197-3.451-15.521-1.148-6.322-.574-9.771-1.148-16.095-1.151-21.842-2.299-35.064-2.299-55.759v-5.173c0-19.546,1.724-30.467,3.447-49.438.576-4.023,1.151-5.747,1.725-9.771.574-2.873.574-4.599,1.15-7.472,2.875-13.796,4.599-21.27,7.474-35.066,1.724-6.898,2.873-10.347,4.599-17.245,1.724-5.748,2.299-9.771,4.023-14.946,7.474-22.994,18.97-41.388,29.316-55.76,1.725-1.724,3.451-4.023,5.174-5.747,1.724-2.299,2.875-4.599,4.599-6.324,18.395-13.796,14.946-14.946,27.017-16.095h1.725c9.771,0,29.318,6.324,34.49,12.071,2.873,3.451,5.748,7.474,9.771,9.773,3.451,1.724,7.474,2.299,10.923,4.023,3.449,2.299,6.898,4.599,8.048,8.623,1.724,8.623,6.322,16.095,9.773,23.568,2.873,6.324,5.747,12.072,8.046,18.395,1.151,4.025,2.299,7.474,2.299,11.497,1.151,10.349,3.451,18.97,4.599,31.617v29.318c.576,6.322.576,8.622.576,14.944ZM1502.97,496.026c-4.025-6.324-7.472-8.623-14.37-8.623h-.576c-2.299,0-9.197,6.898-9.773,9.197-3.447,11.497-8.046,23.569-9.197,29.318-4.023,15.521-5.747,24.719-9.197,40.239-2.299,9.197-.574,17.819-2.299,26.443-1.148,10.347-.574,12.646-1.148,22.419v13.796c-.576,6.898-2.299,10.921-2.299,17.819v8.048c0,12.071.574,21.268,1.148,35.064,0,3.451.576,5.174,1.151,8.049,1.724,13.796,1.724,22.418,4.599,39.089.574,4.023,1.724,14.944,14.37,14.944h1.15c4.599,0,14.372-6.898,16.095-12.071,2.299-8.048,4.599-16.095,5.748-21.268,1.15-7.474,2.299-13.222,4.025-21.27,2.299-13.221,2.873-20.119,5.173-33.341,0-1.725,0-2.299.574-4.025,1.151-8.046,2.299-12.645,2.875-21.268.576-10.923.576-16.67,1.15-27.592,0-2.873,0-5.173.574-8.048.576-7.474,1.151-12.072,1.725-19.545.574-12.646,1.725-22.994,1.725-34.49,0-4.599,0-9.771-.576-14.946-1.15-9.197-4.599-25.293-12.646-37.939Z"/>
    <path class="cls-1" d="M1950.756,439.116c0,1.725,0,4.025-.576,5.75-5.173,8.046-4.023,16.67-6.322,27.017-.576,4.599-.576,6.898-1.15,11.497-.574,5.174,0,8.622-1.15,13.796-1.15,9.197-2.299,13.796-4.599,22.994-.576,3.449-1.724,4.599-2.299,8.048-1.15,7.472-1.724,11.497-2.875,18.969-.574,5.174-.574,8.623-1.148,13.796-1.151,10.349-1.725,15.521-2.875,25.869-.576,5.174-.576,8.622-1.15,13.796-.574,4.023-1.15,5.748-1.725,9.773-1.148,7.472-1.724,11.497-2.873,18.969-1.15,8.623-1.15,13.222-2.299,21.844-.574,4.599-.574,6.898-1.15,11.497-1.15,7.474-1.724,12.072-2.875,19.545-.574,4.025-.574,5.748-.574,9.771,0,8.049,0,12.072-.574,20.12,0,4.599-.576,6.898-1.725,11.497-3.449,14.37-6.324,24.143-9.197,36.216,0,9.771-5.173,18.395-5.173,27.592v1.724c-1.725,6.322-3.451,12.646-5.174,18.97-1.15,4.599-1.724,9.197-2.875,13.221-.574,5.748-4.599,8.622-9.771,8.622h-1.725c-1.724-.574-3.447-1.148-5.747-2.299-2.299.576-4.025,2.875-5.75,4.599-1.148,1.725-2.873,2.875-4.023,4.025-1.724,1.15-3.449,1.725-5.748,1.725h-1.725c-5.173-1.725-10.346-3.451-16.095-5.75-4.023-3.447-9.197-8.046-12.645-12.071-8.623-13.796-13.222-28.166-18.97-42.538-5.748-13.221-10.921-27.017-15.52-40.813-4.599-12.648-9.773-25.293-14.947-38.515-6.322-17.821-12.645-35.64-17.819-54.035-4.023-16.095-9.197-31.615-12.072-47.711-3.447-7.474-4.023-15.521-9.197-22.419-2.873,0-4.599,1.725-5.173,4.025-.574,2.299-1.15,4.023-1.15,6.322-1.15,7.474-2.299,13.796-3.449,22.994-.574,2.875,0,5.174-.574,8.048-1.151,9.197-1.725,14.37-2.875,23.568,0,2.875-.576,5.174-.576,8.049,0,7.472,0,12.071-.574,19.543-.574,9.773-2.299,15.521-3.449,25.293-.576,9.773-.576,15.521-1.15,25.869,0,1.724-.574,2.299-1.15,4.023-1.15,6.898-1.15,10.349-2.299,17.247-.576,4.599-1.15,7.472-2.299,12.071,0,1.15-1.15,2.299-1.15,3.449-1.725,16.671-2.299,26.443-4.599,43.112-1.15,9.773-.574,16.095-5.173,24.145-1.725,1.724-4.025,3.447-6.898,5.747-1.725,3.451-3.451,6.898-5.174,9.773-4.599,4.023-9.197,6.898-14.372,7.474-5.173-.576-9.771-2.875-13.796-6.898-5.173-7.474-5.747-16.095-8.622-24.145-1.15-2.873-1.15-5.747-1.15-9.197v-16.095c0-6.322,0-10.921.574-18.395.576-5.173,1.725-8.046,2.299-13.221.576-5.174.576-8.622,1.151-13.796,1.148-9.197,1.724-14.372,2.873-23.569.574-4.023,1.15-5.747,1.15-9.771.576-4.025.576-5.748.576-9.771,1.148-10.923,1.724-16.671,2.873-27.592,2.299-16.671,3.449-26.444,5.748-43.114,1.15-6.324,1.724-9.197,2.299-15.521.576-8.046.576-12.071,1.15-20.119.574-6.898,1.725-10.347,2.873-17.245,1.151-6.324,2.299-9.197,2.875-15.521.576-4.599.576-6.898,1.15-11.497,1.15-9.197,1.725-14.37,2.873-23.568.576-2.873.576-5.173.576-8.048.576-20.694.576-32.767.576-53.461,0-4.023-1.151-7.472-1.151-10.921,0-1.724.576-3.449,1.151-5.174,3.447-7.472,9.771-11.497,14.944-14.37,2.299-1.15,4.599-1.15,7.474-1.15,3.449,0,7.474.576,10.921,1.15,5.174.574,10.349,2.873,15.521,4.025,1.725,2.873,4.025,5.173,5.748,8.046,1.724,2.875,3.449,5.75,5.174,8.049,1.148,1.724,2.299,3.447,3.447,5.173,14.947,19.545,25.869,41.388,36.79,63.232,2.875,6.322,5.75,13.221,8.049,20.119,7.472,18.97,14.37,37.941,21.268,57.484,4.599,14.947,8.048,30.467,13.222,45.413,1.148,4.599,2.299,9.197,4.023,13.222,1.724,4.599,3.449,9.771,4.599,14.944,1.724,7.474,5.174,14.947,9.773,21.27,2.299,0,4.599-.576,5.173-2.875.574-3.447.574-6.322,1.15-9.771,0-4.025,0-8.048,1.724-12.071.576-2.875,1.151-5.75,1.151-9.197.574-5.75.574-8.623.574-14.372.574-9.773.574-15.52,1.725-25.293,1.148-9.197,3.447-14.372,4.599-23.569,1.148-5.173,1.148-8.046,1.148-13.221.576-8.048.576-12.072,1.151-20.119,1.148-10.349,2.299-16.671,3.447-27.018.576-4.599,1.151-7.472,1.725-12.071.574-5.174,1.15-8.049,1.725-13.222,1.148-6.898,2.299-10.923,3.447-17.821.576-2.299.576-3.447.576-5.747,1.724-12.072,3.449-20.694,4.023-31.617.576-5.173,4.025-9.771,4.025-14.946,0-4.599.574-9.197.574-13.796,2.875-5.174,4.599-9.773,7.474-14.372,6.322-10.921,16.671-16.095,29.316-16.67,5.174,0,10.349,1.15,14.947,1.15,8.622,4.599,12.071,11.497,15.52,19.545v21.268Z"/>
  </g>
</svg>